<svg width="21" height="20" viewBox="0 0 21 20" fill="none" xmlns="http://www.w3.org/2000/svg">
<g id="discord" clip-path="url(#clip0_268_1100)">
<path id="Vector" d="M17.4313 3.74429C16.1344 3.15869 14.766 2.74074 13.3601 2.50085C13.3473 2.49874 13.3343 2.50057 13.3226 2.50607C13.311 2.51158 13.3014 2.5205 13.2951 2.5316C13.1188 2.83908 12.9238 3.24126 12.7876 3.55612C11.2721 3.32982 9.7306 3.32982 8.21513 3.55612C8.06315 3.20537 7.89121 2.86332 7.70014 2.5316C7.69372 2.52062 7.68408 2.5118 7.67248 2.50631C7.66088 2.50083 7.64786 2.49892 7.63514 2.50085C6.2289 2.73946 4.86017 3.15763 3.56393 3.74429C3.55284 3.74846 3.54356 3.75628 3.53768 3.76643C0.945207 7.57792 0.233964 11.2959 0.58271 14.9672C0.58396 14.9844 0.59521 15.0017 0.60896 15.0127C2.1186 16.113 3.80717 16.9531 5.60266 17.4971C5.61533 17.5011 5.62896 17.5009 5.64154 17.4967C5.65413 17.4925 5.66503 17.4845 5.67266 17.4738C6.05765 16.9572 6.40015 16.4124 6.69515 15.8392C6.70129 15.8274 6.7034 15.814 6.70115 15.8009C6.69889 15.7878 6.6924 15.7758 6.68265 15.7667C6.67619 15.7607 6.66852 15.7561 6.66015 15.7531C6.1216 15.5495 5.60003 15.3048 5.10016 15.0213C5.0862 15.0136 5.07582 15.0008 5.07116 14.9857C5.06651 14.9706 5.06794 14.9543 5.07516 14.9402C5.07942 14.931 5.08585 14.923 5.09391 14.9168C5.19891 14.8393 5.30391 14.7581 5.40391 14.677C5.41274 14.67 5.42334 14.6655 5.43457 14.664C5.4458 14.6625 5.45724 14.664 5.46766 14.6684C8.74137 16.1393 12.2851 16.1393 15.5188 14.6684C15.5296 14.6638 15.5415 14.6621 15.5531 14.6636C15.5648 14.6652 15.5758 14.6698 15.5851 14.677C15.6851 14.7581 15.7901 14.8393 15.895 14.9168C15.9036 14.9229 15.9104 14.931 15.9149 14.9404C15.9195 14.9497 15.9216 14.96 15.9211 14.9704C15.9206 14.9807 15.9175 14.9908 15.9121 14.9997C15.9067 15.0086 15.8991 15.016 15.89 15.0213C15.3913 15.3074 14.8691 15.5518 14.3288 15.7519C14.3202 15.755 14.3124 15.7599 14.3059 15.7662C14.2994 15.7726 14.2944 15.7803 14.2913 15.7888C14.2884 15.797 14.2873 15.8057 14.2879 15.8144C14.2886 15.8231 14.291 15.8315 14.2951 15.8392C14.5951 16.4111 14.9388 16.9572 15.3163 17.4738C15.3239 17.4845 15.3348 17.4925 15.3474 17.4967C15.36 17.5009 15.3736 17.5011 15.3863 17.4971C17.1848 16.9548 18.8761 16.1146 20.3875 15.0127C20.3951 15.0076 20.4014 15.0008 20.4059 14.9929C20.4105 14.985 20.4131 14.9763 20.4138 14.9672C20.8312 10.7228 19.715 7.03553 17.4563 3.76766C17.454 3.76226 17.4506 3.7574 17.4463 3.75337C17.442 3.74935 17.4369 3.74625 17.4313 3.74429ZM7.18389 12.7312C6.19765 12.7312 5.38641 11.8408 5.38641 10.7486C5.38641 9.65524 6.18265 8.76479 7.18389 8.76479C8.19263 8.76479 8.99637 9.66262 8.98137 10.7486C8.98137 11.8408 8.18513 12.7312 7.18389 12.7312ZM13.8288 12.7312C12.8438 12.7312 12.0313 11.8408 12.0313 10.7486C12.0313 9.65524 12.8276 8.76479 13.8288 8.76479C14.8376 8.76479 15.6426 9.66262 15.6263 10.7486C15.6263 11.8408 14.8376 12.7312 13.8288 12.7312Z" fill="#101828"/>
</g>
<defs>
<clipPath id="clip0_268_1100">
<rect width="20" height="20" fill="white" transform="translate(0.5)"/>
</clipPath>
</defs>
</svg>
