<svg width="60" height="61" viewBox="0 0 60 61" fill="none" xmlns="http://www.w3.org/2000/svg">
<g id="tabler:mood-empty">
<path id="Vector" d="M22.5 25.5H22.525M37.5 25.5H37.525M22.5 38H37.5M7.5 30.5C7.5 33.4547 8.08198 36.3806 9.21271 39.1104C10.3434 41.8402 12.0008 44.3206 14.0901 46.4099C16.1794 48.4992 18.6598 50.1566 21.3896 51.2873C24.1194 52.418 27.0453 53 30 53C32.9547 53 35.8806 52.418 38.6104 51.2873C41.3402 50.1566 43.8206 48.4992 45.9099 46.4099C47.9992 44.3206 49.6566 41.8402 50.7873 39.1104C51.918 36.3806 52.5 33.4547 52.5 30.5C52.5 27.5453 51.918 24.6194 50.7873 21.8896C49.6566 19.1598 47.9992 16.6794 45.9099 14.5901C43.8206 12.5008 41.3402 10.8434 38.6104 9.71271C35.8806 8.58198 32.9547 8 30 8C27.0453 8 24.1194 8.58198 21.3896 9.71271C18.6598 10.8434 16.1794 12.5008 14.0901 14.5901C12.0008 16.6794 10.3434 19.1598 9.21271 21.8896C8.08198 24.6194 7.5 27.5453 7.5 30.5Z" stroke="black" stroke-width="4" stroke-linecap="round" stroke-linejoin="round"/>
</g>
</svg>
