<svg width="20" height="20" viewBox="0 0 20 20" fill="none" xmlns="http://www.w3.org/2000/svg">
<g id="tdesign:heart">
<path id="Vector" d="M10.001 3.18168C11.0137 2.2923 12.3326 1.83173 13.6788 1.89741C15.0249 1.96308 16.2928 2.54986 17.214 3.5336C18.1353 4.51734 18.6378 5.82088 18.6151 7.16846C18.5925 8.51604 18.0465 9.80196 17.0927 10.7542L12.7394 15.1083L10.0002 17.8459L3.93352 11.78L2.90852 10.7534C1.95759 9.80051 1.41409 8.51546 1.39274 7.16946C1.3714 5.82346 1.87387 4.52183 2.7941 3.53931C3.71434 2.55679 4.98032 1.97027 6.32484 1.90354C7.66935 1.83681 8.98719 2.29511 10.0002 3.18168H10.001ZM12.7385 12.7525L15.9144 9.57585C16.2416 9.24864 16.5011 8.86018 16.6782 8.43266C16.8553 8.00514 16.9464 7.54693 16.9464 7.08418C16.9464 6.62144 16.8553 6.16322 16.6782 5.7357C16.5011 5.30818 16.2416 4.91973 15.9144 4.59252C15.5871 4.26531 15.1987 4.00575 14.7712 3.82866C14.3436 3.65158 13.8854 3.56044 13.4227 3.56044C12.9599 3.56044 12.5017 3.65158 12.0742 3.82866C11.6467 4.00575 11.2582 4.26531 10.931 4.59252L10.0002 5.52252L9.06935 4.59168C8.40852 3.93085 7.51224 3.5596 6.57768 3.5596C5.64313 3.5596 4.74685 3.93085 4.08602 4.59168C3.42519 5.25252 3.05393 6.14879 3.05393 7.08335C3.05393 8.01791 3.42519 8.91419 4.08602 9.57502L5.11268 10.6017L10.0002 15.4892L12.7377 12.7517L12.7385 12.7525Z" fill="black"/>
</g>
</svg>
