<svg width="14" height="12" viewBox="0 0 14 12" fill="none" xmlns="http://www.w3.org/2000/svg">
<path id="Vector" d="M7.02047 0.97059C7.78213 0.301654 8.77414 -0.0447567 9.78664 0.0046418C10.7991 0.0540403 11.7527 0.495373 12.4456 1.23528C13.1386 1.97518 13.5165 2.95562 13.4994 3.96918C13.4824 4.98274 13.0717 5.94992 12.3544 6.66612L9.08006 9.94103L7.01985 12L2.4569 7.43768L1.68597 6.66549C0.970741 5.94883 0.561958 4.9823 0.545902 3.96993C0.529845 2.95756 0.907773 1.97856 1.59991 1.23957C2.29205 0.500586 3.24424 0.059441 4.25549 0.00925428C5.26675 -0.0409324 6.25794 0.303766 7.01985 0.97059H7.02047ZM9.07944 8.16913L11.4681 5.77986C11.7142 5.53375 11.9094 5.24158 12.0426 4.92003C12.1758 4.59847 12.2444 4.25384 12.2444 3.90579C12.2444 3.55774 12.1758 3.21311 12.0426 2.89155C11.9094 2.57 11.7142 2.27783 11.4681 2.03172C11.222 1.78562 10.9298 1.5904 10.6083 1.45721C10.2867 1.32401 9.94207 1.25546 9.59402 1.25546C9.24598 1.25546 8.90134 1.32401 8.57979 1.45721C8.25823 1.5904 7.96606 1.78562 7.71996 2.03172L7.01985 2.73121L6.31974 2.0311C5.8227 1.53406 5.14858 1.25483 4.44567 1.25483C3.74276 1.25483 3.06864 1.53406 2.5716 2.0311C2.07457 2.52813 1.79534 3.20225 1.79534 3.90516C1.79534 4.60807 2.07457 5.2822 2.5716 5.77923L3.34379 6.55142L7.01985 10.2275L9.07881 8.16851L9.07944 8.16913Z" fill="#D0D5DD"/>
</svg>
