<svg width="81" height="80" viewBox="0 0 81 80" fill="none" xmlns="http://www.w3.org/2000/svg">
<g id="logos:bitcoin" clip-path="url(#clip0_363_4752)">
<path id="Vector" d="M79.3034 49.6731C73.959 71.1131 52.2368 84.1462 30.8275 78.8015C9.38683 73.4571 -3.64629 51.7359 1.69839 30.3268C7.04277 8.88683 28.7334 -4.14629 50.174 1.1984C71.5834 6.51152 84.6481 28.2328 79.3034 49.6731Z" fill="url(#paint0_linear_363_4752)"/>
<path id="Vector_2" d="M59.5454 35.0156C60.3267 29.7031 56.2954 26.8281 50.7329 24.9219L52.5454 17.7031L48.1704 16.6094L46.4204 23.6406C45.2642 23.3594 44.0767 23.0781 42.8892 22.8281L44.6392 15.7656L40.2642 14.6719L38.4829 21.8594C37.5142 21.6406 36.5767 21.4219 35.6704 21.2031V21.1719L29.6079 19.6719L28.4517 24.3594C28.4517 24.3594 31.7017 25.1094 31.6392 25.1406C33.4204 25.5781 33.7329 26.7656 33.6704 27.7031L31.6079 35.9219C31.7329 35.9531 31.8892 35.9844 32.0767 36.0781C31.9204 36.0469 31.7642 36.0156 31.6079 35.9531L28.7329 47.4531C28.5142 47.9844 27.9517 48.7969 26.7329 48.4844C26.7642 48.5469 23.5454 47.7031 23.5454 47.7031L21.3579 52.7344L27.0767 54.1719C28.1392 54.4531 29.1704 54.7031 30.2017 54.9844L28.3892 62.2656L32.7642 63.3594L34.5767 56.1406C35.7642 56.4531 36.9517 56.7656 38.0767 57.0469L36.2954 64.2344L40.6704 65.3281L42.4829 58.0469C49.9829 59.4531 55.6079 58.8906 57.9517 52.1094C59.8579 46.6719 57.8579 43.5156 53.9204 41.4531C56.8267 40.7969 58.9829 38.8906 59.5454 35.0156ZM49.5142 49.0781C48.1704 54.5156 38.9829 51.5781 36.0142 50.8281L38.4204 41.1719C41.3892 41.9219 50.9517 43.3906 49.5142 49.0781ZM50.8892 34.9219C49.6392 39.8906 42.0142 37.3594 39.5454 36.7344L41.7329 27.9844C44.2017 28.6094 52.1704 29.7656 50.8892 34.9219Z" fill="white"/>
</g>
<defs>
<linearGradient id="paint0_linear_363_4752" x1="3998.34" y1="-1.92" x2="3998.34" y2="7999.19" gradientUnits="userSpaceOnUse">
<stop stop-color="#F9AA4B"/>
<stop offset="1" stop-color="#F7931A"/>
</linearGradient>
<clipPath id="clip0_363_4752">
<rect width="80" height="80" fill="white" transform="translate(0.5)"/>
</clipPath>
</defs>
</svg>
