<svg width="349" height="74" viewBox="0 0 349 74" fill="none" xmlns="http://www.w3.org/2000/svg">
<path d="M185.374 19.709H191.107L184.807 59.147H176.932L172.522 29.537L168.175 59.147H160.3L154 19.709H159.859L164.269 53.981L169.372 19.709H175.672L180.775 53.981L185.374 19.709Z" fill="black"/>
<path d="M200.266 28.403H206.44C210.388 28.403 212.362 30.272 212.362 34.01V45.539H199.951V52.847C199.951 53.561 200.077 54.044 200.329 54.296C200.581 54.548 201.085 54.674 201.841 54.674H204.739C205.495 54.674 205.999 54.548 206.251 54.296C206.503 54.044 206.629 53.54 206.629 52.784V50.264H212.173V53.603C212.173 57.299 210.22 59.147 206.314 59.147H200.266C196.36 59.147 194.407 57.299 194.407 53.603V34.01C194.407 30.272 196.36 28.403 200.266 28.403ZM199.951 41.381H206.755V34.703C206.755 33.989 206.629 33.506 206.377 33.254C206.167 33.002 205.684 32.876 204.928 32.876H201.841C201.085 32.876 200.581 33.002 200.329 33.254C200.077 33.506 199.951 33.989 199.951 34.703V41.381Z" fill="black"/>
<path d="M226.811 28.34H229.016C232.838 28.34 234.749 30.209 234.749 33.947V53.603C234.749 57.299 232.838 59.147 229.016 59.147H226.811C224.753 59.147 223.451 58.328 222.905 56.69V59.147H217.235V17H222.905V30.797C223.451 29.159 224.753 28.34 226.811 28.34ZM229.079 52.721V34.766C229.079 34.052 228.953 33.569 228.701 33.317C228.449 33.065 227.945 32.939 227.189 32.939H224.984C224.228 32.939 223.682 33.107 223.346 33.443C223.052 33.779 222.905 34.346 222.905 35.144V52.343C222.905 53.141 223.052 53.708 223.346 54.044C223.682 54.38 224.228 54.548 224.984 54.548H227.189C227.945 54.548 228.449 54.443 228.701 54.233C228.953 53.981 229.079 53.477 229.079 52.721Z" fill="black"/>
<path d="M244.662 26.135V32.057H238.992V25.253C238.992 21.557 240.945 19.709 244.851 19.709H250.647C254.595 19.709 256.569 21.557 256.569 25.253V35.207C256.569 37.433 255.729 38.735 254.049 39.113C255.729 39.491 256.569 40.709 256.569 42.767V53.603C256.569 57.299 254.595 59.147 250.647 59.147H244.851C240.945 59.147 238.992 57.299 238.992 53.603V46.862H244.662V52.721C244.662 53.477 244.788 53.981 245.04 54.233C245.292 54.443 245.796 54.548 246.552 54.548H249.009C249.765 54.548 250.269 54.443 250.521 54.233C250.773 53.981 250.899 53.477 250.899 52.721V43.271C250.899 42.515 250.773 42.032 250.521 41.822C250.269 41.57 249.765 41.444 249.009 41.444H244.284V36.908H249.009C249.765 36.908 250.269 36.803 250.521 36.593C250.773 36.341 250.899 35.837 250.899 35.081V26.135C250.899 25.379 250.773 24.896 250.521 24.686C250.269 24.434 249.765 24.308 249.009 24.308H246.552C245.796 24.308 245.292 24.434 245.04 24.686C244.788 24.896 244.662 25.379 244.662 26.135Z" fill="black"/>
<path d="M268.505 54.548H278.27V59.147H262.835V19.709H268.505V54.548Z" fill="#A5B1C2"/>
<path d="M286.762 28.403H293.503C297.409 28.403 299.362 30.272 299.362 34.01V53.603C299.362 57.299 297.409 59.147 293.503 59.147H286.762C282.898 59.147 280.966 57.299 280.966 53.603V34.01C280.966 30.272 282.898 28.403 286.762 28.403ZM293.755 52.784V34.766C293.755 34.01 293.629 33.506 293.377 33.254C293.125 33.002 292.621 32.876 291.865 32.876H288.4C287.644 32.876 287.14 33.002 286.888 33.254C286.678 33.506 286.573 34.01 286.573 34.766V52.784C286.573 53.54 286.678 54.044 286.888 54.296C287.14 54.548 287.644 54.674 288.4 54.674H291.865C292.621 54.674 293.125 54.548 293.377 54.296C293.629 54.044 293.755 53.54 293.755 52.784Z" fill="#A5B1C2"/>
<path d="M316.064 28.403H321.734V62.297C321.734 65.993 319.76 67.841 315.812 67.841H305.291V63.368H314.174C314.93 63.368 315.434 63.242 315.686 62.99C315.938 62.738 316.064 62.255 316.064 61.541V56.312C315.518 57.95 314.216 58.769 312.158 58.769H309.89C306.11 58.769 304.22 56.9 304.22 53.162V34.01C304.22 30.272 306.11 28.403 309.89 28.403H312.158C314.216 28.403 315.518 29.222 316.064 30.86V28.403ZM311.78 54.17H313.985C314.741 54.17 315.266 54.002 315.56 53.666C315.896 53.33 316.064 52.763 316.064 51.965V35.207C316.064 34.409 315.896 33.842 315.56 33.506C315.266 33.17 314.741 33.002 313.985 33.002H311.78C311.024 33.002 310.52 33.128 310.268 33.38C310.016 33.59 309.89 34.073 309.89 34.829V52.343C309.89 53.057 310.016 53.54 310.268 53.792C310.52 54.044 311.024 54.17 311.78 54.17Z" fill="#A5B1C2"/>
<path d="M332.781 28.403H339.522C343.428 28.403 345.381 30.272 345.381 34.01V53.603C345.381 57.299 343.428 59.147 339.522 59.147H332.781C328.917 59.147 326.985 57.299 326.985 53.603V34.01C326.985 30.272 328.917 28.403 332.781 28.403ZM339.774 52.784V34.766C339.774 34.01 339.648 33.506 339.396 33.254C339.144 33.002 338.64 32.876 337.884 32.876H334.419C333.663 32.876 333.159 33.002 332.907 33.254C332.697 33.506 332.592 34.01 332.592 34.766V52.784C332.592 53.54 332.697 54.044 332.907 54.296C333.159 54.548 333.663 54.674 334.419 54.674H337.884C338.64 54.674 339.144 54.548 339.396 54.296C339.648 54.044 339.774 53.54 339.774 52.784Z" fill="#A5B1C2"/>
<path d="M43 0L86 74H0L43 0Z" fill="black"/>
<path opacity="0.8" d="M69 0L112 74H26L69 0Z" fill="black"/>
<path opacity="0.4" d="M95 0L138 74H52L95 0Z" fill="#A5B1C2"/>
</svg>
