<svg width="43" height="42" viewBox="0 0 43 42" fill="none" xmlns="http://www.w3.org/2000/svg">
<g id="carbon:user-filled">
<rect x="0.5" width="42" height="42" rx="21" fill="black"/>
<path id="Vector" d="M15.2451 30.5455H27.7558V27.1364C27.7544 25.871 27.2927 24.6579 26.4718 23.7632C25.6509 22.8684 24.5379 22.3651 23.377 22.3637H19.6238C18.4629 22.3651 17.35 22.8684 16.5291 23.7632C15.7082 24.6579 15.2464 25.871 15.2451 27.1364V30.5455ZM17.1217 16.2273C17.1217 17.1713 17.3785 18.094 17.8597 18.8789C18.3408 19.6638 19.0247 20.2755 19.8248 20.6367C20.6249 20.998 21.5053 21.0925 22.3547 20.9083C23.2041 20.7242 23.9843 20.2696 24.5967 19.6021C25.209 18.9347 25.6261 18.0842 25.795 17.1584C25.964 16.2326 25.8773 15.273 25.5458 14.4009C25.2144 13.5288 24.6532 12.7834 23.9331 12.2589C23.213 11.7345 22.3665 11.4546 21.5004 11.4546C20.3391 11.4546 19.2254 11.9574 18.4042 12.8525C17.583 13.7475 17.1217 14.9615 17.1217 16.2273Z" fill="white"/>
</g>
</svg>
