<svg width="61" height="60" viewBox="0 0 61 60" fill="none" xmlns="http://www.w3.org/2000/svg">
<g id="mdi:face-outline">
<path id="Vector" d="M30.5 43.75C36.325 43.75 41.25 40.1 43.275 35H17.725C19.725 40.1 24.675 43.75 30.5 43.75ZM21.75 27.5C22.7446 27.5 23.6984 27.1049 24.4017 26.4017C25.1049 25.6984 25.5 24.7446 25.5 23.75C25.5 22.7554 25.1049 21.8016 24.4017 21.0983C23.6984 20.3951 22.7446 20 21.75 20C20.7554 20 19.8016 20.3951 19.0983 21.0983C18.3951 21.8016 18 22.7554 18 23.75C18 24.7446 18.3951 25.6984 19.0983 26.4017C19.8016 27.1049 20.7554 27.5 21.75 27.5ZM39.25 27.5C40.2446 27.5 41.1984 27.1049 41.9016 26.4017C42.6049 25.6984 43 24.7446 43 23.75C43 22.7554 42.6049 21.8016 41.9016 21.0983C41.1984 20.3951 40.2446 20 39.25 20C38.2554 20 37.3016 20.3951 36.5983 21.0983C35.8951 21.8016 35.5 22.7554 35.5 23.75C35.5 24.7446 35.8951 25.6984 36.5983 26.4017C37.3016 27.1049 38.2554 27.5 39.25 27.5ZM30.5 50C25.1957 50 20.1086 47.8929 16.3579 44.1421C12.6071 40.3914 10.5 35.3043 10.5 30C10.5 24.6957 12.6071 19.6086 16.3579 15.8579C20.1086 12.1071 25.1957 10 30.5 10C35.8043 10 40.8914 12.1071 44.6421 15.8579C48.3929 19.6086 50.5 24.6957 50.5 30C50.5 35.3043 48.3929 40.3914 44.6421 44.1421C40.8914 47.8929 35.8043 50 30.5 50ZM30.5 5C16.675 5 5.5 16.25 5.5 30C5.5 36.6304 8.13392 42.9893 12.8223 47.6777C15.1438 49.9991 17.8998 51.8406 20.9329 53.097C23.9661 54.3534 27.217 55 30.5 55C37.1304 55 43.4893 52.3661 48.1777 47.6777C52.8661 42.9893 55.5 36.6304 55.5 30C55.5 26.717 54.8534 23.4661 53.597 20.4329C52.3406 17.3998 50.4991 14.6438 48.1777 12.3223C45.8562 10.0009 43.1002 8.15938 40.0671 6.90301C37.0339 5.64664 33.783 5 30.5 5Z" fill="black"/>
</g>
</svg>
