<svg width="21" height="20" viewBox="0 0 21 20" fill="none" xmlns="http://www.w3.org/2000/svg">
<g id="twitter" clip-path="url(#clip0_268_1097)">
<path id="Vector" d="M6.7825 18.3333C14.33 18.3333 18.4587 12.2403 18.4587 6.96561C18.4587 6.7951 18.4587 6.62216 18.4513 6.45166C19.2551 5.88472 19.9488 5.18281 20.5 4.37882C19.7491 4.70138 18.9535 4.91397 18.1388 5.00968C18.9969 4.50991 19.6397 3.72356 19.9475 2.79679C19.1412 3.26217 18.2588 3.58887 17.3387 3.76257C16.7202 3.12078 15.9018 2.69561 15.0101 2.55292C14.1185 2.41023 13.2034 2.55799 12.4067 2.97331C11.6099 3.38862 10.976 4.04832 10.6031 4.85022C10.2301 5.65211 10.139 6.55144 10.3438 7.40892C8.71218 7.32921 7.11602 6.91624 5.6588 6.19681C4.20159 5.47737 2.91586 4.46754 1.885 3.23279C1.36168 4.11342 1.20197 5.1551 1.43831 6.14629C1.67465 7.13749 2.28932 8.00389 3.1575 8.56956C2.50692 8.54802 1.87065 8.37781 1.3 8.07266V8.12747C1.30112 9.04999 1.62913 9.94384 2.22859 10.6579C2.82805 11.372 3.66218 11.8626 4.59 12.0466C4.23783 12.1411 3.87404 12.1883 3.50875 12.1867C3.25123 12.1874 2.99423 12.1642 2.74125 12.1173C3.00348 12.9114 3.51409 13.6057 4.20156 14.103C4.88903 14.6003 5.71892 14.8756 6.575 14.8904C5.12069 16.0033 3.32425 16.6069 1.475 16.6039C1.14915 16.6053 0.823529 16.587 0.5 16.5491C2.37689 17.715 4.55662 18.334 6.7825 18.3333Z" fill="#101828"/>
</g>
<defs>
<clipPath id="clip0_268_1097">
<rect width="20" height="20" fill="white" transform="translate(0.5)"/>
</clipPath>
</defs>
</svg>
