<svg width="313" height="64" viewBox="0 0 313 64" fill="none" xmlns="http://www.w3.org/2000/svg">
<path d="M86.3137 51.9633H93.9468V17.4385H108.45V10.8624H72.0458V17.4385H86.3137V51.9633Z" fill="white"/>
<path d="M103.966 44.4477C103.966 49.6147 107.724 52.844 113.361 52.844C118.117 52.844 121.111 50.0257 122.344 45.8569H124.869C124.987 50.4367 126.102 51.9633 130.917 51.9633H133.97V46.3266H131.211C129.684 46.3266 129.449 46.033 129.449 44.5651V32.7633C129.449 25.6587 125.045 21.8422 117.001 21.8422C109.075 21.8422 104.143 26.0697 103.555 30.4734L110.073 32.1761C110.836 29.1817 113.009 27.3028 117.001 27.3028C120.7 27.3028 122.344 28.8881 122.344 31.8826V32.8807C116.766 33.4092 112.304 34.5248 108.957 36.2862C105.611 37.989 103.966 40.7486 103.966 44.4477ZM122.344 39.9266C122.344 44.9174 119.291 47.4422 115.651 47.4422C112.833 47.4422 111.247 46.0917 111.247 43.7431C111.247 39.9853 115.357 38.3413 122.344 37.578V39.9266Z" fill="white"/>
<path d="M138.641 51.9633H145.804V10.8624H138.641V51.9633Z" fill="white"/>
<path d="M154.288 18.0844H161.921V10.8037H154.288V18.0844ZM154.581 51.9633H161.686V22.7229H154.581V51.9633Z" fill="white"/>
<path d="M167.766 44.4477C169.058 49.6147 174.577 52.7853 181.153 52.7853C189.197 52.7853 194.071 49.0862 194.071 43.3908C194.071 40.6899 193.072 38.6349 191.135 37.2257C189.197 35.8165 186.849 34.8184 184.089 34.2899L180.272 33.5853C176.75 32.8807 175.81 32 175.81 30.2973C175.81 28.3596 177.513 27.0092 180.625 27.0092C183.972 27.0092 186.085 28.9468 187.025 31.4716L193.072 28.8881C191.722 25.3064 187.847 21.8422 180.86 21.8422C173.872 21.8422 168.999 25.5413 168.999 30.9431C168.999 36.4624 172.522 38.5174 178.452 39.7505L182.327 40.455C185.616 41.1009 186.672 42.2752 186.672 44.0954C186.672 46.1505 184.794 47.4422 181.447 47.4422C176.808 47.4422 174.929 44.8587 174.401 42.2752L167.766 44.4477Z" fill="white"/>
<path d="M200.453 51.9633H207.616V37.5193C207.616 34.2312 207.851 31.5303 209.671 29.4165C210.552 28.3596 211.902 27.8312 213.722 27.8312C217.245 27.8312 219.007 29.945 219.007 34.1138V51.9633H226.053V37.5193C226.053 34.1725 226.229 31.5303 228.049 29.4165C228.93 28.3596 230.339 27.8312 232.159 27.8312C235.506 27.8312 237.444 29.8275 237.444 34.1138V51.9633H244.548V32.8807C244.548 25.7762 240.438 21.8422 234.801 21.8422C230.809 21.8422 227.579 24.6606 226.346 28.7119H223.822C222.823 24.3083 219.711 21.8422 215.777 21.8422C211.491 21.8422 208.966 24.7193 207.851 28.7119H204.504C205.737 27.0092 206.794 24.4257 206.794 22.7229H200.453V51.9633Z" fill="white"/>
<path d="M251.157 44.4477C251.157 49.6147 254.915 52.844 260.551 52.844C265.307 52.844 268.302 50.0257 269.535 45.8569H272.06C272.177 50.4367 273.293 51.9633 278.107 51.9633H281.161V46.3266H278.401C276.874 46.3266 276.639 46.033 276.639 44.5651V32.7633C276.639 25.6587 272.236 21.8422 264.192 21.8422C256.265 21.8422 251.333 26.0697 250.746 30.4734L257.263 32.1761C258.027 29.1817 260.199 27.3028 264.192 27.3028C267.891 27.3028 269.535 28.8881 269.535 31.8826V32.8807C263.957 33.4092 259.494 34.5248 256.148 36.2862C252.801 37.989 251.157 40.7486 251.157 44.4477ZM269.535 39.9266C269.535 44.9174 266.482 47.4422 262.841 47.4422C260.023 47.4422 258.438 46.0917 258.438 43.7431C258.438 39.9853 262.548 38.3413 269.535 37.578V39.9266Z" fill="white"/>
<path d="M285.831 51.9633H292.994V38.5762C292.994 35.0532 293.229 32 295.167 29.6514C296.165 28.4184 297.692 27.8312 299.688 27.8312C303.035 27.8312 304.972 29.8862 304.972 34.1138V51.9633H312.136V32.7046C312.136 25.9523 308.672 21.8422 302.095 21.8422C297.281 21.8422 294.228 25.5413 292.936 29.4752H289.589C291.233 27.0679 292.407 24.4257 292.466 22.7229H285.831V51.9633Z" fill="white"/>
<path fill-rule="evenodd" clip-rule="evenodd" d="M54.5455 36.4245C53.5149 37.4551 51.7241 36.9873 51.1159 35.6628C50.996 35.4018 50.9308 35.1218 50.9308 34.8345L50.9308 12C50.9308 9.23855 48.6922 6.99997 45.9307 6.99997C43.1693 6.99997 40.9307 9.23856 40.9307 12L40.9307 23.5572C40.9307 24.551 39.9127 25.2256 38.965 24.9261C38.3653 24.7366 37.9321 24.1905 37.9321 23.5616L37.9321 5.00002C37.9321 2.23858 35.6935 -7.24237e-07 32.932 0C30.1706 7.24237e-07 27.932 2.23858 27.932 5.00002L27.932 23.5602C27.932 24.1896 27.4984 24.736 26.8983 24.9257C25.9501 25.2253 24.9314 24.5503 24.9314 23.5559L24.9314 12C24.9314 9.23855 22.6928 6.99997 19.9314 6.99997C17.1699 6.99997 14.9314 9.23855 14.9314 12L14.9314 34.8423C14.9314 35.1241 14.8674 35.3988 14.7497 35.6548C14.1541 36.9502 12.4039 37.4037 11.3957 36.3955L9.53558 34.5354C7.58295 32.5828 4.41711 32.5828 2.46447 34.5354C0.511839 36.488 0.511845 39.6539 2.46448 41.6065L17.1636 56.3056C20.8241 60.9892 26.5259 64 32.9309 64C39.0696 64 44.5623 61.2344 48.2311 56.8811L63.5058 41.6065C65.4584 39.6538 65.4584 36.488 63.5058 34.5354C61.5532 32.5827 58.3873 32.5827 56.4347 34.5354L54.5455 36.4245ZM32.9298 56.0002C41.7664 56.0002 48.9299 46.0001 48.9299 46.0001C48.9299 46.0001 41.7664 36.0001 32.9298 36.0001C24.0932 36.0001 16.9297 46.0002 16.9297 46.0002C16.9297 46.0002 24.0932 56.0002 32.9298 56.0002Z" fill="white"/>
<path d="M38.9303 46.0005C38.9303 49.3142 36.244 52.0005 32.9303 52.0005C29.6165 52.0005 26.9302 49.3142 26.9302 46.0005C26.9302 42.6868 29.6165 40.0004 32.9303 40.0004C36.244 40.0004 38.9303 42.6868 38.9303 46.0005Z" fill="white"/>
</svg>
