<?xml version="1.0" encoding="utf-8"?>

<svg version="1.1" id="图层_1" xmlns="http://www.w3.org/2000/svg" xmlns:xlink="http://www.w3.org/1999/xlink" x="0px" y="0px"
	 viewBox="0 0 310.3 69.4" style="enable-background:new 0 0 310.3 69.4;" xml:space="preserve">
<style type="text/css">
	.st0{fill:#FFFFFF;}
</style>
<g>
	<path class="st0" d="M95.3,63.4c-5.9,0-11.3-2.6-15.2-6.9c-3.8-4-5.8-9.5-5.8-15.4c0-12.7,8.9-22.1,20.6-22.1
		c11.8,0,20.4,9.3,20.4,22.1c0,2.6-2.1,4.7-4.7,4.7H84.3c1.6,4.9,5.8,8.3,11,8.3c4.1,0,7.4-1.1,9.2-4.5c1.4-2.2,4.3-2.9,6.4-1.6
		c2.2,1.4,2.9,4.3,1.6,6.4C108.9,60.9,102.7,63.4,95.3,63.4z M84.2,36.3h21.1c-1.6-5.5-6-8.1-10.4-8.1
		C90.6,28.2,85.9,30.8,84.2,36.3z"/>
	<path class="st0" d="M224.1,37.2v21.5c0,2.6-2.1,4.7-4.7,4.7c-2.2,0-4.1-1.5-4.6-3.6c-3.4,2.3-7.5,3.6-11.8,3.6
		c-5.9,0-11.3-2.3-15.2-6.7c-3.7-4-5.8-9.5-5.8-15.4c0-5.9,2.1-11.5,5.8-15.5c3.9-4.3,9.3-6.7,15.2-6.7c4.3,0,8.4,1.3,11.8,3.6
		C220.3,26.3,224.1,33.2,224.1,37.2z M214.7,41.3c0-7.5-5-12.8-11.7-12.8c-6.8,0-11.7,5.4-11.7,12.8c0,7.4,4.9,12.8,11.7,12.8
		C209.8,54.1,214.7,48.7,214.7,41.3z"/>
	<path class="st0" d="M253.3,59.3c-2.2,2.6-5.5,4.1-9,4.1c-6.5,0-11.8-5.3-11.8-11.8V28.5c-2.4-0.1-4.4-2.2-4.4-4.7s2-4.6,4.4-4.7
		V14c0-2.6,2.1-4.7,4.7-4.7c2.6,0,4.7,2.1,4.7,4.7v5.1h5.9c2.6,0,4.7,2.1,4.7,4.7s-2.1,4.7-4.7,4.7h-5.9v23.1c0,1.4,1,2.5,2.4,2.5
		c1,0,1.6-0.6,1.8-0.9c1.7-1.9,4.7-2.2,6.6-0.5C254.8,54.3,255,57.3,253.3,59.3z"/>
	<path class="st0" d="M276.9,63.4c-5.9,0-11.3-2.6-15.2-6.9c-3.8-4-5.8-9.5-5.8-15.4c0-12.7,8.9-22.1,20.6-22.1
		c11.8,0,20.4,9.3,20.4,22.1c0,2.6-2.1,4.7-4.7,4.7h-26.2c1.6,4.9,5.8,8.3,11,8.3c4.1,0,7.4-1.1,9.2-4.5c1.4-2.2,4.3-2.9,6.4-1.6
		c2.2,1.4,2.9,4.3,1.6,6.4C290.5,60.9,284.3,63.4,276.9,63.4z M265.8,36.3h21.1c-1.6-5.5-6-8.1-10.4-8.1
		C272.2,28.2,267.5,30.8,265.8,36.3z"/>
	<g>
		<path class="st0" d="M41.8,6.5H19.1c-1.8,0-3.3,0.8-4.4,2.1c-0.1,0.1-0.2,0.3-0.3,0.4c-0.6,0.9-1,2-1,3.2c0,3,2.4,5.5,5.3,5.7
			l0.1,0.1h22.9c9.4,0,17,7.7,17,17v0c0,9.4-7.7,17-17,17H27.1c-1.3,0-2.3-1.1-2.4-2.3h0h0V52h0V40.6h17.3c3.1,0,5.7-2.6,5.7-5.7
			c0-3.1-2.6-5.7-5.7-5.7h-23c0,0,0,0,0,0h-0.1c-3,0-5.5,2.5-5.5,5.5V52v5.7v0.2c0,3,2.5,5.5,5.5,5.5h0.2h0.2h22.6
			c15.6,0,28.4-12.8,28.4-28.4v0C70.2,19.3,57.5,6.5,41.8,6.5z"/>
		<path class="st0" d="M24.8,43L24.8,43L24.8,43c0-1.3,1.1-2.3,2.4-2.3h-2.4h0V43z"/>
	</g>
	<g>
		<path class="st0" d="M147.7,6.5h22.7c1.8,0,3.3,0.8,4.4,2.1c0.1,0.1,0.2,0.3,0.3,0.4c0.6,0.9,1,2,1,3.2c0,3-2.4,5.5-5.3,5.7
			l-0.1,0.1h-22.9c-9.4,0-17,7.7-17,17v0c0,9.4,7.7,17,17,17h14.6c1.3,0,2.3-1.1,2.4-2.3h0h0V52h0V40.6h-17.3
			c-3.1,0-5.7-2.6-5.7-5.7c0-3.1,2.6-5.7,5.7-5.7h23c0,0,0,0,0,0h0.1c3,0,5.5,2.5,5.5,5.5V52v5.7v0.2c0,3-2.5,5.5-5.5,5.5h-0.2h-0.2
			h-22.6c-15.6,0-28.4-12.8-28.4-28.4v0C119.3,19.3,132.1,6.5,147.7,6.5z"/>
		<path class="st0" d="M164.7,43L164.7,43L164.7,43c0-1.3-1.1-2.3-2.4-2.3h2.4h0V43z"/>
	</g>
</g>
</svg>
