<?xml version="1.0" encoding="utf-8"?>

<svg version="1.1" id="图层_1" xmlns="http://www.w3.org/2000/svg" xmlns:xlink="http://www.w3.org/1999/xlink" x="0px" y="0px"
	 viewBox="0 0 262.2 286.2" style="enable-background:new 0 0 262.2 286.2;" xml:space="preserve">
<style type="text/css">
	.st0{fill:#1F4B9E;}
	.st1{fill:#103877;}
	.st2{fill:#FFFFFF;}
	.st3{fill:#ADADAD;}
	.st4{opacity:0.1;fill:none;stroke:#231815;stroke-miterlimit:10;}
	.st5{fill:#F29600;}
	.st6{fill:#E95513;}
	.st7{clip-path:url(#SVGID_2_);}
	.st8{clip-path:url(#SVGID_4_);}
	.st9{clip-path:url(#SVGID_6_);}
	.st10{clip-path:url(#SVGID_8_);}
	.st11{clip-path:url(#SVGID_10_);}
	.st12{clip-path:url(#SVGID_12_);}
	.st13{clip-path:url(#SVGID_14_);}
	.st14{clip-path:url(#SVGID_16_);}
	.st15{clip-path:url(#SVGID_18_);}
	.st16{clip-path:url(#SVGID_20_);}
	.st17{clip-path:url(#SVGID_22_);}
	.st18{clip-path:url(#SVGID_24_);}
</style>
<g id="PANews_bg_1_">
	<g>
		<rect x="320.8" y="372.8" class="st0" width="897.8" height="304.1"/>
		<rect x="320.8" y="676.2" class="st1" width="897.8" height="304.1"/>
		<rect x="320.8" y="1.3" class="st2" width="897.8" height="371.5"/>
	</g>
	<path class="st0" d="M637.5,80H320.8l0.4-80h396.7v0C708.6,47,675.5,80,637.5,80z"/>
	<g>
		<path class="st2" d="M386.1,28.1h8.5c3,0,5.3,0.6,7.1,1.9c1.7,1.3,2.6,3.3,2.6,5.9c0,2.6-0.9,4.6-2.6,5.9c-1.7,1.3-4.1,2-7.1,2
			h-5.5v13.6h-3V28.1z M389.1,41.1h4.8c1.3,0,2.4-0.1,3.4-0.4c0.9-0.3,1.7-0.6,2.2-1.1c0.6-0.5,1-1,1.2-1.6s0.4-1.3,0.4-2
			c0-0.7-0.1-1.3-0.4-2s-0.6-1.2-1.2-1.6c-0.6-0.5-1.3-0.8-2.2-1.1c-0.9-0.3-2-0.4-3.4-0.4h-4.8V41.1z"/>
		<path class="st2" d="M406.3,57.4h-3.5l12.8-29.3h2.9l12.8,29.3h-3.5l-3.2-7.7h-15L406.3,57.4z M410.7,47h12.7L417,31.6L410.7,47z"
			/>
		<path class="st2" d="M456.4,53L456.4,53l0.1-24.8h3v29.3h-3.7l-17.5-25.1h-0.1v25.1h-3V28.1h3.7L456.4,53z"/>
		<path class="st2" d="M468.3,48.5c0.1,1,0.3,1.9,0.7,2.7c0.4,0.9,0.9,1.6,1.5,2.2c0.6,0.6,1.4,1.1,2.2,1.5c0.8,0.4,1.7,0.5,2.7,0.5
			c1.5,0,2.7-0.3,3.8-1c1.1-0.7,1.9-1.5,2.4-2.3l2.1,1.7c-1.2,1.5-2.4,2.5-3.8,3.1s-2.9,1-4.5,1c-1.4,0-2.8-0.3-4-0.8
			c-1.2-0.5-2.3-1.2-3.2-2.1c-0.9-0.9-1.6-2-2.1-3.2s-0.8-2.6-0.8-4.1c0-1.5,0.2-2.8,0.7-4.1s1.2-2.3,2.1-3.2
			c0.9-0.9,1.9-1.6,3.1-2.1c1.2-0.5,2.5-0.8,3.9-0.8c1.5,0,2.8,0.3,3.9,0.8c1.2,0.5,2.1,1.2,2.9,2.1c0.8,0.9,1.4,1.9,1.8,3.1
			c0.4,1.2,0.6,2.4,0.6,3.7v1.2H468.3z M481.5,46.3c0-1.8-0.6-3.3-1.7-4.5s-2.6-1.7-4.6-1.7c-0.9,0-1.7,0.2-2.6,0.5
			c-0.8,0.3-1.6,0.8-2.2,1.4s-1.1,1.2-1.5,2c-0.4,0.7-0.6,1.5-0.6,2.3H481.5z"/>
		<path class="st2" d="M490.3,38.1l4.5,15.7h0.1l5.2-15.7h2.8l5.2,15.7h0.1l4.5-15.7h3.2l-6.1,19.4h-3.1l-5.1-15.9h-0.1l-5.1,15.9
			h-3.1l-6.1-19.4H490.3z"/>
		<path class="st2" d="M529.6,42.7c-0.4-0.8-1-1.4-1.7-1.9c-0.7-0.5-1.5-0.7-2.5-0.7c-0.5,0-0.9,0.1-1.4,0.2
			c-0.5,0.1-0.9,0.3-1.3,0.5c-0.4,0.2-0.7,0.5-0.9,0.9c-0.2,0.4-0.4,0.8-0.4,1.3c0,0.9,0.3,1.6,1,2c0.6,0.4,1.6,0.8,2.9,1.1l2.8,0.7
			c1.4,0.3,2.5,0.9,3.4,1.8c0.9,0.9,1.3,2.1,1.3,3.5c0,1-0.2,2-0.6,2.7c-0.4,0.8-1,1.4-1.7,1.9c-0.7,0.5-1.5,0.8-2.4,1.1
			c-0.9,0.2-1.8,0.3-2.8,0.3c-1.5,0-2.9-0.3-4.2-0.8s-2.4-1.5-3.3-2.9l2.4-1.6c0.6,0.9,1.2,1.6,2.1,2.1c0.8,0.5,1.8,0.8,3,0.8
			c0.6,0,1.1-0.1,1.7-0.2c0.6-0.1,1-0.3,1.5-0.6c0.4-0.3,0.8-0.6,1-1c0.3-0.4,0.4-0.9,0.4-1.4c0-1-0.4-1.7-1.1-2.1
			c-0.7-0.4-1.6-0.8-2.6-1l-2.7-0.6c-0.3-0.1-0.8-0.2-1.3-0.4c-0.6-0.2-1.1-0.5-1.7-0.9c-0.5-0.4-1-0.9-1.4-1.5
			c-0.4-0.6-0.6-1.4-0.6-2.3c0-1,0.2-1.9,0.6-2.6c0.4-0.7,0.9-1.4,1.6-1.8c0.7-0.5,1.4-0.8,2.3-1.1c0.9-0.2,1.7-0.4,2.7-0.4
			c1.4,0,2.6,0.3,3.8,0.8c1.2,0.5,2.1,1.4,2.7,2.7L529.6,42.7z"/>
		<path class="st2" d="M551.9,57.4h-2.7V26.1h2.7V57.4z"/>
		<path class="st2" d="M578,47.7c0,1.5-0.3,2.8-0.8,4.1c-0.5,1.2-1.2,2.3-2.1,3.2c-0.9,0.9-2,1.6-3.3,2.1c-1.3,0.5-2.6,0.8-4.2,0.8
			c-1.5,0-2.9-0.3-4.1-0.8c-1.3-0.5-2.3-1.2-3.3-2.1c-0.9-0.9-1.6-2-2.1-3.2s-0.8-2.6-0.8-4.1c0-1.5,0.3-2.8,0.8-4.1
			s1.2-2.3,2.1-3.2c0.9-0.9,2-1.6,3.3-2.1c1.3-0.5,2.6-0.8,4.1-0.8c1.5,0,2.9,0.3,4.2,0.8c1.3,0.5,2.3,1.2,3.3,2.1
			c0.9,0.9,1.6,2,2.1,3.2C577.8,44.9,578,46.3,578,47.7z M575,47.7c0-1.1-0.2-2.1-0.5-3c-0.3-0.9-0.8-1.8-1.5-2.4
			c-0.6-0.7-1.4-1.2-2.3-1.6c-0.9-0.4-1.9-0.6-3-0.6s-2.1,0.2-3,0.6c-0.9,0.4-1.7,0.9-2.3,1.6s-1.1,1.5-1.4,2.4
			c-0.3,0.9-0.5,1.9-0.5,3c0,1.1,0.2,2.1,0.5,3c0.3,0.9,0.8,1.8,1.4,2.4c0.6,0.7,1.4,1.2,2.3,1.6c0.9,0.4,1.9,0.6,3,0.6
			s2.1-0.2,3-0.6c0.9-0.4,1.7-0.9,2.3-1.6c0.6-0.7,1.1-1.5,1.5-2.4C574.9,49.8,575,48.8,575,47.7z"/>
		<path class="st2" d="M584.5,61.3c0.8,1.1,1.8,1.9,3.1,2.6c1.3,0.6,2.7,1,4.3,1c1.4,0,2.6-0.2,3.5-0.6c1-0.4,1.7-0.9,2.3-1.6
			c0.6-0.7,1-1.5,1.3-2.4c0.3-0.9,0.4-1.9,0.4-3v-3.5h-0.1c-0.9,1.3-2,2.3-3.2,2.8c-1.3,0.6-2.6,0.8-4,0.8s-2.7-0.2-4-0.7
			c-1.2-0.5-2.3-1.2-3.2-2c-0.9-0.9-1.6-1.9-2.2-3.1c-0.5-1.2-0.8-2.5-0.8-3.9s0.2-2.7,0.7-3.9c0.5-1.2,1.2-2.3,2-3.2
			c0.9-0.9,1.9-1.6,3.1-2.1c1.2-0.5,2.5-0.8,4-0.8c0.6,0,1.2,0.1,1.8,0.2c0.6,0.1,1.3,0.3,1.9,0.6c0.6,0.3,1.3,0.7,1.9,1.1
			c0.6,0.5,1.2,1.1,1.8,1.8h0.1v-3.2h2.7v19.2c0,1-0.1,2.2-0.4,3.4c-0.3,1.2-0.8,2.3-1.5,3.3c-0.8,1-1.8,1.8-3.2,2.5s-3.1,1-5.3,1
			c-1.9,0-3.7-0.3-5.2-1c-1.5-0.6-2.9-1.6-4.1-2.9L584.5,61.3z M585,47.5c0,1,0.2,2,0.6,2.9c0.4,0.9,0.9,1.7,1.5,2.4
			c0.6,0.7,1.4,1.2,2.3,1.6c0.9,0.4,1.8,0.6,2.8,0.6c1,0,1.9-0.2,2.8-0.5c0.9-0.4,1.7-0.9,2.4-1.5c0.7-0.6,1.2-1.4,1.6-2.3
			c0.4-0.9,0.5-1.9,0.5-3.1c0-1-0.2-2-0.5-2.9c-0.3-0.9-0.8-1.7-1.4-2.4c-0.6-0.7-1.4-1.2-2.3-1.6c-0.9-0.4-1.9-0.6-3.1-0.6
			c-1,0-2,0.2-2.8,0.6c-0.9,0.4-1.6,0.9-2.3,1.6c-0.6,0.7-1.2,1.5-1.5,2.4C585.2,45.5,585,46.5,585,47.5z"/>
		<path class="st2" d="M627.9,47.7c0,1.5-0.3,2.8-0.8,4.1c-0.5,1.2-1.2,2.3-2.1,3.2c-0.9,0.9-2,1.6-3.3,2.1
			c-1.3,0.5-2.6,0.8-4.2,0.8c-1.5,0-2.9-0.3-4.1-0.8c-1.3-0.5-2.3-1.2-3.3-2.1c-0.9-0.9-1.6-2-2.1-3.2s-0.8-2.6-0.8-4.1
			c0-1.5,0.3-2.8,0.8-4.1s1.2-2.3,2.1-3.2c0.9-0.9,2-1.6,3.3-2.1c1.3-0.5,2.6-0.8,4.1-0.8c1.5,0,2.9,0.3,4.2,0.8
			c1.3,0.5,2.3,1.2,3.3,2.1c0.9,0.9,1.6,2,2.1,3.2C627.6,44.9,627.9,46.3,627.9,47.7z M624.9,47.7c0-1.1-0.2-2.1-0.5-3
			c-0.3-0.9-0.8-1.8-1.5-2.4c-0.6-0.7-1.4-1.2-2.3-1.6c-0.9-0.4-1.9-0.6-3-0.6s-2.1,0.2-3,0.6c-0.9,0.4-1.7,0.9-2.3,1.6
			s-1.1,1.5-1.4,2.4c-0.3,0.9-0.5,1.9-0.5,3c0,1.1,0.2,2.1,0.5,3c0.3,0.9,0.8,1.8,1.4,2.4c0.6,0.7,1.4,1.2,2.3,1.6
			c0.9,0.4,1.9,0.6,3,0.6s2.1-0.2,3-0.6c0.9-0.4,1.7-0.9,2.3-1.6c0.6-0.7,1.1-1.5,1.5-2.4C624.7,49.8,624.9,48.8,624.9,47.7z"/>
	</g>
	<g>
		<g>
			<path class="st3" d="M549.3,133.8L549.3,133.8l4.4-11.3h1.5l-5.2,13.3h-1.4l-5-13.3h1.5L549.3,133.8z"/>
			<path class="st3" d="M556.3,131.7c0,0.4,0.1,0.9,0.3,1.2c0.2,0.4,0.4,0.7,0.7,1c0.3,0.3,0.6,0.5,1,0.7s0.8,0.2,1.2,0.2
				c0.7,0,1.2-0.2,1.7-0.5c0.5-0.3,0.8-0.7,1.1-1.1l1,0.8c-0.5,0.7-1.1,1.1-1.7,1.4c-0.6,0.3-1.3,0.4-2,0.4c-0.7,0-1.3-0.1-1.8-0.3
				s-1-0.6-1.4-1c-0.4-0.4-0.7-0.9-0.9-1.5s-0.3-1.2-0.3-1.8c0-0.7,0.1-1.3,0.3-1.8s0.5-1.1,0.9-1.5c0.4-0.4,0.9-0.7,1.4-1
				s1.1-0.3,1.7-0.3c0.7,0,1.3,0.1,1.8,0.4s1,0.6,1.3,0.9s0.6,0.9,0.8,1.4c0.2,0.5,0.3,1.1,0.3,1.7v0.6H556.3z M562.2,130.7
				c0-0.8-0.3-1.5-0.8-2c-0.5-0.5-1.2-0.8-2.1-0.8c-0.4,0-0.8,0.1-1.2,0.2c-0.4,0.2-0.7,0.4-1,0.6c-0.3,0.3-0.5,0.6-0.7,0.9
				s-0.3,0.7-0.3,1.1H562.2z"/>
			<path class="st3" d="M566,129.7c0-0.4,0-0.8,0-1.2c0-0.4,0-0.9,0-1.6h1.2v1.6h0c0.1-0.2,0.2-0.5,0.4-0.7c0.2-0.2,0.4-0.4,0.6-0.6
				c0.2-0.2,0.5-0.3,0.8-0.4c0.3-0.1,0.7-0.2,1-0.2c0.4,0,0.7,0,0.9,0.1l-0.2,1.2c-0.2-0.1-0.4-0.1-0.7-0.1c-0.5,0-0.9,0.1-1.2,0.3
				c-0.3,0.2-0.6,0.4-0.8,0.7c-0.2,0.3-0.4,0.6-0.5,0.9c-0.1,0.3-0.2,0.6-0.2,0.9v5H566V129.7z"/>
			<path class="st3" d="M576.6,128.1h-2.5v5.2c0,0.3,0,0.6,0.1,0.8c0.1,0.2,0.2,0.4,0.3,0.5c0.1,0.1,0.2,0.2,0.4,0.2
				c0.2,0,0.3,0.1,0.5,0.1c0.2,0,0.4,0,0.7-0.1s0.4-0.1,0.6-0.2l0.1,1.1c-0.5,0.2-1,0.3-1.7,0.3c-0.2,0-0.5,0-0.7-0.1
				s-0.5-0.2-0.7-0.4c-0.2-0.2-0.4-0.4-0.5-0.7c-0.1-0.3-0.2-0.7-0.2-1.2v-5.5H571V127h1.9v-2.5h1.2v2.5h2.5V128.1z"/>
			<path class="st3" d="M580.1,123.6c0,0.3-0.1,0.5-0.3,0.6c-0.2,0.2-0.4,0.3-0.6,0.3s-0.4-0.1-0.6-0.3c-0.2-0.2-0.3-0.4-0.3-0.6
				c0-0.3,0.1-0.5,0.3-0.6c0.2-0.2,0.4-0.3,0.6-0.3s0.4,0.1,0.6,0.3C580,123.1,580.1,123.4,580.1,123.6z M579.8,135.8h-1.2V127h1.2
				V135.8z"/>
			<path class="st3" d="M589.2,129.1c-0.2-0.3-0.5-0.6-0.9-0.8c-0.4-0.2-0.8-0.3-1.3-0.3c-0.5,0-1,0.1-1.4,0.2
				c-0.4,0.2-0.8,0.4-1,0.7c-0.3,0.3-0.5,0.7-0.7,1.1c-0.1,0.4-0.2,0.9-0.2,1.4s0.1,1,0.2,1.4c0.2,0.4,0.4,0.8,0.7,1.1
				c0.3,0.3,0.6,0.6,1,0.7c0.4,0.2,0.9,0.3,1.4,0.2c0.5,0,0.9-0.1,1.3-0.3c0.4-0.2,0.7-0.5,0.9-0.8l1,0.8c-0.4,0.5-0.9,0.9-1.5,1.1
				c-0.6,0.2-1.1,0.4-1.7,0.4c-0.7,0-1.4-0.1-1.9-0.3c-0.6-0.2-1.1-0.6-1.5-1s-0.7-0.9-0.9-1.5c-0.2-0.6-0.3-1.2-0.3-1.8
				c0-0.7,0.1-1.3,0.3-1.8c0.2-0.6,0.5-1.1,0.9-1.5s0.9-0.7,1.5-1c0.6-0.2,1.2-0.3,1.9-0.3c0.6,0,1.2,0.1,1.7,0.4
				c0.6,0.2,1,0.6,1.5,1.1L589.2,129.1z"/>
			<path class="st3" d="M597.5,130.4v-0.2c0-1.5-0.8-2.3-2.3-2.3c-1,0-1.9,0.3-2.7,1l-0.8-0.9c0.8-0.9,2.1-1.3,3.7-1.3
				c0.4,0,0.8,0.1,1.2,0.2c0.4,0.1,0.7,0.3,1,0.6c0.3,0.3,0.5,0.6,0.7,1c0.2,0.4,0.3,0.9,0.3,1.4v3.9c0,0.3,0,0.7,0,1.1
				s0.1,0.7,0.1,0.9h-1.2c0-0.2-0.1-0.4-0.1-0.7c0-0.3,0-0.5,0-0.7h0c-0.4,0.6-0.8,1-1.3,1.3c-0.5,0.3-1.1,0.4-1.8,0.4
				c-0.4,0-0.8-0.1-1.1-0.2c-0.4-0.1-0.7-0.3-1-0.5c-0.3-0.2-0.5-0.5-0.7-0.8c-0.2-0.3-0.3-0.7-0.3-1.1c0-0.7,0.2-1.3,0.6-1.7
				s0.8-0.7,1.4-0.9c0.6-0.2,1.2-0.3,1.8-0.4c0.6,0,1.2-0.1,1.7-0.1H597.5z M596.8,131.4c-0.3,0-0.7,0-1.2,0c-0.5,0-0.9,0.1-1.4,0.2
				c-0.4,0.1-0.8,0.3-1.1,0.6c-0.3,0.3-0.5,0.6-0.5,1c0,0.3,0.1,0.5,0.2,0.7c0.1,0.2,0.3,0.4,0.5,0.5s0.4,0.2,0.7,0.3
				s0.5,0.1,0.7,0.1c0.5,0,0.8-0.1,1.2-0.2c0.3-0.2,0.6-0.4,0.8-0.6c0.2-0.3,0.4-0.6,0.5-0.9c0.1-0.3,0.2-0.7,0.2-1.1v-0.6H596.8z"
				/>
			<path class="st3" d="M603.1,135.8h-1.2v-14.2h1.2V135.8z"/>
			<path class="st3" d="M613.1,134.5h6.2v1.2h-7.5v-13.3h1.4V134.5z"/>
			<path class="st3" d="M629.6,131.4c0,0.7-0.1,1.3-0.3,1.8c-0.2,0.6-0.6,1.1-1,1.5c-0.4,0.4-0.9,0.7-1.5,1
				c-0.6,0.2-1.2,0.3-1.9,0.3c-0.7,0-1.3-0.1-1.9-0.3c-0.6-0.2-1.1-0.6-1.5-1c-0.4-0.4-0.7-0.9-1-1.5s-0.3-1.2-0.3-1.8
				c0-0.7,0.1-1.3,0.3-1.8s0.6-1.1,1-1.5c0.4-0.4,0.9-0.7,1.5-1c0.6-0.2,1.2-0.3,1.9-0.3c0.7,0,1.3,0.1,1.9,0.3
				c0.6,0.2,1.1,0.6,1.5,1c0.4,0.4,0.7,0.9,1,1.5C629.5,130.1,629.6,130.7,629.6,131.4z M628.2,131.4c0-0.5-0.1-0.9-0.2-1.4
				c-0.2-0.4-0.4-0.8-0.7-1.1c-0.3-0.3-0.6-0.6-1-0.7c-0.4-0.2-0.9-0.3-1.4-0.3s-1,0.1-1.4,0.3c-0.4,0.2-0.8,0.4-1,0.7
				c-0.3,0.3-0.5,0.7-0.7,1.1s-0.2,0.9-0.2,1.4c0,0.5,0.1,0.9,0.2,1.4c0.2,0.4,0.4,0.8,0.7,1.1c0.3,0.3,0.6,0.6,1,0.7
				c0.4,0.2,0.9,0.3,1.4,0.3s1-0.1,1.4-0.3c0.4-0.2,0.8-0.4,1-0.7c0.3-0.3,0.5-0.7,0.7-1.1C628.1,132.3,628.2,131.9,628.2,131.4z"/>
			<path class="st3" d="M638.2,129.1c-0.2-0.3-0.5-0.6-0.9-0.8c-0.4-0.2-0.8-0.3-1.3-0.3c-0.5,0-1,0.1-1.4,0.2
				c-0.4,0.2-0.8,0.4-1,0.7c-0.3,0.3-0.5,0.7-0.7,1.1c-0.1,0.4-0.2,0.9-0.2,1.4s0.1,1,0.2,1.4c0.2,0.4,0.4,0.8,0.7,1.1
				c0.3,0.3,0.6,0.6,1,0.7c0.4,0.2,0.9,0.3,1.4,0.2c0.5,0,0.9-0.1,1.3-0.3c0.4-0.2,0.7-0.5,0.9-0.8l1,0.8c-0.4,0.5-0.9,0.9-1.5,1.1
				c-0.6,0.2-1.1,0.4-1.7,0.4c-0.7,0-1.4-0.1-1.9-0.3c-0.6-0.2-1.1-0.6-1.5-1s-0.7-0.9-0.9-1.5c-0.2-0.6-0.3-1.2-0.3-1.8
				c0-0.7,0.1-1.3,0.3-1.8c0.2-0.6,0.5-1.1,0.9-1.5s0.9-0.7,1.5-1c0.6-0.2,1.2-0.3,1.9-0.3c0.6,0,1.2,0.1,1.7,0.4
				c0.6,0.2,1,0.6,1.5,1.1L638.2,129.1z"/>
			<path class="st3" d="M642.1,131l4.1-4h1.9l-4.4,4l4.8,4.8h-1.9l-4.6-4.6v4.6h-1.2v-14.2h1.2V131z"/>
			<path class="st3" d="M656.3,135.8c0-0.2,0-0.5,0-0.7c0-0.2,0-0.5,0-0.7h0c-0.1,0.2-0.3,0.5-0.5,0.7c-0.2,0.2-0.5,0.4-0.7,0.5
				c-0.3,0.1-0.5,0.3-0.8,0.3c-0.3,0.1-0.6,0.1-0.9,0.1c-1.1,0-2-0.3-2.5-0.9c-0.5-0.6-0.8-1.4-0.8-2.5V127h1.2v4.9
				c0,0.5,0,0.9,0.1,1.3c0.1,0.4,0.2,0.7,0.4,0.9c0.2,0.3,0.4,0.5,0.7,0.6c0.3,0.1,0.7,0.2,1.2,0.2c0.1,0,0.2,0,0.5-0.1
				c0.3,0,0.6-0.2,0.9-0.4c0.3-0.2,0.6-0.6,0.9-1c0.3-0.5,0.4-1.1,0.4-1.9V127h1.2v6.9c0,0.2,0,0.5,0,0.9s0,0.7,0.1,1H656.3z"/>
			<path class="st3" d="M660.4,127h1.2v1.5h0c0.2-0.3,0.4-0.6,0.7-0.8c0.3-0.2,0.6-0.4,0.9-0.5s0.6-0.2,0.9-0.3
				c0.3-0.1,0.6-0.1,0.9-0.1c0.7,0,1.3,0.1,1.9,0.3s1.1,0.6,1.5,1c0.4,0.4,0.7,0.9,1,1.5s0.3,1.2,0.3,1.8c0,0.7-0.1,1.3-0.3,1.8
				s-0.6,1.1-1,1.5c-0.4,0.4-0.9,0.7-1.5,1s-1.2,0.3-1.9,0.3c-0.3,0-0.6,0-0.9-0.1c-0.3-0.1-0.6-0.2-0.9-0.3s-0.6-0.3-0.9-0.5
				s-0.5-0.5-0.7-0.8h0v6.9h-1.2V127z M668.4,131.4c0-0.5-0.1-0.9-0.2-1.4s-0.4-0.8-0.7-1.1c-0.3-0.3-0.6-0.6-1-0.7
				c-0.4-0.2-0.9-0.3-1.4-0.3c-0.5,0-1,0.1-1.4,0.3c-0.4,0.2-0.8,0.4-1.1,0.7c-0.3,0.3-0.6,0.7-0.7,1.1c-0.2,0.4-0.3,0.9-0.3,1.4
				c0,0.5,0.1,0.9,0.3,1.4c0.2,0.4,0.4,0.8,0.7,1.1c0.3,0.3,0.7,0.6,1.1,0.7c0.4,0.2,0.9,0.3,1.4,0.3c0.5,0,1-0.1,1.4-0.3
				c0.4-0.2,0.8-0.4,1-0.7c0.3-0.3,0.5-0.7,0.7-1.1C668.3,132.3,668.4,131.9,668.4,131.4z"/>
		</g>
	</g>
	<g>
		<g>
			<path class="st3" d="M356.1,306.2h6.2v1.2h-7.5v-13.3h1.4V306.2z"/>
			<path class="st3" d="M365.5,295.3c0,0.3-0.1,0.5-0.3,0.6c-0.2,0.2-0.4,0.3-0.6,0.3s-0.4-0.1-0.6-0.3c-0.2-0.2-0.3-0.4-0.3-0.6
				c0-0.3,0.1-0.5,0.3-0.6c0.2-0.2,0.4-0.3,0.6-0.3s0.4,0.1,0.6,0.3C365.4,294.8,365.5,295.1,365.5,295.3z M365.2,307.5H364v-8.8
				h1.2V307.5z"/>
			<path class="st3" d="M368.9,309.3c0.4,0.5,0.8,0.9,1.4,1.2c0.6,0.3,1.2,0.4,1.9,0.4c0.6,0,1.2-0.1,1.6-0.3
				c0.4-0.2,0.8-0.4,1.1-0.7c0.3-0.3,0.5-0.7,0.6-1.1c0.1-0.4,0.2-0.9,0.2-1.3v-1.6h0c-0.4,0.6-0.9,1-1.5,1.3
				c-0.6,0.3-1.2,0.4-1.8,0.4s-1.2-0.1-1.8-0.3c-0.6-0.2-1-0.5-1.5-0.9c-0.4-0.4-0.7-0.9-1-1.4c-0.2-0.6-0.4-1.1-0.4-1.8
				s0.1-1.2,0.3-1.8c0.2-0.6,0.5-1,0.9-1.4c0.4-0.4,0.9-0.7,1.4-1s1.1-0.3,1.8-0.3c0.3,0,0.5,0,0.8,0.1c0.3,0.1,0.6,0.1,0.9,0.3
				s0.6,0.3,0.9,0.5c0.3,0.2,0.6,0.5,0.8,0.8h0v-1.5h1.2v8.7c0,0.5-0.1,1-0.2,1.5c-0.1,0.5-0.4,1-0.7,1.5c-0.3,0.5-0.8,0.8-1.4,1.1
				c-0.6,0.3-1.4,0.5-2.4,0.5c-0.9,0-1.7-0.1-2.3-0.4c-0.7-0.3-1.3-0.7-1.9-1.3L368.9,309.3z M369.1,303c0,0.5,0.1,0.9,0.3,1.3
				s0.4,0.8,0.7,1.1s0.6,0.6,1,0.7c0.4,0.2,0.8,0.3,1.3,0.3c0.5,0,0.9-0.1,1.3-0.2c0.4-0.2,0.8-0.4,1.1-0.7c0.3-0.3,0.6-0.6,0.7-1.1
				s0.2-0.9,0.2-1.4c0-0.5-0.1-0.9-0.2-1.3c-0.1-0.4-0.4-0.8-0.7-1.1c-0.3-0.3-0.6-0.6-1.1-0.7c-0.4-0.2-0.9-0.3-1.4-0.3
				c-0.5,0-0.9,0.1-1.3,0.3c-0.4,0.2-0.7,0.4-1,0.7s-0.5,0.7-0.7,1.1S369.1,302.5,369.1,303z"/>
			<path class="st3" d="M379.7,293.3h1.2v6.8h0c0.1-0.2,0.3-0.5,0.5-0.7c0.2-0.2,0.5-0.4,0.7-0.5c0.3-0.1,0.5-0.3,0.8-0.3
				c0.3-0.1,0.6-0.1,0.9-0.1c1.1,0,2,0.3,2.5,0.9s0.8,1.4,0.8,2.5v5.6H386v-4.9c0-1-0.2-1.7-0.5-2.2c-0.3-0.5-1-0.8-1.9-0.8
				c-0.1,0-0.2,0-0.5,0.1c-0.3,0-0.6,0.2-0.9,0.4c-0.3,0.2-0.6,0.6-0.9,1c-0.3,0.5-0.4,1.1-0.4,1.9v4.5h-1.2V293.3z"/>
			<path class="st3" d="M394.7,299.8h-2.5v5.2c0,0.3,0,0.6,0.1,0.8c0.1,0.2,0.2,0.4,0.3,0.5c0.1,0.1,0.2,0.2,0.4,0.2
				c0.2,0,0.3,0.1,0.5,0.1c0.2,0,0.4,0,0.7-0.1s0.4-0.1,0.6-0.2l0.1,1.1c-0.5,0.2-1,0.3-1.7,0.3c-0.2,0-0.5,0-0.7-0.1
				s-0.5-0.2-0.7-0.4c-0.2-0.2-0.4-0.4-0.5-0.7c-0.1-0.3-0.2-0.7-0.2-1.2v-5.5H389v-1.1h1.9v-2.5h1.2v2.5h2.5V299.8z"/>
			<path class="st3" d="M354.3,315.8h1.2v6.9h0c0.2-0.3,0.4-0.6,0.7-0.8c0.3-0.2,0.6-0.4,0.9-0.5s0.6-0.2,0.9-0.3
				c0.3-0.1,0.6-0.1,0.9-0.1c0.7,0,1.3,0.1,1.9,0.3s1.1,0.6,1.5,1c0.4,0.4,0.7,0.9,1,1.5s0.3,1.2,0.3,1.8c0,0.7-0.1,1.3-0.3,1.8
				s-0.6,1.1-1,1.5c-0.4,0.4-0.9,0.7-1.5,1s-1.2,0.3-1.9,0.3c-0.3,0-0.6,0-0.9-0.1c-0.3-0.1-0.6-0.2-0.9-0.3s-0.6-0.3-0.9-0.5
				s-0.5-0.5-0.7-0.8h0v1.5h-1.2V315.8z M362.3,325.6c0-0.5-0.1-0.9-0.2-1.4s-0.4-0.8-0.7-1.1c-0.3-0.3-0.6-0.6-1-0.7
				c-0.4-0.2-0.9-0.3-1.4-0.3c-0.5,0-1,0.1-1.4,0.3c-0.4,0.2-0.8,0.4-1.1,0.7c-0.3,0.3-0.6,0.7-0.7,1.1c-0.2,0.4-0.3,0.9-0.3,1.4
				c0,0.5,0.1,0.9,0.3,1.4c0.2,0.4,0.4,0.8,0.7,1.1c0.3,0.3,0.7,0.6,1.1,0.7c0.4,0.2,0.9,0.3,1.4,0.3c0.5,0,1-0.1,1.4-0.3
				c0.4-0.2,0.8-0.4,1-0.7c0.3-0.3,0.5-0.7,0.7-1.1C362.3,326.6,362.3,326.1,362.3,325.6z"/>
			<path class="st3" d="M371.4,324.6v-0.2c0-1.5-0.8-2.3-2.3-2.3c-1,0-1.9,0.3-2.7,1l-0.8-0.9c0.8-0.9,2.1-1.3,3.7-1.3
				c0.4,0,0.8,0.1,1.2,0.2c0.4,0.1,0.7,0.3,1,0.6c0.3,0.3,0.5,0.6,0.7,1c0.2,0.4,0.3,0.9,0.3,1.4v3.9c0,0.3,0,0.7,0,1.1
				s0.1,0.7,0.1,0.9h-1.2c0-0.2-0.1-0.4-0.1-0.7c0-0.3,0-0.5,0-0.7h0c-0.4,0.6-0.8,1-1.3,1.3c-0.5,0.3-1.1,0.4-1.8,0.4
				c-0.4,0-0.8-0.1-1.1-0.2c-0.4-0.1-0.7-0.3-1-0.5c-0.3-0.2-0.5-0.5-0.7-0.8c-0.2-0.3-0.3-0.7-0.3-1.1c0-0.7,0.2-1.3,0.6-1.7
				s0.8-0.7,1.4-0.9c0.6-0.2,1.2-0.3,1.8-0.4c0.6,0,1.2-0.1,1.7-0.1H371.4z M370.8,325.6c-0.3,0-0.7,0-1.2,0c-0.5,0-0.9,0.1-1.4,0.2
				c-0.4,0.1-0.8,0.3-1.1,0.6c-0.3,0.3-0.5,0.6-0.5,1c0,0.3,0.1,0.5,0.2,0.7c0.1,0.2,0.3,0.4,0.5,0.5s0.4,0.2,0.7,0.3
				s0.5,0.1,0.7,0.1c0.5,0,0.8-0.1,1.2-0.2c0.3-0.2,0.6-0.4,0.8-0.6c0.2-0.3,0.4-0.6,0.5-0.9c0.1-0.3,0.2-0.7,0.2-1.1v-0.6H370.8z"
				/>
			<path class="st3" d="M381.9,323.3c-0.2-0.3-0.5-0.6-0.9-0.8c-0.4-0.2-0.8-0.3-1.3-0.3c-0.5,0-1,0.1-1.4,0.2
				c-0.4,0.2-0.8,0.4-1,0.7c-0.3,0.3-0.5,0.7-0.7,1.1c-0.1,0.4-0.2,0.9-0.2,1.4s0.1,1,0.2,1.4c0.2,0.4,0.4,0.8,0.7,1.1
				c0.3,0.3,0.6,0.6,1,0.7c0.4,0.2,0.9,0.3,1.4,0.2c0.5,0,0.9-0.1,1.3-0.3c0.4-0.2,0.7-0.5,0.9-0.8l1,0.8c-0.4,0.5-0.9,0.9-1.5,1.1
				c-0.6,0.2-1.1,0.4-1.7,0.4c-0.7,0-1.4-0.1-1.9-0.3c-0.6-0.2-1.1-0.6-1.5-1s-0.7-0.9-0.9-1.5c-0.2-0.6-0.3-1.2-0.3-1.8
				c0-0.7,0.1-1.3,0.3-1.8c0.2-0.6,0.5-1.1,0.9-1.5s0.9-0.7,1.5-1c0.6-0.2,1.2-0.3,1.9-0.3c0.6,0,1.2,0.1,1.7,0.4
				c0.6,0.2,1,0.6,1.5,1.1L381.9,323.3z"/>
			<path class="st3" d="M385.8,325.2l4.1-4h1.9l-4.4,4l4.8,4.8h-1.9l-4.6-4.6v4.6h-1.2v-14.2h1.2V325.2z"/>
			<path class="st3" d="M394.3,331.8c0.4,0.5,0.8,0.9,1.4,1.2c0.6,0.3,1.2,0.4,1.9,0.4c0.6,0,1.2-0.1,1.6-0.3
				c0.4-0.2,0.8-0.4,1.1-0.7c0.3-0.3,0.5-0.7,0.6-1.1c0.1-0.4,0.2-0.9,0.2-1.3v-1.6h0c-0.4,0.6-0.9,1-1.5,1.3
				c-0.6,0.3-1.2,0.4-1.8,0.4s-1.2-0.1-1.8-0.3c-0.6-0.2-1-0.5-1.5-0.9c-0.4-0.4-0.7-0.9-1-1.4c-0.2-0.6-0.4-1.1-0.4-1.8
				s0.1-1.2,0.3-1.8c0.2-0.6,0.5-1,0.9-1.4c0.4-0.4,0.9-0.7,1.4-1s1.1-0.3,1.8-0.3c0.3,0,0.5,0,0.8,0.1c0.3,0.1,0.6,0.1,0.9,0.3
				s0.6,0.3,0.9,0.5c0.3,0.2,0.6,0.5,0.8,0.8h0v-1.5h1.2v8.7c0,0.5-0.1,1-0.2,1.5c-0.1,0.5-0.4,1-0.7,1.5c-0.3,0.5-0.8,0.8-1.4,1.1
				c-0.6,0.3-1.4,0.5-2.4,0.5c-0.9,0-1.7-0.1-2.3-0.4c-0.7-0.3-1.3-0.7-1.9-1.3L394.3,331.8z M394.5,325.5c0,0.5,0.1,0.9,0.3,1.3
				s0.4,0.8,0.7,1.1s0.6,0.6,1,0.7c0.4,0.2,0.8,0.3,1.3,0.3c0.5,0,0.9-0.1,1.3-0.2c0.4-0.2,0.8-0.4,1.1-0.7c0.3-0.3,0.6-0.6,0.7-1.1
				s0.2-0.9,0.2-1.4c0-0.5-0.1-0.9-0.2-1.3c-0.1-0.4-0.4-0.8-0.7-1.1c-0.3-0.3-0.6-0.6-1.1-0.7c-0.4-0.2-0.9-0.3-1.4-0.3
				c-0.5,0-0.9,0.1-1.3,0.3c-0.4,0.2-0.7,0.4-1,0.7s-0.5,0.7-0.7,1.1S394.5,325,394.5,325.5z"/>
			<path class="st3" d="M405.2,324c0-0.4,0-0.8,0-1.2c0-0.4,0-0.9,0-1.6h1.2v1.6h0c0.1-0.2,0.2-0.5,0.4-0.7c0.2-0.2,0.4-0.4,0.6-0.6
				c0.2-0.2,0.5-0.3,0.8-0.4c0.3-0.1,0.7-0.2,1-0.2c0.4,0,0.7,0,0.9,0.1l-0.2,1.2c-0.2-0.1-0.4-0.1-0.7-0.1c-0.5,0-0.9,0.1-1.2,0.3
				c-0.3,0.2-0.6,0.4-0.8,0.7c-0.2,0.3-0.4,0.6-0.5,0.9c-0.1,0.3-0.2,0.6-0.2,0.9v5h-1.2V324z"/>
			<path class="st3" d="M419.9,325.6c0,0.7-0.1,1.3-0.3,1.8c-0.2,0.6-0.6,1.1-1,1.5c-0.4,0.4-0.9,0.7-1.5,1
				c-0.6,0.2-1.2,0.3-1.9,0.3c-0.7,0-1.3-0.1-1.9-0.3c-0.6-0.2-1.1-0.6-1.5-1c-0.4-0.4-0.7-0.9-1-1.5s-0.3-1.2-0.3-1.8
				c0-0.7,0.1-1.3,0.3-1.8s0.6-1.1,1-1.5c0.4-0.4,0.9-0.7,1.5-1c0.6-0.2,1.2-0.3,1.9-0.3c0.7,0,1.3,0.1,1.9,0.3
				c0.6,0.2,1.1,0.6,1.5,1c0.4,0.4,0.7,0.9,1,1.5C419.8,324.3,419.9,325,419.9,325.6z M418.5,325.6c0-0.5-0.1-0.9-0.2-1.4
				c-0.2-0.4-0.4-0.8-0.7-1.1c-0.3-0.3-0.6-0.6-1-0.7c-0.4-0.2-0.9-0.3-1.4-0.3s-1,0.1-1.4,0.3c-0.4,0.2-0.8,0.4-1,0.7
				c-0.3,0.3-0.5,0.7-0.7,1.1s-0.2,0.9-0.2,1.4c0,0.5,0.1,0.9,0.2,1.4c0.2,0.4,0.4,0.8,0.7,1.1c0.3,0.3,0.6,0.6,1,0.7
				c0.4,0.2,0.9,0.3,1.4,0.3s1-0.1,1.4-0.3c0.4-0.2,0.8-0.4,1-0.7c0.3-0.3,0.5-0.7,0.7-1.1C418.4,326.6,418.5,326.1,418.5,325.6z"/>
			<path class="st3" d="M428.5,330c0-0.2,0-0.5,0-0.7c0-0.2,0-0.5,0-0.7h0c-0.1,0.2-0.3,0.5-0.5,0.7c-0.2,0.2-0.5,0.4-0.7,0.5
				c-0.3,0.1-0.5,0.3-0.8,0.3c-0.3,0.1-0.6,0.1-0.9,0.1c-1.1,0-2-0.3-2.5-0.9c-0.5-0.6-0.8-1.4-0.8-2.5v-5.6h1.2v4.9
				c0,0.5,0,0.9,0.1,1.3c0.1,0.4,0.2,0.7,0.4,0.9c0.2,0.3,0.4,0.5,0.7,0.6c0.3,0.1,0.7,0.2,1.2,0.2c0.1,0,0.2,0,0.5-0.1
				c0.3,0,0.6-0.2,0.9-0.4c0.3-0.2,0.6-0.6,0.9-1c0.3-0.5,0.4-1.1,0.4-1.9v-4.5h1.2v6.9c0,0.2,0,0.5,0,0.9s0,0.7,0.1,1H428.5z"/>
			<path class="st3" d="M433.7,321.2c0,0.2,0,0.5,0,0.7c0,0.2,0,0.5,0,0.7h0c0.1-0.2,0.3-0.5,0.5-0.7c0.2-0.2,0.5-0.4,0.7-0.5
				c0.3-0.1,0.5-0.3,0.8-0.3c0.3-0.1,0.6-0.1,0.9-0.1c1.1,0,2,0.3,2.5,0.9s0.8,1.4,0.8,2.5v5.6h-1.2v-4.9c0-1-0.2-1.7-0.5-2.2
				c-0.3-0.5-1-0.8-1.9-0.8c-0.1,0-0.2,0-0.5,0.1c-0.3,0-0.6,0.2-0.9,0.4c-0.3,0.2-0.6,0.6-0.9,1c-0.3,0.5-0.4,1.1-0.4,1.9v4.5h-1.2
				v-6.9c0-0.2,0-0.5,0-0.9c0-0.4,0-0.7-0.1-1H433.7z"/>
			<path class="st3" d="M451.8,330h-1.2v-1.5h0c-0.2,0.3-0.4,0.6-0.7,0.8c-0.3,0.2-0.6,0.4-0.9,0.5s-0.6,0.2-0.9,0.3
				c-0.3,0.1-0.6,0.1-0.9,0.1c-0.7,0-1.3-0.1-1.9-0.3s-1.1-0.6-1.5-1c-0.4-0.4-0.7-0.9-1-1.5c-0.2-0.6-0.3-1.2-0.3-1.8
				c0-0.7,0.1-1.3,0.3-1.8c0.2-0.6,0.6-1.1,1-1.5c0.4-0.4,0.9-0.7,1.5-1s1.2-0.3,1.9-0.3c0.3,0,0.6,0,0.9,0.1
				c0.3,0.1,0.6,0.2,0.9,0.3s0.6,0.3,0.9,0.5c0.3,0.2,0.5,0.5,0.7,0.8h0v-6.9h1.2V330z M443.8,325.6c0,0.5,0.1,0.9,0.2,1.4
				c0.2,0.4,0.4,0.8,0.7,1.1c0.3,0.3,0.6,0.6,1,0.7c0.4,0.2,0.9,0.3,1.4,0.3c0.5,0,1-0.1,1.4-0.3c0.4-0.2,0.8-0.4,1.1-0.7
				c0.3-0.3,0.6-0.7,0.7-1.1c0.2-0.4,0.3-0.9,0.3-1.4c0-0.5-0.1-0.9-0.3-1.4s-0.4-0.8-0.7-1.1c-0.3-0.3-0.7-0.6-1.1-0.7
				c-0.4-0.2-0.9-0.3-1.4-0.3c-0.5,0-1,0.1-1.4,0.3c-0.4,0.2-0.8,0.4-1,0.7c-0.3,0.3-0.5,0.7-0.7,1.1
				C443.8,324.7,443.8,325.1,443.8,325.6z"/>
			<path class="st3" d="M357.7,339.4c-0.4,0.6-0.8,1.3-1.1,1.9c-0.3,0.6-0.6,1.2-0.8,1.8c-0.2,0.6-0.4,1.3-0.5,1.9
				c-0.1,0.7-0.2,1.4-0.2,2.2s0.1,1.5,0.2,2.1c0.1,0.7,0.3,1.3,0.5,1.9c0.2,0.6,0.5,1.2,0.8,1.8c0.3,0.6,0.6,1.2,1,1.9l-1,0.8
				c-0.8-1.2-1.5-2.5-2-3.9s-0.7-2.9-0.7-4.5c0-1.5,0.2-2.9,0.7-4.4c0.5-1.5,1.1-2.8,2-4L357.7,339.4z"/>
			<path class="st3" d="M366.2,350.1l4.5-10.8h2.1v13.3h-1.4V341h0l-4.8,11.5h-0.7l-4.8-11.5h0v11.5h-1.4v-13.3h2.1L366.2,350.1z"/>
			<path class="st3" d="M382.3,352.5c0-0.2,0-0.5,0-0.7c0-0.2,0-0.5,0-0.7h0c-0.1,0.2-0.3,0.5-0.5,0.7c-0.2,0.2-0.5,0.4-0.7,0.5
				c-0.3,0.1-0.5,0.3-0.8,0.3c-0.3,0.1-0.6,0.1-0.9,0.1c-1.1,0-2-0.3-2.5-0.9c-0.5-0.6-0.8-1.4-0.8-2.5v-5.6h1.2v4.9
				c0,0.5,0,0.9,0.1,1.3c0.1,0.4,0.2,0.7,0.4,0.9c0.2,0.3,0.4,0.5,0.7,0.6c0.3,0.1,0.7,0.2,1.2,0.2c0.1,0,0.2,0,0.5-0.1
				c0.3,0,0.6-0.2,0.9-0.4c0.3-0.2,0.6-0.6,0.9-1c0.3-0.5,0.4-1.1,0.4-1.9v-4.5h1.2v6.9c0,0.2,0,0.5,0,0.9s0,0.7,0.1,1H382.3z"/>
			<path class="st3" d="M387.9,352.5h-1.2v-14.2h1.2V352.5z"/>
			<path class="st3" d="M395.4,344.9h-2.5v5.2c0,0.3,0,0.6,0.1,0.8c0.1,0.2,0.2,0.4,0.3,0.5c0.1,0.1,0.2,0.2,0.4,0.2
				c0.2,0,0.3,0.1,0.5,0.1c0.2,0,0.4,0,0.7-0.1s0.4-0.1,0.6-0.2l0.1,1.1c-0.5,0.2-1,0.3-1.7,0.3c-0.2,0-0.5,0-0.7-0.1
				s-0.5-0.2-0.7-0.4c-0.2-0.2-0.4-0.4-0.5-0.7c-0.1-0.3-0.2-0.7-0.2-1.2v-5.5h-1.9v-1.1h1.9v-2.5h1.2v2.5h2.5V344.9z"/>
			<path class="st3" d="M398.9,340.4c0,0.3-0.1,0.5-0.3,0.6c-0.2,0.2-0.4,0.3-0.6,0.3s-0.4-0.1-0.6-0.3c-0.2-0.2-0.3-0.4-0.3-0.6
				c0-0.3,0.1-0.5,0.3-0.6c0.2-0.2,0.4-0.3,0.6-0.3s0.4,0.1,0.6,0.3C398.8,339.9,398.9,340.1,398.9,340.4z M398.6,352.5h-1.2v-8.8
				h1.2V352.5z"/>
			<path class="st3" d="M408,345.8c-0.2-0.3-0.5-0.6-0.9-0.8c-0.4-0.2-0.8-0.3-1.3-0.3c-0.5,0-1,0.1-1.4,0.2c-0.4,0.2-0.8,0.4-1,0.7
				c-0.3,0.3-0.5,0.7-0.7,1.1c-0.1,0.4-0.2,0.9-0.2,1.4s0.1,1,0.2,1.4c0.2,0.4,0.4,0.8,0.7,1.1c0.3,0.3,0.6,0.6,1,0.7
				c0.4,0.2,0.9,0.3,1.4,0.2c0.5,0,0.9-0.1,1.3-0.3c0.4-0.2,0.7-0.5,0.9-0.8l1,0.8c-0.4,0.5-0.9,0.9-1.5,1.1
				c-0.6,0.2-1.1,0.4-1.7,0.4c-0.7,0-1.4-0.1-1.9-0.3c-0.6-0.2-1.1-0.6-1.5-1s-0.7-0.9-0.9-1.5c-0.2-0.6-0.3-1.2-0.3-1.8
				c0-0.7,0.1-1.3,0.3-1.8c0.2-0.6,0.5-1.1,0.9-1.5s0.9-0.7,1.5-1c0.6-0.2,1.2-0.3,1.9-0.3c0.6,0,1.2,0.1,1.7,0.4
				c0.6,0.2,1,0.6,1.5,1.1L408,345.8z"/>
			<path class="st3" d="M419.5,348.1c0,0.7-0.1,1.3-0.3,1.8c-0.2,0.6-0.6,1.1-1,1.5c-0.4,0.4-0.9,0.7-1.5,1
				c-0.6,0.2-1.2,0.3-1.9,0.3c-0.7,0-1.3-0.1-1.9-0.3c-0.6-0.2-1.1-0.6-1.5-1c-0.4-0.4-0.7-0.9-1-1.5s-0.3-1.2-0.3-1.8
				c0-0.7,0.1-1.3,0.3-1.8s0.6-1.1,1-1.5c0.4-0.4,0.9-0.7,1.5-1c0.6-0.2,1.2-0.3,1.9-0.3c0.7,0,1.3,0.1,1.9,0.3
				c0.6,0.2,1.1,0.6,1.5,1c0.4,0.4,0.7,0.9,1,1.5C419.4,346.9,419.5,347.5,419.5,348.1z M418.2,348.1c0-0.5-0.1-0.9-0.2-1.4
				c-0.2-0.4-0.4-0.8-0.7-1.1c-0.3-0.3-0.6-0.6-1-0.7c-0.4-0.2-0.9-0.3-1.4-0.3s-1,0.1-1.4,0.3c-0.4,0.2-0.8,0.4-1,0.7
				c-0.3,0.3-0.5,0.7-0.7,1.1s-0.2,0.9-0.2,1.4c0,0.5,0.1,0.9,0.2,1.4c0.2,0.4,0.4,0.8,0.7,1.1c0.3,0.3,0.6,0.6,1,0.7
				c0.4,0.2,0.9,0.3,1.4,0.3s1-0.1,1.4-0.3c0.4-0.2,0.8-0.4,1-0.7c0.3-0.3,0.5-0.7,0.7-1.1C418.1,349.1,418.2,348.6,418.2,348.1z"/>
			<path class="st3" d="M423.3,352.5h-1.2v-14.2h1.2V352.5z"/>
			<path class="st3" d="M435.2,348.1c0,0.7-0.1,1.3-0.3,1.8c-0.2,0.6-0.6,1.1-1,1.5c-0.4,0.4-0.9,0.7-1.5,1
				c-0.6,0.2-1.2,0.3-1.9,0.3c-0.7,0-1.3-0.1-1.9-0.3c-0.6-0.2-1.1-0.6-1.5-1c-0.4-0.4-0.7-0.9-1-1.5s-0.3-1.2-0.3-1.8
				c0-0.7,0.1-1.3,0.3-1.8s0.6-1.1,1-1.5c0.4-0.4,0.9-0.7,1.5-1c0.6-0.2,1.2-0.3,1.9-0.3c0.7,0,1.3,0.1,1.9,0.3
				c0.6,0.2,1.1,0.6,1.5,1c0.4,0.4,0.7,0.9,1,1.5C435,346.9,435.2,347.5,435.2,348.1z M433.8,348.1c0-0.5-0.1-0.9-0.2-1.4
				c-0.2-0.4-0.4-0.8-0.7-1.1c-0.3-0.3-0.6-0.6-1-0.7c-0.4-0.2-0.9-0.3-1.4-0.3s-1,0.1-1.4,0.3c-0.4,0.2-0.8,0.4-1,0.7
				c-0.3,0.3-0.5,0.7-0.7,1.1s-0.2,0.9-0.2,1.4c0,0.5,0.1,0.9,0.2,1.4c0.2,0.4,0.4,0.8,0.7,1.1c0.3,0.3,0.6,0.6,1,0.7
				c0.4,0.2,0.9,0.3,1.4,0.3s1-0.1,1.4-0.3c0.4-0.2,0.8-0.4,1-0.7c0.3-0.3,0.5-0.7,0.7-1.1C433.7,349.1,433.8,348.6,433.8,348.1z"/>
			<path class="st3" d="M437.5,346.5c0-0.4,0-0.8,0-1.2c0-0.4,0-0.9,0-1.6h1.2v1.6h0c0.1-0.2,0.2-0.5,0.4-0.7
				c0.2-0.2,0.4-0.4,0.6-0.6c0.2-0.2,0.5-0.3,0.8-0.4c0.3-0.1,0.7-0.2,1-0.2c0.4,0,0.7,0,0.9,0.1l-0.2,1.2c-0.2-0.1-0.4-0.1-0.7-0.1
				c-0.5,0-0.9,0.1-1.2,0.3c-0.3,0.2-0.6,0.4-0.8,0.7c-0.2,0.3-0.4,0.6-0.5,0.9c-0.1,0.3-0.2,0.6-0.2,0.9v5h-1.2V346.5z"/>
			<path class="st3" d="M442.4,354.9c0.4-0.6,0.8-1.3,1.1-1.9s0.6-1.2,0.8-1.8c0.2-0.6,0.4-1.3,0.5-1.9c0.1-0.7,0.2-1.4,0.2-2.2
				s-0.1-1.5-0.2-2.1c-0.1-0.7-0.3-1.3-0.5-1.9s-0.5-1.2-0.8-1.8c-0.3-0.6-0.6-1.2-1-1.9l1-0.8c0.8,1.2,1.5,2.5,2,3.9
				c0.5,1.5,0.7,2.9,0.7,4.5c0,1.5-0.2,2.9-0.7,4.4c-0.5,1.5-1.1,2.8-2,4L442.4,354.9z"/>
		</g>
	</g>
	<g>
		<g>
			<path class="st3" d="M354.6,556.7h4.4c0.8,0,1.7,0.1,2.5,0.4c0.8,0.3,1.6,0.7,2.3,1.2c0.7,0.6,1.2,1.3,1.6,2.1
				c0.4,0.8,0.6,1.8,0.6,2.9c0,1.1-0.2,2.1-0.6,2.9c-0.4,0.8-1,1.5-1.6,2.1c-0.7,0.6-1.4,1-2.3,1.2c-0.8,0.3-1.7,0.4-2.5,0.4h-4.4
				V556.7z M355.9,568.7h2.6c1,0,1.9-0.2,2.6-0.5s1.4-0.7,1.9-1.2c0.5-0.5,0.9-1.1,1.1-1.7s0.4-1.3,0.4-2c0-0.7-0.1-1.4-0.4-2
				c-0.2-0.6-0.6-1.2-1.1-1.7c-0.5-0.5-1.1-0.9-1.9-1.2s-1.6-0.5-2.6-0.5h-2.6V568.7z"/>
			<path class="st3" d="M373.9,564.6v-0.2c0-1.5-0.8-2.3-2.3-2.3c-1,0-1.9,0.3-2.7,1l-0.8-0.9c0.8-0.9,2.1-1.3,3.7-1.3
				c0.4,0,0.8,0.1,1.2,0.2c0.4,0.1,0.7,0.3,1,0.6c0.3,0.3,0.5,0.6,0.7,1c0.2,0.4,0.3,0.9,0.3,1.4v3.9c0,0.3,0,0.7,0,1.1
				s0.1,0.7,0.1,0.9h-1.2c0-0.2-0.1-0.4-0.1-0.7c0-0.3,0-0.5,0-0.7h0c-0.4,0.6-0.8,1-1.3,1.3c-0.5,0.3-1.1,0.4-1.8,0.4
				c-0.4,0-0.8-0.1-1.1-0.2c-0.4-0.1-0.7-0.3-1-0.5c-0.3-0.2-0.5-0.5-0.7-0.8c-0.2-0.3-0.3-0.7-0.3-1.1c0-0.7,0.2-1.3,0.6-1.7
				s0.8-0.7,1.4-0.9c0.6-0.2,1.2-0.3,1.8-0.4c0.6,0,1.2-0.1,1.7-0.1H373.9z M373.2,565.6c-0.3,0-0.7,0-1.2,0c-0.5,0-0.9,0.1-1.4,0.2
				c-0.4,0.1-0.8,0.3-1.1,0.6c-0.3,0.3-0.5,0.6-0.5,1c0,0.3,0.1,0.5,0.2,0.7c0.1,0.2,0.3,0.4,0.5,0.5s0.4,0.2,0.7,0.3
				s0.5,0.1,0.7,0.1c0.5,0,0.8-0.1,1.2-0.2c0.3-0.2,0.6-0.4,0.8-0.6c0.2-0.3,0.4-0.6,0.5-0.9c0.1-0.3,0.2-0.7,0.2-1.1v-0.6H373.2z"
				/>
			<path class="st3" d="M378.1,563.9c0-0.4,0-0.8,0-1.2c0-0.4,0-0.9,0-1.6h1.2v1.6h0c0.1-0.2,0.2-0.5,0.4-0.7
				c0.2-0.2,0.4-0.4,0.6-0.6c0.2-0.2,0.5-0.3,0.8-0.4c0.3-0.1,0.7-0.2,1-0.2c0.4,0,0.7,0,0.9,0.1l-0.2,1.2c-0.2-0.1-0.4-0.1-0.7-0.1
				c-0.5,0-0.9,0.1-1.2,0.3c-0.3,0.2-0.6,0.4-0.8,0.7c-0.2,0.3-0.4,0.6-0.5,0.9c-0.1,0.3-0.2,0.6-0.2,0.9v5h-1.2V563.9z"/>
			<path class="st3" d="M385.5,565.1l4.1-4h1.9l-4.4,4l4.8,4.8H390l-4.6-4.6v4.6h-1.2v-14.2h1.2V565.1z"/>
			<path class="st3" d="M354.3,578.3h1.2v6.9h0c0.2-0.3,0.4-0.6,0.7-0.8c0.3-0.2,0.6-0.4,0.9-0.5s0.6-0.2,0.9-0.3
				c0.3-0.1,0.6-0.1,0.9-0.1c0.7,0,1.3,0.1,1.9,0.3s1.1,0.6,1.5,1c0.4,0.4,0.7,0.9,1,1.5s0.3,1.2,0.3,1.8c0,0.7-0.1,1.3-0.3,1.8
				s-0.6,1.1-1,1.5c-0.4,0.4-0.9,0.7-1.5,1s-1.2,0.3-1.9,0.3c-0.3,0-0.6,0-0.9-0.1c-0.3-0.1-0.6-0.2-0.9-0.3s-0.6-0.3-0.9-0.5
				s-0.5-0.5-0.7-0.8h0v1.5h-1.2V578.3z M362.3,588.1c0-0.5-0.1-0.9-0.2-1.4s-0.4-0.8-0.7-1.1c-0.3-0.3-0.6-0.6-1-0.7
				c-0.4-0.2-0.9-0.3-1.4-0.3c-0.5,0-1,0.1-1.4,0.3c-0.4,0.2-0.8,0.4-1.1,0.7c-0.3,0.3-0.6,0.7-0.7,1.1c-0.2,0.4-0.3,0.9-0.3,1.4
				c0,0.5,0.1,0.9,0.3,1.4c0.2,0.4,0.4,0.8,0.7,1.1c0.3,0.3,0.7,0.6,1.1,0.7c0.4,0.2,0.9,0.3,1.4,0.3c0.5,0,1-0.1,1.4-0.3
				c0.4-0.2,0.8-0.4,1-0.7c0.3-0.3,0.5-0.7,0.7-1.1C362.3,589,362.3,588.6,362.3,588.1z"/>
			<path class="st3" d="M371.4,587.1v-0.2c0-1.5-0.8-2.3-2.3-2.3c-1,0-1.9,0.3-2.7,1l-0.8-0.9c0.8-0.9,2.1-1.3,3.7-1.3
				c0.4,0,0.8,0.1,1.2,0.2c0.4,0.1,0.7,0.3,1,0.6c0.3,0.3,0.5,0.6,0.7,1c0.2,0.4,0.3,0.9,0.3,1.4v3.9c0,0.3,0,0.7,0,1.1
				s0.1,0.7,0.1,0.9h-1.2c0-0.2-0.1-0.4-0.1-0.7c0-0.3,0-0.5,0-0.7h0c-0.4,0.6-0.8,1-1.3,1.3c-0.5,0.3-1.1,0.4-1.8,0.4
				c-0.4,0-0.8-0.1-1.1-0.2c-0.4-0.1-0.7-0.3-1-0.5c-0.3-0.2-0.5-0.5-0.7-0.8c-0.2-0.3-0.3-0.7-0.3-1.1c0-0.7,0.2-1.3,0.6-1.7
				s0.8-0.7,1.4-0.9c0.6-0.2,1.2-0.3,1.8-0.4c0.6,0,1.2-0.1,1.7-0.1H371.4z M370.8,588.1c-0.3,0-0.7,0-1.2,0c-0.5,0-0.9,0.1-1.4,0.2
				c-0.4,0.1-0.8,0.3-1.1,0.6c-0.3,0.3-0.5,0.6-0.5,1c0,0.3,0.1,0.5,0.2,0.7c0.1,0.2,0.3,0.4,0.5,0.5s0.4,0.2,0.7,0.3
				s0.5,0.1,0.7,0.1c0.5,0,0.8-0.1,1.2-0.2c0.3-0.2,0.6-0.4,0.8-0.6c0.2-0.3,0.4-0.6,0.5-0.9c0.1-0.3,0.2-0.7,0.2-1.1v-0.6H370.8z"
				/>
			<path class="st3" d="M381.9,585.7c-0.2-0.3-0.5-0.6-0.9-0.8c-0.4-0.2-0.8-0.3-1.3-0.3c-0.5,0-1,0.1-1.4,0.2
				c-0.4,0.2-0.8,0.4-1,0.7c-0.3,0.3-0.5,0.7-0.7,1.1c-0.1,0.4-0.2,0.9-0.2,1.4s0.1,1,0.2,1.4c0.2,0.4,0.4,0.8,0.7,1.1
				c0.3,0.3,0.6,0.6,1,0.7c0.4,0.2,0.9,0.3,1.4,0.2c0.5,0,0.9-0.1,1.3-0.3c0.4-0.2,0.7-0.5,0.9-0.8l1,0.8c-0.4,0.5-0.9,0.9-1.5,1.1
				c-0.6,0.2-1.1,0.4-1.7,0.4c-0.7,0-1.4-0.1-1.9-0.3c-0.6-0.2-1.1-0.6-1.5-1s-0.7-0.9-0.9-1.5c-0.2-0.6-0.3-1.2-0.3-1.8
				c0-0.7,0.1-1.3,0.3-1.8c0.2-0.6,0.5-1.1,0.9-1.5s0.9-0.7,1.5-1c0.6-0.2,1.2-0.3,1.9-0.3c0.6,0,1.2,0.1,1.7,0.4
				c0.6,0.2,1,0.6,1.5,1.1L381.9,585.7z"/>
			<path class="st3" d="M385.8,587.6l4.1-4h1.9l-4.4,4l4.8,4.8h-1.9l-4.6-4.6v4.6h-1.2v-14.2h1.2V587.6z"/>
			<path class="st3" d="M394.3,594.2c0.4,0.5,0.8,0.9,1.4,1.2c0.6,0.3,1.2,0.4,1.9,0.4c0.6,0,1.2-0.1,1.6-0.3
				c0.4-0.2,0.8-0.4,1.1-0.7c0.3-0.3,0.5-0.7,0.6-1.1c0.1-0.4,0.2-0.9,0.2-1.3v-1.6h0c-0.4,0.6-0.9,1-1.5,1.3
				c-0.6,0.3-1.2,0.4-1.8,0.4s-1.2-0.1-1.8-0.3c-0.6-0.2-1-0.5-1.5-0.9c-0.4-0.4-0.7-0.9-1-1.4c-0.2-0.6-0.4-1.1-0.4-1.8
				s0.1-1.2,0.3-1.8c0.2-0.6,0.5-1,0.9-1.4c0.4-0.4,0.9-0.7,1.4-1s1.1-0.3,1.8-0.3c0.3,0,0.5,0,0.8,0.1c0.3,0.1,0.6,0.1,0.9,0.3
				s0.6,0.3,0.9,0.5c0.3,0.2,0.6,0.5,0.8,0.8h0v-1.5h1.2v8.7c0,0.5-0.1,1-0.2,1.5c-0.1,0.5-0.4,1-0.7,1.5c-0.3,0.5-0.8,0.8-1.4,1.1
				c-0.6,0.3-1.4,0.5-2.4,0.5c-0.9,0-1.7-0.1-2.3-0.4c-0.7-0.3-1.3-0.7-1.9-1.3L394.3,594.2z M394.5,588c0,0.5,0.1,0.9,0.3,1.3
				s0.4,0.8,0.7,1.1s0.6,0.6,1,0.7c0.4,0.2,0.8,0.3,1.3,0.3c0.5,0,0.9-0.1,1.3-0.2c0.4-0.2,0.8-0.4,1.1-0.7c0.3-0.3,0.6-0.6,0.7-1.1
				s0.2-0.9,0.2-1.4c0-0.5-0.1-0.9-0.2-1.3c-0.1-0.4-0.4-0.8-0.7-1.1c-0.3-0.3-0.6-0.6-1.1-0.7c-0.4-0.2-0.9-0.3-1.4-0.3
				c-0.5,0-0.9,0.1-1.3,0.3c-0.4,0.2-0.7,0.4-1,0.7s-0.5,0.7-0.7,1.1S394.5,587.5,394.5,588z"/>
			<path class="st3" d="M405.2,586.4c0-0.4,0-0.8,0-1.2c0-0.4,0-0.9,0-1.6h1.2v1.6h0c0.1-0.2,0.2-0.5,0.4-0.7
				c0.2-0.2,0.4-0.4,0.6-0.6c0.2-0.2,0.5-0.3,0.8-0.4c0.3-0.1,0.7-0.2,1-0.2c0.4,0,0.7,0,0.9,0.1l-0.2,1.2c-0.2-0.1-0.4-0.1-0.7-0.1
				c-0.5,0-0.9,0.1-1.2,0.3c-0.3,0.2-0.6,0.4-0.8,0.7c-0.2,0.3-0.4,0.6-0.5,0.9c-0.1,0.3-0.2,0.6-0.2,0.9v5h-1.2V586.4z"/>
			<path class="st3" d="M419.9,588.1c0,0.7-0.1,1.3-0.3,1.8c-0.2,0.6-0.6,1.1-1,1.5c-0.4,0.4-0.9,0.7-1.5,1
				c-0.6,0.2-1.2,0.3-1.9,0.3c-0.7,0-1.3-0.1-1.9-0.3c-0.6-0.2-1.1-0.6-1.5-1c-0.4-0.4-0.7-0.9-1-1.5s-0.3-1.2-0.3-1.8
				c0-0.7,0.1-1.3,0.3-1.8s0.6-1.1,1-1.5c0.4-0.4,0.9-0.7,1.5-1c0.6-0.2,1.2-0.3,1.9-0.3c0.7,0,1.3,0.1,1.9,0.3
				c0.6,0.2,1.1,0.6,1.5,1c0.4,0.4,0.7,0.9,1,1.5C419.8,586.8,419.9,587.4,419.9,588.1z M418.5,588.1c0-0.5-0.1-0.9-0.2-1.4
				c-0.2-0.4-0.4-0.8-0.7-1.1c-0.3-0.3-0.6-0.6-1-0.7c-0.4-0.2-0.9-0.3-1.4-0.3s-1,0.1-1.4,0.3c-0.4,0.2-0.8,0.4-1,0.7
				c-0.3,0.3-0.5,0.7-0.7,1.1s-0.2,0.9-0.2,1.4c0,0.5,0.1,0.9,0.2,1.4c0.2,0.4,0.4,0.8,0.7,1.1c0.3,0.3,0.6,0.6,1,0.7
				c0.4,0.2,0.9,0.3,1.4,0.3s1-0.1,1.4-0.3c0.4-0.2,0.8-0.4,1-0.7c0.3-0.3,0.5-0.7,0.7-1.1C418.4,589,418.5,588.6,418.5,588.1z"/>
			<path class="st3" d="M428.5,592.5c0-0.2,0-0.5,0-0.7c0-0.2,0-0.5,0-0.7h0c-0.1,0.2-0.3,0.5-0.5,0.7c-0.2,0.2-0.5,0.4-0.7,0.5
				c-0.3,0.1-0.5,0.3-0.8,0.3c-0.3,0.1-0.6,0.1-0.9,0.1c-1.1,0-2-0.3-2.5-0.9c-0.5-0.6-0.8-1.4-0.8-2.5v-5.6h1.2v4.9
				c0,0.5,0,0.9,0.1,1.3c0.1,0.4,0.2,0.7,0.4,0.9c0.2,0.3,0.4,0.5,0.7,0.6c0.3,0.1,0.7,0.2,1.2,0.2c0.1,0,0.2,0,0.5-0.1
				c0.3,0,0.6-0.2,0.9-0.4c0.3-0.2,0.6-0.6,0.9-1c0.3-0.5,0.4-1.1,0.4-1.9v-4.5h1.2v6.9c0,0.2,0,0.5,0,0.9s0,0.7,0.1,1H428.5z"/>
			<path class="st3" d="M433.7,583.7c0,0.2,0,0.5,0,0.7c0,0.2,0,0.5,0,0.7h0c0.1-0.2,0.3-0.5,0.5-0.7c0.2-0.2,0.5-0.4,0.7-0.5
				c0.3-0.1,0.5-0.3,0.8-0.3c0.3-0.1,0.6-0.1,0.9-0.1c1.1,0,2,0.3,2.5,0.9s0.8,1.4,0.8,2.5v5.6h-1.2v-4.9c0-1-0.2-1.7-0.5-2.2
				c-0.3-0.5-1-0.8-1.9-0.8c-0.1,0-0.2,0-0.5,0.1c-0.3,0-0.6,0.2-0.9,0.4c-0.3,0.2-0.6,0.6-0.9,1c-0.3,0.5-0.4,1.1-0.4,1.9v4.5h-1.2
				v-6.9c0-0.2,0-0.5,0-0.9c0-0.4,0-0.7-0.1-1H433.7z"/>
			<path class="st3" d="M451.8,592.5h-1.2V591h0c-0.2,0.3-0.4,0.6-0.7,0.8c-0.3,0.2-0.6,0.4-0.9,0.5s-0.6,0.2-0.9,0.3
				c-0.3,0.1-0.6,0.1-0.9,0.1c-0.7,0-1.3-0.1-1.9-0.3s-1.1-0.6-1.5-1c-0.4-0.4-0.7-0.9-1-1.5c-0.2-0.6-0.3-1.2-0.3-1.8
				c0-0.7,0.1-1.3,0.3-1.8c0.2-0.6,0.6-1.1,1-1.5c0.4-0.4,0.9-0.7,1.5-1s1.2-0.3,1.9-0.3c0.3,0,0.6,0,0.9,0.1
				c0.3,0.1,0.6,0.2,0.9,0.3s0.6,0.3,0.9,0.5c0.3,0.2,0.5,0.5,0.7,0.8h0v-6.9h1.2V592.5z M443.8,588.1c0,0.5,0.1,0.9,0.2,1.4
				c0.2,0.4,0.4,0.8,0.7,1.1c0.3,0.3,0.6,0.6,1,0.7c0.4,0.2,0.9,0.3,1.4,0.3c0.5,0,1-0.1,1.4-0.3c0.4-0.2,0.8-0.4,1.1-0.7
				c0.3-0.3,0.6-0.7,0.7-1.1c0.2-0.4,0.3-0.9,0.3-1.4c0-0.5-0.1-0.9-0.3-1.4s-0.4-0.8-0.7-1.1c-0.3-0.3-0.7-0.6-1.1-0.7
				c-0.4-0.2-0.9-0.3-1.4-0.3c-0.5,0-1,0.1-1.4,0.3c-0.4,0.2-0.8,0.4-1,0.7c-0.3,0.3-0.5,0.7-0.7,1.1
				C443.8,587.1,443.8,587.6,443.8,588.1z"/>
			<path class="st3" d="M357.7,601.8c-0.4,0.6-0.8,1.3-1.1,1.9c-0.3,0.6-0.6,1.2-0.8,1.8c-0.2,0.6-0.4,1.3-0.5,1.9
				c-0.1,0.7-0.2,1.4-0.2,2.2s0.1,1.5,0.2,2.1c0.1,0.7,0.3,1.3,0.5,1.9c0.2,0.6,0.5,1.2,0.8,1.8c0.3,0.6,0.6,1.2,1,1.9l-1,0.8
				c-0.8-1.2-1.5-2.5-2-3.9s-0.7-2.9-0.7-4.5c0-1.5,0.2-2.9,0.7-4.4c0.5-1.5,1.1-2.8,2-4L357.7,601.8z"/>
			<path class="st3" d="M366.2,612.5l4.5-10.8h2.1V615h-1.4v-11.5h0l-4.8,11.5h-0.7l-4.8-11.5h0V615h-1.4v-13.3h2.1L366.2,612.5z"/>
			<path class="st3" d="M382.3,615c0-0.2,0-0.5,0-0.7c0-0.2,0-0.5,0-0.7h0c-0.1,0.2-0.3,0.5-0.5,0.7c-0.2,0.2-0.5,0.4-0.7,0.5
				c-0.3,0.1-0.5,0.3-0.8,0.3c-0.3,0.1-0.6,0.1-0.9,0.1c-1.1,0-2-0.3-2.5-0.9c-0.5-0.6-0.8-1.4-0.8-2.5v-5.6h1.2v4.9
				c0,0.5,0,0.9,0.1,1.3c0.1,0.4,0.2,0.7,0.4,0.9c0.2,0.3,0.4,0.5,0.7,0.6c0.3,0.1,0.7,0.2,1.2,0.2c0.1,0,0.2,0,0.5-0.1
				c0.3,0,0.6-0.2,0.9-0.4c0.3-0.2,0.6-0.6,0.9-1c0.3-0.5,0.4-1.1,0.4-1.9v-4.5h1.2v6.9c0,0.2,0,0.5,0,0.9s0,0.7,0.1,1H382.3z"/>
			<path class="st3" d="M387.9,615h-1.2v-14.2h1.2V615z"/>
			<path class="st3" d="M395.4,607.3h-2.5v5.2c0,0.3,0,0.6,0.1,0.8c0.1,0.2,0.2,0.4,0.3,0.5c0.1,0.1,0.2,0.2,0.4,0.2
				c0.2,0,0.3,0.1,0.5,0.1c0.2,0,0.4,0,0.7-0.1s0.4-0.1,0.6-0.2l0.1,1.1c-0.5,0.2-1,0.3-1.7,0.3c-0.2,0-0.5,0-0.7-0.1
				s-0.5-0.2-0.7-0.4c-0.2-0.2-0.4-0.4-0.5-0.7c-0.1-0.3-0.2-0.7-0.2-1.2v-5.5h-1.9v-1.1h1.9v-2.5h1.2v2.5h2.5V607.3z"/>
			<path class="st3" d="M398.9,602.8c0,0.3-0.1,0.5-0.3,0.6c-0.2,0.2-0.4,0.3-0.6,0.3s-0.4-0.1-0.6-0.3c-0.2-0.2-0.3-0.4-0.3-0.6
				c0-0.3,0.1-0.5,0.3-0.6c0.2-0.2,0.4-0.3,0.6-0.3s0.4,0.1,0.6,0.3C398.8,602.3,398.9,602.6,398.9,602.8z M398.6,615h-1.2v-8.8h1.2
				V615z"/>
			<path class="st3" d="M408,608.3c-0.2-0.3-0.5-0.6-0.9-0.8c-0.4-0.2-0.8-0.3-1.3-0.3c-0.5,0-1,0.1-1.4,0.2c-0.4,0.2-0.8,0.4-1,0.7
				c-0.3,0.3-0.5,0.7-0.7,1.1c-0.1,0.4-0.2,0.9-0.2,1.4s0.1,1,0.2,1.4c0.2,0.4,0.4,0.8,0.7,1.1c0.3,0.3,0.6,0.6,1,0.7
				c0.4,0.2,0.9,0.3,1.4,0.2c0.5,0,0.9-0.1,1.3-0.3c0.4-0.2,0.7-0.5,0.9-0.8l1,0.8c-0.4,0.5-0.9,0.9-1.5,1.1
				c-0.6,0.2-1.1,0.4-1.7,0.4c-0.7,0-1.4-0.1-1.9-0.3c-0.6-0.2-1.1-0.6-1.5-1s-0.7-0.9-0.9-1.5c-0.2-0.6-0.3-1.2-0.3-1.8
				c0-0.7,0.1-1.3,0.3-1.8c0.2-0.6,0.5-1.1,0.9-1.5s0.9-0.7,1.5-1c0.6-0.2,1.2-0.3,1.9-0.3c0.6,0,1.2,0.1,1.7,0.4
				c0.6,0.2,1,0.6,1.5,1.1L408,608.3z"/>
			<path class="st3" d="M419.5,610.6c0,0.7-0.1,1.3-0.3,1.8c-0.2,0.6-0.6,1.1-1,1.5c-0.4,0.4-0.9,0.7-1.5,1
				c-0.6,0.2-1.2,0.3-1.9,0.3c-0.7,0-1.3-0.1-1.9-0.3c-0.6-0.2-1.1-0.6-1.5-1c-0.4-0.4-0.7-0.9-1-1.5s-0.3-1.2-0.3-1.8
				c0-0.7,0.1-1.3,0.3-1.8s0.6-1.1,1-1.5c0.4-0.4,0.9-0.7,1.5-1c0.6-0.2,1.2-0.3,1.9-0.3c0.7,0,1.3,0.1,1.9,0.3
				c0.6,0.2,1.1,0.6,1.5,1c0.4,0.4,0.7,0.9,1,1.5C419.4,609.3,419.5,609.9,419.5,610.6z M418.2,610.6c0-0.5-0.1-0.9-0.2-1.4
				c-0.2-0.4-0.4-0.8-0.7-1.1c-0.3-0.3-0.6-0.6-1-0.7c-0.4-0.2-0.9-0.3-1.4-0.3s-1,0.1-1.4,0.3c-0.4,0.2-0.8,0.4-1,0.7
				c-0.3,0.3-0.5,0.7-0.7,1.1s-0.2,0.9-0.2,1.4c0,0.5,0.1,0.9,0.2,1.4c0.2,0.4,0.4,0.8,0.7,1.1c0.3,0.3,0.6,0.6,1,0.7
				c0.4,0.2,0.9,0.3,1.4,0.3s1-0.1,1.4-0.3c0.4-0.2,0.8-0.4,1-0.7c0.3-0.3,0.5-0.7,0.7-1.1C418.1,611.5,418.2,611.1,418.2,610.6z"/>
			<path class="st3" d="M423.3,615h-1.2v-14.2h1.2V615z"/>
			<path class="st3" d="M435.2,610.6c0,0.7-0.1,1.3-0.3,1.8c-0.2,0.6-0.6,1.1-1,1.5c-0.4,0.4-0.9,0.7-1.5,1
				c-0.6,0.2-1.2,0.3-1.9,0.3c-0.7,0-1.3-0.1-1.9-0.3c-0.6-0.2-1.1-0.6-1.5-1c-0.4-0.4-0.7-0.9-1-1.5s-0.3-1.2-0.3-1.8
				c0-0.7,0.1-1.3,0.3-1.8s0.6-1.1,1-1.5c0.4-0.4,0.9-0.7,1.5-1c0.6-0.2,1.2-0.3,1.9-0.3c0.7,0,1.3,0.1,1.9,0.3
				c0.6,0.2,1.1,0.6,1.5,1c0.4,0.4,0.7,0.9,1,1.5C435,609.3,435.2,609.9,435.2,610.6z M433.8,610.6c0-0.5-0.1-0.9-0.2-1.4
				c-0.2-0.4-0.4-0.8-0.7-1.1c-0.3-0.3-0.6-0.6-1-0.7c-0.4-0.2-0.9-0.3-1.4-0.3s-1,0.1-1.4,0.3c-0.4,0.2-0.8,0.4-1,0.7
				c-0.3,0.3-0.5,0.7-0.7,1.1s-0.2,0.9-0.2,1.4c0,0.5,0.1,0.9,0.2,1.4c0.2,0.4,0.4,0.8,0.7,1.1c0.3,0.3,0.6,0.6,1,0.7
				c0.4,0.2,0.9,0.3,1.4,0.3s1-0.1,1.4-0.3c0.4-0.2,0.8-0.4,1-0.7c0.3-0.3,0.5-0.7,0.7-1.1C433.7,611.5,433.8,611.1,433.8,610.6z"/>
			<path class="st3" d="M437.5,608.9c0-0.4,0-0.8,0-1.2c0-0.4,0-0.9,0-1.6h1.2v1.6h0c0.1-0.2,0.2-0.5,0.4-0.7
				c0.2-0.2,0.4-0.4,0.6-0.6c0.2-0.2,0.5-0.3,0.8-0.4c0.3-0.1,0.7-0.2,1-0.2c0.4,0,0.7,0,0.9,0.1l-0.2,1.2c-0.2-0.1-0.4-0.1-0.7-0.1
				c-0.5,0-0.9,0.1-1.2,0.3c-0.3,0.2-0.6,0.4-0.8,0.7c-0.2,0.3-0.4,0.6-0.5,0.9c-0.1,0.3-0.2,0.6-0.2,0.9v5h-1.2V608.9z"/>
			<path class="st3" d="M442.4,617.4c0.4-0.6,0.8-1.3,1.1-1.9s0.6-1.2,0.8-1.8c0.2-0.6,0.4-1.3,0.5-1.9c0.1-0.7,0.2-1.4,0.2-2.2
				s-0.1-1.5-0.2-2.1c-0.1-0.7-0.3-1.3-0.5-1.9s-0.5-1.2-0.8-1.8c-0.3-0.6-0.6-1.2-1-1.9l1-0.8c0.8,1.2,1.5,2.5,2,3.9
				c0.5,1.5,0.7,2.9,0.7,4.5c0,1.5-0.2,2.9-0.7,4.4c-0.5,1.5-1.1,2.8-2,4L442.4,617.4z"/>
		</g>
	</g>
	<g>
		<g>
			<path class="st3" d="M354.6,861.8h4.4c0.8,0,1.7,0.1,2.5,0.4c0.8,0.3,1.6,0.7,2.3,1.2c0.7,0.6,1.2,1.3,1.6,2.1
				c0.4,0.8,0.6,1.8,0.6,2.9c0,1.1-0.2,2.1-0.6,2.9c-0.4,0.8-1,1.5-1.6,2.1c-0.7,0.6-1.4,1-2.3,1.2c-0.8,0.3-1.7,0.4-2.5,0.4h-4.4
				V861.8z M355.9,873.8h2.6c1,0,1.9-0.2,2.6-0.5s1.4-0.7,1.9-1.2c0.5-0.5,0.9-1.1,1.1-1.7s0.4-1.3,0.4-2c0-0.7-0.1-1.4-0.4-2
				c-0.2-0.6-0.6-1.2-1.1-1.7c-0.5-0.5-1.1-0.9-1.9-1.2s-1.6-0.5-2.6-0.5h-2.6V873.8z"/>
			<path class="st3" d="M373.9,869.7v-0.2c0-1.5-0.8-2.3-2.3-2.3c-1,0-1.9,0.3-2.7,1l-0.8-0.9c0.8-0.9,2.1-1.3,3.7-1.3
				c0.4,0,0.8,0.1,1.2,0.2c0.4,0.1,0.7,0.3,1,0.6c0.3,0.3,0.5,0.6,0.7,1c0.2,0.4,0.3,0.9,0.3,1.4v3.9c0,0.3,0,0.7,0,1.1
				s0.1,0.7,0.1,0.9h-1.2c0-0.2-0.1-0.4-0.1-0.7c0-0.2,0-0.5,0-0.7h0c-0.4,0.6-0.8,1-1.3,1.3c-0.5,0.3-1.1,0.4-1.8,0.4
				c-0.4,0-0.8-0.1-1.1-0.2c-0.4-0.1-0.7-0.3-1-0.5s-0.5-0.5-0.7-0.8c-0.2-0.3-0.3-0.7-0.3-1.1c0-0.7,0.2-1.3,0.6-1.7
				c0.4-0.4,0.8-0.7,1.4-0.9c0.6-0.2,1.2-0.3,1.8-0.4c0.6,0,1.2-0.1,1.7-0.1H373.9z M373.2,870.7c-0.3,0-0.7,0-1.2,0
				s-0.9,0.1-1.4,0.2c-0.4,0.1-0.8,0.3-1.1,0.6c-0.3,0.2-0.5,0.6-0.5,1c0,0.3,0.1,0.5,0.2,0.7c0.1,0.2,0.3,0.4,0.5,0.5
				c0.2,0.1,0.4,0.2,0.7,0.3c0.2,0.1,0.5,0.1,0.7,0.1c0.5,0,0.8-0.1,1.2-0.2s0.6-0.4,0.8-0.6c0.2-0.3,0.4-0.6,0.5-0.9
				s0.2-0.7,0.2-1.1v-0.6H373.2z"/>
			<path class="st3" d="M378.1,869c0-0.4,0-0.8,0-1.2c0-0.4,0-0.9,0-1.6h1.2v1.6h0c0.1-0.2,0.2-0.5,0.4-0.7s0.4-0.4,0.6-0.6
				c0.2-0.2,0.5-0.3,0.8-0.4s0.7-0.2,1-0.2c0.4,0,0.7,0,0.9,0.1l-0.2,1.2c-0.2-0.1-0.4-0.1-0.7-0.1c-0.5,0-0.9,0.1-1.2,0.3
				s-0.6,0.4-0.8,0.7c-0.2,0.3-0.4,0.6-0.5,0.9c-0.1,0.3-0.2,0.6-0.2,0.9v5h-1.2V869z"/>
			<path class="st3" d="M385.5,870.3l4.1-4h1.9l-4.4,4l4.8,4.8H390l-4.6-4.6v4.6h-1.2v-14.2h1.2V870.3z"/>
			<path class="st3" d="M354.3,883.4h1.2v6.9h0c0.2-0.3,0.4-0.6,0.7-0.8c0.3-0.2,0.6-0.4,0.9-0.5s0.6-0.2,0.9-0.3
				c0.3-0.1,0.6-0.1,0.9-0.1c0.7,0,1.3,0.1,1.9,0.3s1.1,0.6,1.5,1c0.4,0.4,0.7,0.9,1,1.5c0.2,0.6,0.3,1.2,0.3,1.8s-0.1,1.3-0.3,1.8
				c-0.2,0.6-0.6,1.1-1,1.5c-0.4,0.4-0.9,0.7-1.5,1s-1.2,0.3-1.9,0.3c-0.3,0-0.6,0-0.9-0.1c-0.3-0.1-0.6-0.2-0.9-0.3
				s-0.6-0.3-0.9-0.5s-0.5-0.5-0.7-0.8h0v1.5h-1.2V883.4z M362.3,893.2c0-0.5-0.1-0.9-0.2-1.4c-0.2-0.4-0.4-0.8-0.7-1.1
				c-0.3-0.3-0.6-0.6-1-0.7c-0.4-0.2-0.9-0.3-1.4-0.3c-0.5,0-1,0.1-1.4,0.3c-0.4,0.2-0.8,0.4-1.1,0.7c-0.3,0.3-0.6,0.7-0.7,1.1
				c-0.2,0.4-0.3,0.9-0.3,1.4c0,0.5,0.1,0.9,0.3,1.4c0.2,0.4,0.4,0.8,0.7,1.1c0.3,0.3,0.7,0.6,1.1,0.7c0.4,0.2,0.9,0.3,1.4,0.3
				c0.5,0,1-0.1,1.4-0.3s0.8-0.4,1-0.7c0.3-0.3,0.5-0.7,0.7-1.1S362.3,893.7,362.3,893.2z"/>
			<path class="st3" d="M371.4,892.2V892c0-1.5-0.8-2.3-2.3-2.3c-1,0-1.9,0.3-2.7,1l-0.8-0.9c0.8-0.9,2.1-1.3,3.7-1.3
				c0.4,0,0.8,0.1,1.2,0.2c0.4,0.1,0.7,0.3,1,0.6c0.3,0.3,0.5,0.6,0.7,1c0.2,0.4,0.3,0.9,0.3,1.4v3.9c0,0.3,0,0.7,0,1.1
				s0.1,0.7,0.1,0.9h-1.2c0-0.2-0.1-0.4-0.1-0.7c0-0.2,0-0.5,0-0.7h0c-0.4,0.6-0.8,1-1.3,1.3c-0.5,0.3-1.1,0.4-1.8,0.4
				c-0.4,0-0.8-0.1-1.1-0.2c-0.4-0.1-0.7-0.3-1-0.5s-0.5-0.5-0.7-0.8c-0.2-0.3-0.3-0.7-0.3-1.1c0-0.7,0.2-1.3,0.6-1.7
				c0.4-0.4,0.8-0.7,1.4-0.9c0.6-0.2,1.2-0.3,1.8-0.4c0.6,0,1.2-0.1,1.7-0.1H371.4z M370.8,893.2c-0.3,0-0.7,0-1.2,0
				s-0.9,0.1-1.4,0.2c-0.4,0.1-0.8,0.3-1.1,0.6c-0.3,0.2-0.5,0.6-0.5,1c0,0.3,0.1,0.5,0.2,0.7c0.1,0.2,0.3,0.4,0.5,0.5
				c0.2,0.1,0.4,0.2,0.7,0.3c0.2,0.1,0.5,0.1,0.7,0.1c0.5,0,0.8-0.1,1.2-0.2s0.6-0.4,0.8-0.6c0.2-0.3,0.4-0.6,0.5-0.9
				s0.2-0.7,0.2-1.1v-0.6H370.8z"/>
			<path class="st3" d="M381.9,890.9c-0.2-0.3-0.5-0.6-0.9-0.8c-0.4-0.2-0.8-0.3-1.3-0.3c-0.5,0-1,0.1-1.4,0.2
				c-0.4,0.2-0.8,0.4-1,0.7c-0.3,0.3-0.5,0.7-0.7,1.1c-0.1,0.4-0.2,0.9-0.2,1.4c0,0.5,0.1,1,0.2,1.4c0.2,0.4,0.4,0.8,0.7,1.1
				c0.3,0.3,0.6,0.6,1,0.7c0.4,0.2,0.9,0.3,1.4,0.2c0.5,0,0.9-0.1,1.3-0.3c0.4-0.2,0.7-0.5,0.9-0.8l1,0.8c-0.4,0.5-0.9,0.9-1.5,1.1
				c-0.6,0.2-1.1,0.4-1.7,0.4c-0.7,0-1.4-0.1-1.9-0.3c-0.6-0.2-1.1-0.6-1.5-1s-0.7-0.9-0.9-1.5c-0.2-0.6-0.3-1.2-0.3-1.8
				s0.1-1.3,0.3-1.8c0.2-0.6,0.5-1.1,0.9-1.5s0.9-0.7,1.5-1c0.6-0.2,1.2-0.3,1.9-0.3c0.6,0,1.2,0.1,1.7,0.4c0.6,0.2,1,0.6,1.5,1.1
				L381.9,890.9z"/>
			<path class="st3" d="M385.8,892.8l4.1-4h1.9l-4.4,4l4.8,4.8h-1.9l-4.6-4.6v4.6h-1.2v-14.2h1.2V892.8z"/>
			<path class="st3" d="M394.3,899.4c0.4,0.5,0.8,0.9,1.4,1.2c0.6,0.3,1.2,0.4,1.9,0.4c0.6,0,1.2-0.1,1.6-0.3
				c0.4-0.2,0.8-0.4,1.1-0.7c0.3-0.3,0.5-0.7,0.6-1.1c0.1-0.4,0.2-0.9,0.2-1.3V896h0c-0.4,0.6-0.9,1-1.5,1.3s-1.2,0.4-1.8,0.4
				s-1.2-0.1-1.8-0.3c-0.6-0.2-1-0.5-1.5-0.9c-0.4-0.4-0.7-0.9-1-1.4c-0.2-0.6-0.4-1.1-0.4-1.8c0-0.6,0.1-1.2,0.3-1.8s0.5-1,0.9-1.4
				s0.9-0.7,1.4-1s1.1-0.3,1.8-0.3c0.3,0,0.5,0,0.8,0.1c0.3,0.1,0.6,0.1,0.9,0.3s0.6,0.3,0.9,0.5c0.3,0.2,0.6,0.5,0.8,0.8h0v-1.5
				h1.2v8.7c0,0.5-0.1,1-0.2,1.5c-0.1,0.5-0.4,1-0.7,1.5c-0.3,0.5-0.8,0.8-1.4,1.1c-0.6,0.3-1.4,0.5-2.4,0.5c-0.9,0-1.7-0.1-2.3-0.4
				c-0.7-0.3-1.3-0.7-1.9-1.3L394.3,899.4z M394.5,893.1c0,0.5,0.1,0.9,0.3,1.3c0.2,0.4,0.4,0.8,0.7,1.1s0.6,0.6,1,0.7
				c0.4,0.2,0.8,0.3,1.3,0.3c0.5,0,0.9-0.1,1.3-0.2c0.4-0.2,0.8-0.4,1.1-0.7c0.3-0.3,0.6-0.6,0.7-1.1s0.2-0.9,0.2-1.4
				c0-0.5-0.1-0.9-0.2-1.3c-0.1-0.4-0.4-0.8-0.7-1.1c-0.3-0.3-0.6-0.6-1.1-0.7c-0.4-0.2-0.9-0.3-1.4-0.3c-0.5,0-0.9,0.1-1.3,0.3
				c-0.4,0.2-0.7,0.4-1,0.7s-0.5,0.7-0.7,1.1C394.6,892.2,394.5,892.6,394.5,893.1z"/>
			<path class="st3" d="M405.2,891.6c0-0.4,0-0.8,0-1.2c0-0.4,0-0.9,0-1.6h1.2v1.6h0c0.1-0.2,0.2-0.5,0.4-0.7s0.4-0.4,0.6-0.6
				c0.2-0.2,0.5-0.3,0.8-0.4s0.7-0.2,1-0.2c0.4,0,0.7,0,0.9,0.1l-0.2,1.2c-0.2-0.1-0.4-0.1-0.7-0.1c-0.5,0-0.9,0.1-1.2,0.3
				s-0.6,0.4-0.8,0.7c-0.2,0.3-0.4,0.6-0.5,0.9c-0.1,0.3-0.2,0.6-0.2,0.9v5h-1.2V891.6z"/>
			<path class="st3" d="M419.9,893.2c0,0.7-0.1,1.3-0.3,1.8c-0.2,0.6-0.6,1.1-1,1.5c-0.4,0.4-0.9,0.7-1.5,1
				c-0.6,0.2-1.2,0.3-1.9,0.3c-0.7,0-1.3-0.1-1.9-0.3c-0.6-0.2-1.1-0.6-1.5-1c-0.4-0.4-0.7-0.9-1-1.5c-0.2-0.6-0.3-1.2-0.3-1.8
				s0.1-1.3,0.3-1.8c0.2-0.6,0.6-1.1,1-1.5s0.9-0.7,1.5-1c0.6-0.2,1.2-0.3,1.9-0.3c0.7,0,1.3,0.1,1.9,0.3c0.6,0.2,1.1,0.6,1.5,1
				c0.4,0.4,0.7,0.9,1,1.5C419.8,891.9,419.9,892.6,419.9,893.2z M418.5,893.2c0-0.5-0.1-0.9-0.2-1.4c-0.2-0.4-0.4-0.8-0.7-1.1
				c-0.3-0.3-0.6-0.6-1-0.7c-0.4-0.2-0.9-0.3-1.4-0.3s-1,0.1-1.4,0.3c-0.4,0.2-0.8,0.4-1,0.7c-0.3,0.3-0.5,0.7-0.7,1.1
				c-0.2,0.4-0.2,0.9-0.2,1.4c0,0.5,0.1,0.9,0.2,1.4s0.4,0.8,0.7,1.1c0.3,0.3,0.6,0.6,1,0.7c0.4,0.2,0.9,0.3,1.4,0.3s1-0.1,1.4-0.3
				c0.4-0.2,0.8-0.4,1-0.7c0.3-0.3,0.5-0.7,0.7-1.1C418.4,894.2,418.5,893.7,418.5,893.2z"/>
			<path class="st3" d="M428.5,897.6c0-0.2,0-0.5,0-0.7c0-0.2,0-0.5,0-0.7h0c-0.1,0.2-0.3,0.5-0.5,0.7c-0.2,0.2-0.5,0.4-0.7,0.5
				s-0.5,0.3-0.8,0.3c-0.3,0.1-0.6,0.1-0.9,0.1c-1.1,0-2-0.3-2.5-0.9c-0.5-0.6-0.8-1.4-0.8-2.5v-5.6h1.2v4.9c0,0.5,0,0.9,0.1,1.3
				c0.1,0.4,0.2,0.7,0.4,0.9c0.2,0.3,0.4,0.5,0.7,0.6c0.3,0.1,0.7,0.2,1.2,0.2c0.1,0,0.2,0,0.5-0.1c0.3,0,0.6-0.2,0.9-0.4
				c0.3-0.2,0.6-0.6,0.9-1s0.4-1.1,0.4-1.9v-4.5h1.2v6.9c0,0.2,0,0.5,0,0.9c0,0.4,0,0.7,0.1,1H428.5z"/>
			<path class="st3" d="M433.7,888.8c0,0.2,0,0.5,0,0.7c0,0.2,0,0.5,0,0.7h0c0.1-0.2,0.3-0.5,0.5-0.7c0.2-0.2,0.5-0.4,0.7-0.5
				c0.3-0.1,0.5-0.3,0.8-0.3c0.3-0.1,0.6-0.1,0.9-0.1c1.1,0,2,0.3,2.5,0.9c0.5,0.6,0.8,1.4,0.8,2.5v5.6h-1.2v-4.9
				c0-1-0.2-1.7-0.5-2.2c-0.3-0.5-1-0.8-1.9-0.8c-0.1,0-0.2,0-0.5,0.1c-0.3,0-0.6,0.2-0.9,0.4c-0.3,0.2-0.6,0.6-0.9,1
				c-0.3,0.5-0.4,1.1-0.4,1.9v4.5h-1.2v-6.9c0-0.2,0-0.5,0-0.9c0-0.4,0-0.7-0.1-1H433.7z"/>
			<path class="st3" d="M451.8,897.6h-1.2v-1.5h0c-0.2,0.3-0.4,0.6-0.7,0.8c-0.3,0.2-0.6,0.4-0.9,0.5s-0.6,0.2-0.9,0.3
				c-0.3,0.1-0.6,0.1-0.9,0.1c-0.7,0-1.3-0.1-1.9-0.3s-1.1-0.6-1.5-1c-0.4-0.4-0.7-0.9-1-1.5c-0.2-0.6-0.3-1.2-0.3-1.8
				s0.1-1.3,0.3-1.8c0.2-0.6,0.6-1.1,1-1.5c0.4-0.4,0.9-0.7,1.5-1s1.2-0.3,1.9-0.3c0.3,0,0.6,0,0.9,0.1c0.3,0.1,0.6,0.2,0.9,0.3
				s0.6,0.3,0.9,0.5c0.3,0.2,0.5,0.5,0.7,0.8h0v-6.9h1.2V897.6z M443.8,893.2c0,0.5,0.1,0.9,0.2,1.4c0.2,0.4,0.4,0.8,0.7,1.1
				c0.3,0.3,0.6,0.6,1,0.7c0.4,0.2,0.9,0.3,1.4,0.3c0.5,0,1-0.1,1.4-0.3s0.8-0.4,1.1-0.7s0.6-0.7,0.7-1.1s0.3-0.9,0.3-1.4
				c0-0.5-0.1-0.9-0.3-1.4c-0.2-0.4-0.4-0.8-0.7-1.1s-0.7-0.6-1.1-0.7c-0.4-0.2-0.9-0.3-1.4-0.3c-0.5,0-1,0.1-1.4,0.3
				c-0.4,0.2-0.8,0.4-1,0.7c-0.3,0.3-0.5,0.7-0.7,1.1C443.8,892.3,443.8,892.7,443.8,893.2z"/>
			<path class="st3" d="M357.7,907c-0.4,0.6-0.8,1.3-1.1,1.9s-0.6,1.2-0.8,1.8c-0.2,0.6-0.4,1.3-0.5,1.9c-0.1,0.7-0.2,1.4-0.2,2.2
				c0,0.8,0.1,1.5,0.2,2.1c0.1,0.7,0.3,1.3,0.5,1.9c0.2,0.6,0.5,1.2,0.8,1.8c0.3,0.6,0.6,1.2,1,1.9l-1,0.8c-0.8-1.2-1.5-2.5-2-3.9
				c-0.5-1.5-0.7-2.9-0.7-4.5c0-1.5,0.2-2.9,0.7-4.4c0.5-1.5,1.1-2.8,2-4L357.7,907z"/>
			<path class="st3" d="M366.2,917.7l4.5-10.8h2.1v13.3h-1.4v-11.5h0l-4.8,11.5h-0.7l-4.8-11.5h0v11.5h-1.4v-13.3h2.1L366.2,917.7z"
				/>
			<path class="st3" d="M384.8,915.7c0,0.7-0.1,1.3-0.3,1.8c-0.2,0.6-0.6,1.1-1,1.5c-0.4,0.4-0.9,0.7-1.5,1
				c-0.6,0.2-1.2,0.3-1.9,0.3c-0.7,0-1.3-0.1-1.9-0.3c-0.6-0.2-1.1-0.6-1.5-1s-0.7-0.9-1-1.5c-0.2-0.6-0.3-1.2-0.3-1.8
				c0-0.7,0.1-1.3,0.3-1.8c0.2-0.6,0.6-1.1,1-1.5c0.4-0.4,0.9-0.7,1.5-1c0.6-0.2,1.2-0.3,1.9-0.3c0.7,0,1.3,0.1,1.9,0.3
				c0.6,0.2,1.1,0.6,1.5,1c0.4,0.4,0.7,0.9,1,1.5C384.7,914.5,384.8,915.1,384.8,915.7z M383.4,915.7c0-0.5-0.1-0.9-0.2-1.4
				c-0.2-0.4-0.4-0.8-0.7-1.1c-0.3-0.3-0.6-0.6-1-0.7c-0.4-0.2-0.9-0.3-1.4-0.3s-1,0.1-1.4,0.3c-0.4,0.2-0.8,0.4-1,0.7
				c-0.3,0.3-0.5,0.7-0.7,1.1c-0.2,0.4-0.2,0.9-0.2,1.4s0.1,0.9,0.2,1.4c0.2,0.4,0.4,0.8,0.7,1.1c0.3,0.3,0.6,0.6,1,0.7
				c0.4,0.2,0.9,0.3,1.4,0.3s1-0.1,1.4-0.3c0.4-0.2,0.8-0.4,1-0.7c0.3-0.3,0.5-0.7,0.7-1.1C383.4,916.7,383.4,916.2,383.4,915.7z"/>
			<path class="st3" d="M388.2,911.3c0,0.2,0,0.5,0,0.7c0,0.2,0,0.5,0,0.7h0c0.1-0.2,0.3-0.5,0.5-0.7c0.2-0.2,0.5-0.4,0.7-0.5
				s0.5-0.3,0.8-0.3s0.6-0.1,0.9-0.1c1.1,0,2,0.3,2.5,0.9c0.5,0.6,0.8,1.4,0.8,2.5v5.6h-1.2v-4.9c0-1-0.2-1.7-0.5-2.2
				s-1-0.8-1.9-0.8c-0.1,0-0.2,0-0.5,0.1c-0.3,0-0.6,0.2-0.9,0.4c-0.3,0.2-0.6,0.6-0.9,1c-0.3,0.5-0.4,1.1-0.4,1.9v4.5H387v-6.9
				c0-0.2,0-0.5,0-0.9s0-0.7-0.1-1H388.2z"/>
			<path class="st3" d="M406.4,915.7c0,0.7-0.1,1.3-0.3,1.8c-0.2,0.6-0.6,1.1-1,1.5c-0.4,0.4-0.9,0.7-1.5,1
				c-0.6,0.2-1.2,0.3-1.9,0.3c-0.7,0-1.3-0.1-1.9-0.3c-0.6-0.2-1.1-0.6-1.5-1s-0.7-0.9-1-1.5c-0.2-0.6-0.3-1.2-0.3-1.8
				c0-0.7,0.1-1.3,0.3-1.8c0.2-0.6,0.6-1.1,1-1.5c0.4-0.4,0.9-0.7,1.5-1c0.6-0.2,1.2-0.3,1.9-0.3c0.7,0,1.3,0.1,1.9,0.3
				c0.6,0.2,1.1,0.6,1.5,1c0.4,0.4,0.7,0.9,1,1.5C406.2,914.5,406.4,915.1,406.4,915.7z M405,915.7c0-0.5-0.1-0.9-0.2-1.4
				c-0.2-0.4-0.4-0.8-0.7-1.1c-0.3-0.3-0.6-0.6-1-0.7c-0.4-0.2-0.9-0.3-1.4-0.3s-1,0.1-1.4,0.3c-0.4,0.2-0.8,0.4-1,0.7
				c-0.3,0.3-0.5,0.7-0.7,1.1c-0.2,0.4-0.2,0.9-0.2,1.4s0.1,0.9,0.2,1.4c0.2,0.4,0.4,0.8,0.7,1.1c0.3,0.3,0.6,0.6,1,0.7
				c0.4,0.2,0.9,0.3,1.4,0.3s1-0.1,1.4-0.3c0.4-0.2,0.8-0.4,1-0.7c0.3-0.3,0.5-0.7,0.7-1.1C404.9,916.7,405,916.2,405,915.7z"/>
			<path class="st3" d="M415,913.4c-0.2-0.3-0.5-0.6-0.9-0.8c-0.4-0.2-0.8-0.3-1.3-0.3c-0.5,0-1,0.1-1.4,0.2c-0.4,0.2-0.8,0.4-1,0.7
				c-0.3,0.3-0.5,0.7-0.7,1.1c-0.1,0.4-0.2,0.9-0.2,1.4c0,0.5,0.1,1,0.2,1.4c0.2,0.4,0.4,0.8,0.7,1.1c0.3,0.3,0.6,0.6,1,0.7
				c0.4,0.2,0.9,0.3,1.4,0.2c0.5,0,0.9-0.1,1.3-0.3c0.4-0.2,0.7-0.5,0.9-0.8l1,0.8c-0.4,0.5-0.9,0.9-1.5,1.1
				c-0.6,0.2-1.1,0.4-1.7,0.4c-0.7,0-1.4-0.1-1.9-0.3c-0.6-0.2-1.1-0.6-1.5-1s-0.7-0.9-0.9-1.5c-0.2-0.6-0.3-1.2-0.3-1.8
				c0-0.7,0.1-1.3,0.3-1.8c0.2-0.6,0.5-1.1,0.9-1.5s0.9-0.7,1.5-1c0.6-0.2,1.2-0.3,1.9-0.3c0.6,0,1.2,0.1,1.7,0.4
				c0.6,0.2,1,0.6,1.5,1.1L415,913.4z"/>
			<path class="st3" d="M417.7,905.9h1.2v6.8h0c0.1-0.2,0.3-0.5,0.5-0.7c0.2-0.2,0.5-0.4,0.7-0.5s0.5-0.3,0.8-0.3s0.6-0.1,0.9-0.1
				c1.1,0,2,0.3,2.5,0.9c0.5,0.6,0.8,1.4,0.8,2.5v5.6H424v-4.9c0-1-0.2-1.7-0.5-2.2s-1-0.8-1.9-0.8c-0.1,0-0.2,0-0.5,0.1
				c-0.3,0-0.6,0.2-0.9,0.4c-0.3,0.2-0.6,0.6-0.9,1c-0.3,0.5-0.4,1.1-0.4,1.9v4.5h-1.2V905.9z"/>
			<path class="st3" d="M428.2,914.1c0-0.4,0-0.8,0-1.2c0-0.4,0-0.9,0-1.6h1.2v1.6h0c0.1-0.2,0.2-0.5,0.4-0.7
				c0.2-0.2,0.4-0.4,0.6-0.6s0.5-0.3,0.8-0.4c0.3-0.1,0.7-0.2,1-0.2c0.4,0,0.7,0,0.9,0.1l-0.2,1.2c-0.2-0.1-0.4-0.1-0.7-0.1
				c-0.5,0-0.9,0.1-1.2,0.3c-0.3,0.2-0.6,0.4-0.8,0.7c-0.2,0.3-0.4,0.6-0.5,0.9c-0.1,0.3-0.2,0.6-0.2,0.9v5h-1.2V914.1z"/>
			<path class="st3" d="M442.9,915.7c0,0.7-0.1,1.3-0.3,1.8c-0.2,0.6-0.6,1.1-1,1.5c-0.4,0.4-0.9,0.7-1.5,1
				c-0.6,0.2-1.2,0.3-1.9,0.3c-0.7,0-1.3-0.1-1.9-0.3c-0.6-0.2-1.1-0.6-1.5-1s-0.7-0.9-1-1.5c-0.2-0.6-0.3-1.2-0.3-1.8
				c0-0.7,0.1-1.3,0.3-1.8c0.2-0.6,0.6-1.1,1-1.5c0.4-0.4,0.9-0.7,1.5-1c0.6-0.2,1.2-0.3,1.9-0.3c0.7,0,1.3,0.1,1.9,0.3
				c0.6,0.2,1.1,0.6,1.5,1c0.4,0.4,0.7,0.9,1,1.5C442.8,914.5,442.9,915.1,442.9,915.7z M441.5,915.7c0-0.5-0.1-0.9-0.2-1.4
				c-0.2-0.4-0.4-0.8-0.7-1.1c-0.3-0.3-0.6-0.6-1-0.7c-0.4-0.2-0.9-0.3-1.4-0.3s-1,0.1-1.4,0.3c-0.4,0.2-0.8,0.4-1,0.7
				c-0.3,0.3-0.5,0.7-0.7,1.1c-0.2,0.4-0.2,0.9-0.2,1.4s0.1,0.9,0.2,1.4c0.2,0.4,0.4,0.8,0.7,1.1c0.3,0.3,0.6,0.6,1,0.7
				c0.4,0.2,0.9,0.3,1.4,0.3s1-0.1,1.4-0.3c0.4-0.2,0.8-0.4,1-0.7c0.3-0.3,0.5-0.7,0.7-1.1C441.4,916.7,441.5,916.2,441.5,915.7z"/>
			<path class="st3" d="M445.1,913.3c0-0.3,0-0.7,0-1s0-0.7-0.1-1h1.3v1.3h0c0.3-0.5,0.7-0.9,1.2-1.2c0.5-0.3,1.1-0.4,1.6-0.4
				c0.2,0,0.5,0,0.8,0.1s0.5,0.1,0.8,0.3c0.3,0.1,0.5,0.3,0.7,0.6c0.2,0.2,0.4,0.5,0.6,0.9c0.2-0.6,0.6-1,1.2-1.3s1.1-0.5,1.7-0.5
				c1.1,0,2,0.3,2.5,0.9c0.5,0.6,0.8,1.4,0.8,2.5v5.6H457V915c0-0.9-0.2-1.6-0.5-2c-0.3-0.5-0.9-0.7-1.7-0.7c-0.5,0-0.9,0.1-1.2,0.3
				c-0.3,0.2-0.6,0.4-0.8,0.7c-0.2,0.3-0.3,0.6-0.4,1c-0.1,0.4-0.1,0.8-0.1,1.2v4.7h-1.2V915c0-0.9-0.2-1.6-0.5-2
				c-0.3-0.5-0.9-0.7-1.7-0.7c-0.1,0-0.2,0-0.5,0.1c-0.3,0-0.5,0.2-0.8,0.4c-0.3,0.2-0.5,0.6-0.8,1c-0.2,0.5-0.3,1.1-0.3,1.9v4.5
				h-1.2V913.3z"/>
			<path class="st3" d="M462,916.1c0,0.4,0.1,0.9,0.3,1.2s0.4,0.7,0.7,1c0.3,0.3,0.6,0.5,1,0.7c0.4,0.2,0.8,0.2,1.2,0.2
				c0.7,0,1.2-0.2,1.7-0.5c0.5-0.3,0.8-0.7,1.1-1.1l1,0.8c-0.5,0.7-1.1,1.1-1.7,1.4c-0.6,0.3-1.3,0.4-2,0.4c-0.7,0-1.3-0.1-1.8-0.3
				s-1-0.6-1.4-1c-0.4-0.4-0.7-0.9-0.9-1.5c-0.2-0.6-0.3-1.2-0.3-1.8c0-0.7,0.1-1.3,0.3-1.8c0.2-0.6,0.5-1.1,0.9-1.5
				c0.4-0.4,0.9-0.7,1.4-1s1.1-0.3,1.7-0.3c0.7,0,1.3,0.1,1.8,0.4c0.5,0.2,1,0.6,1.3,0.9c0.4,0.4,0.6,0.9,0.8,1.4
				c0.2,0.5,0.3,1.1,0.3,1.7v0.6H462z M467.9,915.1c0-0.8-0.3-1.5-0.8-2s-1.2-0.8-2.1-0.8c-0.4,0-0.8,0.1-1.2,0.2
				c-0.4,0.2-0.7,0.4-1,0.6c-0.3,0.3-0.5,0.6-0.7,0.9s-0.3,0.7-0.3,1.1H467.9z"/>
			<path class="st3" d="M470.3,922.5c0.4-0.6,0.8-1.3,1.1-1.9s0.6-1.2,0.8-1.8c0.2-0.6,0.4-1.3,0.5-1.9c0.1-0.7,0.2-1.4,0.2-2.2
				c0-0.8-0.1-1.5-0.2-2.1c-0.1-0.7-0.3-1.3-0.5-1.9s-0.5-1.2-0.8-1.8c-0.3-0.6-0.6-1.2-1-1.9l1-0.8c0.8,1.2,1.5,2.5,2,3.9
				s0.7,2.9,0.7,4.5c0,1.5-0.2,2.9-0.7,4.4c-0.5,1.5-1.1,2.8-2,4L470.3,922.5z"/>
		</g>
	</g>
	<g>
		<g>
			<path class="st3" d="M916.4,122.5h3.9c1.4,0,2.4,0.3,3.2,0.9c0.8,0.6,1.2,1.5,1.2,2.7c0,1.2-0.4,2.1-1.2,2.7
				c-0.8,0.6-1.8,0.9-3.2,0.9h-2.5v6.2h-1.4V122.5z M917.7,128.4h2.2c0.6,0,1.1-0.1,1.5-0.2c0.4-0.1,0.8-0.3,1-0.5
				c0.2-0.2,0.4-0.5,0.5-0.7c0.1-0.3,0.2-0.6,0.2-0.9c0-0.3-0.1-0.6-0.2-0.9c-0.1-0.3-0.3-0.5-0.5-0.7c-0.3-0.2-0.6-0.4-1-0.5
				c-0.4-0.1-0.9-0.2-1.5-0.2h-2.2V128.4z"/>
			<path class="st3" d="M926.8,129.7c0-0.4,0-0.8,0-1.2c0-0.4,0-0.9,0-1.6h1.2v1.6h0c0.1-0.2,0.2-0.5,0.4-0.7
				c0.2-0.2,0.4-0.4,0.6-0.6c0.2-0.2,0.5-0.3,0.8-0.4c0.3-0.1,0.7-0.2,1-0.2c0.4,0,0.7,0,0.9,0.1l-0.2,1.2c-0.2-0.1-0.4-0.1-0.7-0.1
				c-0.5,0-0.9,0.1-1.2,0.3c-0.3,0.2-0.6,0.4-0.8,0.7c-0.2,0.3-0.4,0.6-0.5,0.9c-0.1,0.3-0.2,0.6-0.2,0.9v5h-1.2V129.7z"/>
			<path class="st3" d="M934.8,123.6c0,0.3-0.1,0.5-0.3,0.6c-0.2,0.2-0.4,0.3-0.6,0.3s-0.4-0.1-0.6-0.3c-0.2-0.2-0.3-0.4-0.3-0.6
				c0-0.3,0.1-0.5,0.3-0.6c0.2-0.2,0.4-0.3,0.6-0.3s0.4,0.1,0.6,0.3C934.7,123.1,934.8,123.4,934.8,123.6z M934.5,135.8h-1.2V127
				h1.2V135.8z"/>
			<path class="st3" d="M937.5,129c0-0.3,0-0.7,0-1s0-0.7-0.1-1h1.3v1.3h0c0.3-0.5,0.7-0.9,1.2-1.2c0.5-0.3,1.1-0.4,1.6-0.4
				c0.2,0,0.5,0,0.8,0.1c0.3,0.1,0.5,0.1,0.8,0.3s0.5,0.3,0.7,0.6c0.2,0.2,0.4,0.5,0.6,0.9c0.2-0.6,0.6-1,1.2-1.3
				c0.5-0.3,1.1-0.5,1.7-0.5c1.1,0,2,0.3,2.5,0.9s0.8,1.4,0.8,2.5v5.6h-1.2v-5.1c0-0.9-0.2-1.6-0.5-2c-0.3-0.5-0.9-0.7-1.7-0.7
				c-0.5,0-0.9,0.1-1.2,0.3c-0.3,0.2-0.6,0.4-0.8,0.7c-0.2,0.3-0.3,0.6-0.4,1c-0.1,0.4-0.1,0.8-0.1,1.2v4.7h-1.2v-5.1
				c0-0.9-0.2-1.6-0.5-2c-0.3-0.5-0.9-0.7-1.7-0.7c-0.1,0-0.2,0-0.5,0.1c-0.3,0-0.5,0.2-0.8,0.4c-0.3,0.2-0.5,0.6-0.8,1
				c-0.2,0.5-0.3,1.1-0.3,1.9v4.5h-1.2V129z"/>
			<path class="st3" d="M959.1,130.4v-0.2c0-1.5-0.8-2.3-2.3-2.3c-1,0-1.9,0.3-2.7,1l-0.8-0.9c0.8-0.9,2.1-1.3,3.7-1.3
				c0.4,0,0.8,0.1,1.2,0.2c0.4,0.1,0.7,0.3,1,0.6c0.3,0.3,0.5,0.6,0.7,1c0.2,0.4,0.3,0.9,0.3,1.4v3.9c0,0.3,0,0.7,0,1.1
				s0.1,0.7,0.1,0.9h-1.2c0-0.2-0.1-0.4-0.1-0.7c0-0.3,0-0.5,0-0.7h0c-0.4,0.6-0.8,1-1.3,1.3c-0.5,0.3-1.1,0.4-1.8,0.4
				c-0.4,0-0.8-0.1-1.1-0.2c-0.4-0.1-0.7-0.3-1-0.5c-0.3-0.2-0.5-0.5-0.7-0.8c-0.2-0.3-0.3-0.7-0.3-1.1c0-0.7,0.2-1.3,0.6-1.7
				s0.8-0.7,1.4-0.9c0.6-0.2,1.2-0.3,1.8-0.4c0.6,0,1.2-0.1,1.7-0.1H959.1z M958.4,131.4c-0.3,0-0.7,0-1.2,0c-0.5,0-0.9,0.1-1.4,0.2
				c-0.4,0.1-0.8,0.3-1.1,0.6c-0.3,0.3-0.5,0.6-0.5,1c0,0.3,0.1,0.5,0.2,0.7c0.1,0.2,0.3,0.4,0.5,0.5s0.4,0.2,0.7,0.3
				s0.5,0.1,0.7,0.1c0.5,0,0.8-0.1,1.2-0.2c0.3-0.2,0.6-0.4,0.8-0.6c0.2-0.3,0.4-0.6,0.5-0.9c0.1-0.3,0.2-0.7,0.2-1.1v-0.6H958.4z"
				/>
			<path class="st3" d="M963.3,129.7c0-0.4,0-0.8,0-1.2c0-0.4,0-0.9,0-1.6h1.2v1.6h0c0.1-0.2,0.2-0.5,0.4-0.7
				c0.2-0.2,0.4-0.4,0.6-0.6c0.2-0.2,0.5-0.3,0.8-0.4c0.3-0.1,0.7-0.2,1-0.2c0.4,0,0.7,0,0.9,0.1l-0.2,1.2c-0.2-0.1-0.4-0.1-0.7-0.1
				c-0.5,0-0.9,0.1-1.2,0.3c-0.3,0.2-0.6,0.4-0.8,0.7c-0.2,0.3-0.4,0.6-0.5,0.9c-0.1,0.3-0.2,0.6-0.2,0.9v5h-1.2V129.7z"/>
			<path class="st3" d="M972.7,134.3l2.7-7.3h1.5l-4.4,11.1c-0.3,0.7-0.6,1.2-1,1.6c-0.4,0.4-1,0.6-1.8,0.6c-0.2,0-0.4,0-0.6,0
				c-0.2,0-0.4,0-0.6-0.1l0.1-1.2c0.3,0.1,0.6,0.2,0.9,0.2c0.4,0,0.8-0.1,1-0.4c0.3-0.3,0.5-0.7,0.7-1.2l0.6-1.7l-3.6-8.9h1.6
				L972.7,134.3z"/>
			<path class="st3" d="M985.5,134.5h6.2v1.2h-7.5v-13.3h1.4V134.5z"/>
			<path class="st3" d="M1001.9,131.4c0,0.7-0.1,1.3-0.3,1.8c-0.2,0.6-0.6,1.1-1,1.5c-0.4,0.4-0.9,0.7-1.5,1
				c-0.6,0.2-1.2,0.3-1.9,0.3c-0.7,0-1.3-0.1-1.9-0.3c-0.6-0.2-1.1-0.6-1.5-1c-0.4-0.4-0.7-0.9-1-1.5s-0.3-1.2-0.3-1.8
				c0-0.7,0.1-1.3,0.3-1.8s0.6-1.1,1-1.5c0.4-0.4,0.9-0.7,1.5-1c0.6-0.2,1.2-0.3,1.9-0.3c0.7,0,1.3,0.1,1.9,0.3
				c0.6,0.2,1.1,0.6,1.5,1c0.4,0.4,0.7,0.9,1,1.5C1001.8,130.1,1001.9,130.7,1001.9,131.4z M1000.6,131.4c0-0.5-0.1-0.9-0.2-1.4
				c-0.2-0.4-0.4-0.8-0.7-1.1c-0.3-0.3-0.6-0.6-1-0.7c-0.4-0.2-0.9-0.3-1.4-0.3s-1,0.1-1.4,0.3c-0.4,0.2-0.8,0.4-1,0.7
				c-0.3,0.3-0.5,0.7-0.7,1.1s-0.2,0.9-0.2,1.4c0,0.5,0.1,0.9,0.2,1.4c0.2,0.4,0.4,0.8,0.7,1.1c0.3,0.3,0.6,0.6,1,0.7
				c0.4,0.2,0.9,0.3,1.4,0.3s1-0.1,1.4-0.3c0.4-0.2,0.8-0.4,1-0.7c0.3-0.3,0.5-0.7,0.7-1.1C1000.5,132.3,1000.6,131.9,1000.6,131.4z
				"/>
			<path class="st3" d="M1010.6,129.1c-0.2-0.3-0.5-0.6-0.9-0.8c-0.4-0.2-0.8-0.3-1.3-0.3c-0.5,0-1,0.1-1.4,0.2
				c-0.4,0.2-0.8,0.4-1,0.7c-0.3,0.3-0.5,0.7-0.7,1.1c-0.1,0.4-0.2,0.9-0.2,1.4s0.1,1,0.2,1.4c0.2,0.4,0.4,0.8,0.7,1.1
				c0.3,0.3,0.6,0.6,1,0.7c0.4,0.2,0.9,0.3,1.4,0.2c0.5,0,0.9-0.1,1.3-0.3c0.4-0.2,0.7-0.5,0.9-0.8l1,0.8c-0.4,0.5-0.9,0.9-1.5,1.1
				c-0.6,0.2-1.1,0.4-1.7,0.4c-0.7,0-1.4-0.1-1.9-0.3c-0.6-0.2-1.1-0.6-1.5-1s-0.7-0.9-0.9-1.5c-0.2-0.6-0.3-1.2-0.3-1.8
				c0-0.7,0.1-1.3,0.3-1.8c0.2-0.6,0.5-1.1,0.9-1.5s0.9-0.7,1.5-1c0.6-0.2,1.2-0.3,1.9-0.3c0.6,0,1.2,0.1,1.7,0.4
				c0.6,0.2,1,0.6,1.5,1.1L1010.6,129.1z"/>
			<path class="st3" d="M1014.5,131l4.1-4h1.9l-4.4,4l4.8,4.8h-1.9l-4.6-4.6v4.6h-1.2v-14.2h1.2V131z"/>
			<path class="st3" d="M1028.6,135.8c0-0.2,0-0.5,0-0.7c0-0.2,0-0.5,0-0.7h0c-0.1,0.2-0.3,0.5-0.5,0.7c-0.2,0.2-0.5,0.4-0.7,0.5
				c-0.3,0.1-0.5,0.3-0.8,0.3c-0.3,0.1-0.6,0.1-0.9,0.1c-1.1,0-2-0.3-2.5-0.9c-0.5-0.6-0.8-1.4-0.8-2.5V127h1.2v4.9
				c0,0.5,0,0.9,0.1,1.3c0.1,0.4,0.2,0.7,0.4,0.9c0.2,0.3,0.4,0.5,0.7,0.6c0.3,0.1,0.7,0.2,1.2,0.2c0.1,0,0.2,0,0.5-0.1
				c0.3,0,0.6-0.2,0.9-0.4c0.3-0.2,0.6-0.6,0.9-1c0.3-0.5,0.4-1.1,0.4-1.9V127h1.2v6.9c0,0.2,0,0.5,0,0.9s0,0.7,0.1,1H1028.6z"/>
			<path class="st3" d="M1032.7,127h1.2v1.5h0c0.2-0.3,0.4-0.6,0.7-0.8c0.3-0.2,0.6-0.4,0.9-0.5s0.6-0.2,0.9-0.3
				c0.3-0.1,0.6-0.1,0.9-0.1c0.7,0,1.3,0.1,1.9,0.3s1.1,0.6,1.5,1c0.4,0.4,0.7,0.9,1,1.5s0.3,1.2,0.3,1.8c0,0.7-0.1,1.3-0.3,1.8
				s-0.6,1.1-1,1.5c-0.4,0.4-0.9,0.7-1.5,1s-1.2,0.3-1.9,0.3c-0.3,0-0.6,0-0.9-0.1c-0.3-0.1-0.6-0.2-0.9-0.3s-0.6-0.3-0.9-0.5
				s-0.5-0.5-0.7-0.8h0v6.9h-1.2V127z M1040.7,131.4c0-0.5-0.1-0.9-0.2-1.4s-0.4-0.8-0.7-1.1c-0.3-0.3-0.6-0.6-1-0.7
				c-0.4-0.2-0.9-0.3-1.4-0.3c-0.5,0-1,0.1-1.4,0.3c-0.4,0.2-0.8,0.4-1.1,0.7c-0.3,0.3-0.6,0.7-0.7,1.1c-0.2,0.4-0.3,0.9-0.3,1.4
				c0,0.5,0.1,0.9,0.3,1.4c0.2,0.4,0.4,0.8,0.7,1.1c0.3,0.3,0.7,0.6,1.1,0.7c0.4,0.2,0.9,0.3,1.4,0.3c0.5,0,1-0.1,1.4-0.3
				c0.4-0.2,0.8-0.4,1-0.7c0.3-0.3,0.5-0.7,0.7-1.1C1040.7,132.3,1040.7,131.9,1040.7,131.4z"/>
		</g>
	</g>
	<line class="st4" x1="773.8" y1="1.3" x2="773.8" y2="980.1"/>
</g>
<g>
	<g>
		<g>
			<g>
				<path class="st2" d="M897.6,542.8l-12.9-5.6c0,0,0-25,0-25.1c0-4.5-3.7-8.2-8.2-8.2c-4.5,0-8.2,3.7-8.2,8.2l0,18l-12.5-5.4
					c0,0-0.1-12.5-0.1-12.9c0-11.6,9.4-21,21-21c11.6,0,21,9.4,21,21C897.6,512,897.6,542.8,897.6,542.8z"/>
			</g>
		</g>
		<g>
			<g>
				<path class="st5" d="M891.7,549.7c-0.4-0.1-0.8-0.2-1.1-0.4l-34.5-16.9c-1.3-0.6-1.6-1.7-0.8-2.4c0.8-0.7,2.5-0.8,3.8-0.1
					l34.5,16.9c1.3,0.6,1.6,1.7,0.8,2.4C893.8,549.7,892.7,549.9,891.7,549.7z"/>
			</g>
			<g>
				<path class="st2" d="M878.6,551.8c-0.4-0.1-0.8-0.2-1.1-0.4l-25.8-12.6c-1.3-0.6-1.6-1.7-0.8-2.4c0.8-0.7,2.5-0.8,3.8-0.1
					l25.8,12.6c1.3,0.6,1.6,1.7,0.8,2.4C880.6,551.8,879.6,551.9,878.6,551.8z"/>
			</g>
			<g>
				<path class="st6" d="M873.8,557.9c-0.4-0.1-0.8-0.2-1.1-0.4l-16.6-8.1c-1.3-0.6-1.6-1.7-0.8-2.4c0.8-0.7,2.5-0.8,3.8-0.1
					l16.6,8.1c1.3,0.6,1.6,1.7,0.8,2.4C875.8,557.9,874.8,558.1,873.8,557.9z"/>
			</g>
			<g>
				<path class="st2" d="M858.2,558.8c-0.4-0.1-0.8-0.2-1.1-0.4l-5.6-2.7c-1.3-0.6-1.6-1.7-0.8-2.4c0.8-0.7,2.5-0.8,3.8-0.1l5.6,2.7
					c1.3,0.6,1.6,1.7,0.8,2.4C860.2,558.8,859.2,558.9,858.2,558.8z"/>
			</g>
		</g>
	</g>
	<g>
		<path class="st2" d="M963.4,506.6h6.7l15.9,36.6h-9.1l-3.2-7.8h-14.2l-3,7.8h-8.9L963.4,506.6z M966.5,517.3l-4.4,11.4h8.9
			L966.5,517.3z"/>
		<g>
			<defs>
				<path id="SVGID_1_" d="M963.4,506.6h6.7l15.9,36.6h-9.1l-3.2-7.8h-14.2l-3,7.8h-8.9L963.4,506.6z M966.5,517.3l-4.4,11.4h8.9
					L966.5,517.3z"/>
			</defs>
			<clipPath id="SVGID_2_">
				<use xlink:href="#SVGID_1_"  style="overflow:visible;"/>
			</clipPath>
			<g class="st7">
				
					<rect x="926" y="530" transform="matrix(0.7071 -0.7071 0.7071 0.7071 -92.9098 842.7308)" class="st2" width="89.6" height="7.1"/>
				
					<rect x="930.9" y="534.9" transform="matrix(0.7071 -0.7071 0.7071 0.7071 -94.9559 847.6705)" class="st6" width="89.6" height="7.1"/>
				
					<rect x="935.9" y="539.8" transform="matrix(0.7071 -0.7071 0.7071 0.7071 -97.002 852.6102)" class="st5" width="89.6" height="7.1"/>
			</g>
		</g>
		<path class="st2" d="M989.2,506.5h11l15.6,25.5h0.1v-25.5h8.1v36.7h-10.6l-16-26.1h-0.1v26.1h-8.1V506.5z"/>
		<path class="st2" d="M1053.5,538.9c-1.2,1.6-2.8,2.8-4.7,3.6c-1.9,0.9-3.8,1.3-5.8,1.3c-1.9,0-3.7-0.3-5.4-0.9
			c-1.7-0.6-3.2-1.5-4.4-2.6c-1.2-1.1-2.2-2.5-2.9-4.1c-0.7-1.6-1.1-3.4-1.1-5.4c0-2,0.4-3.8,1.1-5.4c0.7-1.6,1.7-3,2.9-4.1
			c1.2-1.1,2.7-2,4.4-2.6c1.7-0.6,3.5-0.9,5.4-0.9c1.8,0,3.4,0.3,4.8,0.9c1.4,0.6,2.7,1.5,3.7,2.6c1,1.1,1.8,2.5,2.3,4.1
			c0.5,1.6,0.8,3.4,0.8,5.4v2.4h-17.8c0.3,1.5,1,2.6,2,3.5c1,0.9,2.3,1.3,3.8,1.3c1.3,0,2.3-0.3,3.2-0.8c0.9-0.6,1.6-1.3,2.3-2.2
			L1053.5,538.9z M1047,528c0-1.3-0.4-2.4-1.3-3.3c-0.9-0.9-2-1.4-3.4-1.4c-0.9,0-1.6,0.1-2.3,0.4c-0.6,0.3-1.2,0.6-1.7,1
			c-0.5,0.4-0.8,0.9-1.1,1.5s-0.4,1.2-0.4,1.8H1047z"/>
		<path class="st2" d="M1056.3,518.4h8.2l5.1,15.6h0.1l4.2-15.6h8.4l4.6,15.6h0.1l4.7-15.6h7.8l-8.9,24.9h-7.6l-5.2-16.5h-0.1
			l-4.6,16.5h-7.7L1056.3,518.4z"/>
		<path class="st2" d="M1116,525.7c-1.1-1.4-2.6-2.1-4.5-2.1c-0.6,0-1.3,0.2-1.9,0.5c-0.6,0.3-0.9,0.8-0.9,1.6
			c0,0.6,0.3,1.1,0.9,1.4c0.6,0.3,1.4,0.5,2.4,0.8c1,0.2,2,0.5,3.1,0.7c1.1,0.3,2.1,0.7,3.1,1.2c1,0.5,1.8,1.3,2.4,2.2
			c0.6,0.9,0.9,2.2,0.9,3.8c0,1.6-0.4,2.9-1,4c-0.7,1-1.6,1.9-2.7,2.5c-1.1,0.6-2.3,1.1-3.7,1.3c-1.4,0.3-2.7,0.4-4,0.4
			c-1.7,0-3.5-0.2-5.3-0.7c-1.8-0.5-3.3-1.4-4.5-2.6l4.7-5.2c0.7,0.9,1.5,1.6,2.4,2c0.9,0.5,1.9,0.7,3,0.7c0.9,0,1.7-0.1,2.4-0.4
			c0.7-0.3,1.1-0.7,1.1-1.4c0-0.6-0.3-1.1-0.9-1.5c-0.6-0.3-1.4-0.6-2.4-0.8c-1-0.2-2-0.5-3.1-0.7c-1.1-0.3-2.1-0.6-3.1-1.2
			c-1-0.5-1.8-1.2-2.4-2.2c-0.6-0.9-0.9-2.2-0.9-3.8c0-1.5,0.3-2.7,0.9-3.8c0.6-1.1,1.4-1.9,2.4-2.6c1-0.7,2.1-1.2,3.4-1.5
			c1.3-0.3,2.5-0.5,3.8-0.5c1.6,0,3.3,0.2,5,0.7c1.7,0.5,3.1,1.3,4.2,2.6L1116,525.7z"/>
		<polygon class="st2" points="926.8,522.4 926.8,513.6 926.8,506.7 918.9,506.7 918.9,543.3 926.8,543.3 926.8,538.5 926.8,529 		
			"/>
		<path class="st2" d="M940.6,506.7c-0.2,0-0.3,0-0.5,0c-0.3,0-0.5,0-0.8,0h-7.8l-1,6.9h9.7c0.1,0,0.1,0,0.2,0c2.4,0,4.4,2,4.4,4.4
			c0,2.4-2,4.4-4.4,4.4l-10,0c0,0,0,0,0,0h-1.2l-1,6.6H940c0.2,0,0.4,0,0.6,0c6.2,0,11.2-5,11.2-11.2S946.8,506.7,940.6,506.7z"/>
		<g>
			<defs>
				<path id="SVGID_3_" d="M940.6,506.7c-0.2,0-0.3,0-0.5,0c-0.3,0-0.5,0-0.8,0h-7.8l-1,6.9h9.7c0.1,0,0.1,0,0.2,0
					c2.4,0,4.4,2,4.4,4.4c0,2.4-2,4.4-4.4,4.4l-10,0c0,0,0,0,0,0h-1.2l-1,6.6H940c0.2,0,0.4,0,0.6,0c6.2,0,11.2-5,11.2-11.2
					S946.8,506.7,940.6,506.7z"/>
			</defs>
			<clipPath id="SVGID_4_">
				<use xlink:href="#SVGID_3_"  style="overflow:visible;"/>
			</clipPath>
			<g class="st8">
				
					<rect x="899.6" y="509.7" transform="matrix(0.7071 -0.7071 0.7071 0.7071 -87.3844 814.8232)" class="st2" width="80.6" height="6.4"/>
				
					<rect x="904" y="514.1" transform="matrix(0.7071 -0.7071 0.7071 0.7071 -89.2245 819.2656)" class="st6" width="80.6" height="6.4"/>
				
					<rect x="908.5" y="518.6" transform="matrix(0.7071 -0.7071 0.7071 0.7071 -91.0646 823.7078)" class="st5" width="80.6" height="6.4"/>
			</g>
		</g>
	</g>
</g>
<g>
	<g>
		<g>
			<g>
				<path class="st0" d="M-126.6,490.9l-17.2-7.5c0,0,0-33.3,0-33.4c0-6-4.9-10.9-10.9-10.9c-6,0-10.9,4.9-10.9,10.9l0,23.9
					l-16.6-7.2c0,0-0.1-16.6-0.1-17.2c0-15.4,12.5-27.9,27.9-27.9c15.4,0,27.9,12.5,27.9,27.9C-126.5,449.9-126.6,490.9-126.6,490.9
					z"/>
			</g>
		</g>
		<g>
			<g>
				<path class="st5" d="M-134.4,500.1c-0.5-0.1-1.1-0.3-1.5-0.5l-46-22.5c-1.7-0.8-2.2-2.3-1.1-3.2c1.1-0.9,3.4-1,5.1-0.2l46,22.5
					c1.7,0.8,2.2,2.3,1.1,3.2C-131.7,500.1-133.1,500.3-134.4,500.1z"/>
			</g>
			<g>
				<path class="st0" d="M-151.9,502.8c-0.5-0.1-1.1-0.3-1.5-0.5l-34.3-16.8c-1.7-0.8-2.2-2.3-1.1-3.2c1.1-0.9,3.4-1,5.1-0.2
					l34.3,16.8c1.7,0.8,2.2,2.3,1.1,3.2C-149.2,502.8-150.6,503.1-151.9,502.8z"/>
			</g>
			<g>
				<path class="st6" d="M-158.3,511c-0.5-0.1-1.1-0.3-1.5-0.5l-22.1-10.8c-1.7-0.8-2.2-2.3-1.1-3.2c1.1-0.9,3.4-1,5.1-0.2
					l22.1,10.8c1.7,0.8,2.2,2.3,1.1,3.2C-155.6,511-157,511.2-158.3,511z"/>
			</g>
			<g>
				<path class="st0" d="M-179.1,512.1c-0.5-0.1-1.1-0.3-1.5-0.5l-7.5-3.7c-1.7-0.8-2.2-2.3-1.1-3.2c1.1-0.9,3.4-1,5.1-0.2l7.5,3.7
					c1.7,0.8,2.2,2.3,1.1,3.2C-176.4,512.2-177.8,512.4-179.1,512.1z"/>
			</g>
		</g>
	</g>
	<g>
		<path class="st0" d="M-39,442.7h8.9l21.2,48.7H-21l-4.2-10.3h-18.9l-4.1,10.3H-60L-39,442.7z M-34.8,456.9l-5.9,15.1h11.9
			L-34.8,456.9z"/>
		<g>
			<defs>
				<path id="SVGID_5_" d="M-39,442.7h8.9l21.2,48.7H-21l-4.2-10.3h-18.9l-4.1,10.3H-60L-39,442.7z M-34.8,456.9l-5.9,15.1h11.9
					L-34.8,456.9z"/>
			</defs>
			<clipPath id="SVGID_6_">
				<use xlink:href="#SVGID_5_"  style="overflow:visible;"/>
			</clipPath>
			<g class="st9">
				
					<rect x="-88.8" y="473.8" transform="matrix(0.7071 -0.7071 0.7071 0.7071 -346.8767 119.5882)" class="st0" width="119.3" height="9.5"/>
				
					<rect x="-82.2" y="480.3" transform="matrix(0.7071 -0.7071 0.7071 0.7071 -349.6017 126.1671)" class="st6" width="119.3" height="9.5"/>
				
					<rect x="-75.6" y="486.9" transform="matrix(0.7071 -0.7071 0.7071 0.7071 -352.3268 132.746)" class="st5" width="119.3" height="9.5"/>
			</g>
		</g>
		<path class="st0" d="M-4.6,442.6h14.6l20.8,34H31v-34h10.8v48.9H27.7L6.3,456.6H6.2v34.8H-4.6V442.6z"/>
		<path class="st0" d="M81,485.7c-1.6,2.1-3.7,3.7-6.2,4.8c-2.5,1.1-5.1,1.7-7.8,1.7c-2.5,0-4.9-0.4-7.2-1.2c-2.2-0.8-4.2-2-5.9-3.5
			c-1.7-1.5-3-3.3-3.9-5.5c-1-2.1-1.4-4.5-1.4-7.2c0-2.6,0.5-5,1.4-7.2c1-2.1,2.3-4,3.9-5.5c1.7-1.5,3.6-2.7,5.9-3.5
			s4.6-1.2,7.2-1.2c2.4,0,4.5,0.4,6.4,1.2c1.9,0.8,3.6,2,4.9,3.5c1.3,1.5,2.4,3.4,3.1,5.5c0.7,2.1,1.1,4.5,1.1,7.2v3.2H58.9
			c0.4,2,1.3,3.5,2.7,4.7c1.4,1.2,3,1.7,5,1.7c1.7,0,3.1-0.4,4.3-1.1c1.2-0.7,2.2-1.7,3-2.9L81,485.7z M72.4,471.1
			c0-1.7-0.5-3.2-1.7-4.4c-1.2-1.2-2.7-1.8-4.6-1.8c-1.1,0-2.1,0.2-3,0.5c-0.9,0.4-1.6,0.8-2.2,1.4c-0.6,0.6-1.1,1.2-1.4,2
			s-0.5,1.5-0.6,2.4H72.4z"/>
		<path class="st0" d="M84.8,458.3h10.9l6.7,20.8h0.1l5.7-20.8h11.2l6.1,20.8h0.1l6.2-20.8h10.4l-11.8,33.1h-10.1l-6.9-22h-0.1
			l-6.1,22H97L84.8,458.3z"/>
		<path class="st0" d="M164.3,468.1c-1.5-1.9-3.5-2.8-5.9-2.8c-0.9,0-1.7,0.2-2.5,0.6c-0.8,0.4-1.2,1.1-1.2,2.1
			c0,0.8,0.4,1.4,1.3,1.8c0.8,0.4,1.9,0.7,3.2,1c1.3,0.3,2.7,0.6,4.2,1c1.5,0.3,2.9,0.9,4.2,1.6c1.3,0.7,2.4,1.7,3.2,3
			c0.8,1.3,1.3,2.9,1.3,5c0,2.1-0.5,3.9-1.4,5.3c-0.9,1.4-2.1,2.5-3.6,3.3c-1.5,0.8-3.1,1.4-4.9,1.8c-1.8,0.3-3.6,0.5-5.4,0.5
			c-2.3,0-4.7-0.3-7-1c-2.4-0.7-4.4-1.8-6-3.5l6.2-6.9c1,1.2,2,2.1,3.2,2.7c1.2,0.6,2.5,0.9,4.1,0.9c1.2,0,2.2-0.2,3.2-0.5
			c1-0.3,1.4-1,1.4-1.9c0-0.9-0.4-1.5-1.3-1.9c-0.8-0.4-1.9-0.8-3.2-1.1c-1.3-0.3-2.7-0.6-4.2-1c-1.5-0.3-2.9-0.9-4.2-1.5
			c-1.3-0.7-2.4-1.6-3.2-2.9c-0.8-1.2-1.3-2.9-1.3-5c0-2,0.4-3.6,1.2-5c0.8-1.4,1.8-2.6,3.1-3.5c1.3-0.9,2.8-1.6,4.5-2
			c1.7-0.4,3.4-0.6,5.1-0.6c2.2,0,4.4,0.3,6.6,1c2.2,0.6,4.1,1.8,5.7,3.4L164.3,468.1z"/>
		<polygon class="st0" points="-87.7,463.6 -87.7,452 -87.7,442.8 -98.2,442.8 -98.2,491.6 -87.7,491.6 -87.7,485.1 -87.7,472.5 		
			"/>
		<path class="st0" d="M-69.3,442.8c-0.2,0-0.4,0-0.6,0c-0.4,0-0.7,0-1,0h-10.4l-1.4,9.2h13c0.1,0,0.1,0,0.2,0
			c3.2,0,5.8,2.6,5.8,5.8c0,3.2-2.6,5.8-5.8,5.8l-13.4,0c0,0,0,0,0,0h-1.6l-1.3,8.8h15.7c0.3,0,0.6,0,0.8,0
			c8.2,0,14.9-6.7,14.9-14.9C-54.4,449.4-61.1,442.8-69.3,442.8z"/>
		<g>
			<defs>
				<path id="SVGID_7_" d="M-69.3,442.8c-0.2,0-0.4,0-0.6,0c-0.4,0-0.7,0-1,0h-10.4l-1.4,9.2h13c0.1,0,0.1,0,0.2,0
					c3.2,0,5.8,2.6,5.8,5.8c0,3.2-2.6,5.8-5.8,5.8l-13.4,0c0,0,0,0,0,0h-1.6l-1.3,8.8h15.7c0.3,0,0.6,0,0.8,0
					c8.2,0,14.9-6.7,14.9-14.9C-54.4,449.4-61.1,442.8-69.3,442.8z"/>
			</defs>
			<clipPath id="SVGID_8_">
				<use xlink:href="#SVGID_7_"  style="overflow:visible;"/>
			</clipPath>
			<g class="st10">
				
					<rect x="-123.9" y="446.8" transform="matrix(0.7071 -0.7071 0.7071 0.7071 -339.5178 82.4202)" class="st0" width="107.3" height="8.5"/>
				
					<rect x="-118" y="452.7" transform="matrix(0.7071 -0.7071 0.7071 0.7071 -341.9685 88.3366)" class="st6" width="107.3" height="8.5"/>
				
					<rect x="-112.1" y="458.6" transform="matrix(0.7071 -0.7071 0.7071 0.7071 -344.4191 94.253)" class="st5" width="107.3" height="8.5"/>
			</g>
		</g>
	</g>
</g>
<g>
	<g>
		<g>
			<g>
				<path class="st2" d="M897.6,846.2l-12.9-5.6c0,0,0-25,0-25.1c0-4.5-3.7-8.2-8.2-8.2c-4.5,0-8.2,3.7-8.2,8.2l0,18l-12.5-5.4
					c0,0-0.1-12.5-0.1-12.9c0-11.6,9.4-21,21-21c11.6,0,21,9.4,21,21C897.6,815.4,897.6,846.2,897.6,846.2z"/>
			</g>
		</g>
		<g>
			<g>
				<path class="st2" d="M891.7,853.1c-0.4-0.1-0.8-0.2-1.1-0.4l-34.5-16.9c-1.3-0.6-1.6-1.7-0.8-2.4c0.8-0.7,2.5-0.8,3.8-0.1
					l34.5,16.9c1.3,0.6,1.6,1.7,0.8,2.4C893.8,853.1,892.7,853.3,891.7,853.1z"/>
			</g>
			<g>
				<path class="st2" d="M878.6,855.2c-0.4-0.1-0.8-0.2-1.1-0.4l-25.8-12.6c-1.3-0.6-1.6-1.7-0.8-2.4c0.8-0.7,2.5-0.8,3.8-0.1
					l25.8,12.6c1.3,0.6,1.6,1.7,0.8,2.4C880.6,855.2,879.6,855.3,878.6,855.2z"/>
			</g>
			<g>
				<path class="st2" d="M873.8,861.3c-0.4-0.1-0.8-0.2-1.1-0.4l-16.6-8.1c-1.3-0.6-1.6-1.7-0.8-2.4c0.8-0.7,2.5-0.8,3.8-0.1
					l16.6,8.1c1.3,0.6,1.6,1.7,0.8,2.4C875.8,861.3,874.8,861.5,873.8,861.3z"/>
			</g>
			<g>
				<path class="st2" d="M858.2,862.2c-0.4-0.1-0.8-0.2-1.1-0.4l-5.6-2.7c-1.3-0.6-1.6-1.7-0.8-2.4c0.8-0.7,2.5-0.8,3.8-0.1l5.6,2.7
					c1.3,0.6,1.6,1.7,0.8,2.4C860.2,862.2,859.2,862.3,858.2,862.2z"/>
			</g>
		</g>
	</g>
	<g>
		<path class="st2" d="M963.4,810h6.7l15.9,36.6h-9.1l-3.2-7.8h-14.2l-3,7.8h-8.9L963.4,810z M966.5,820.7L962,832h8.9L966.5,820.7z
			"/>
		<g>
			<defs>
				<path id="SVGID_9_" d="M963.4,810h6.7l15.9,36.6h-9.1l-3.2-7.8h-14.2l-3,7.8h-8.9L963.4,810z M966.5,820.7L962,832h8.9
					L966.5,820.7z"/>
			</defs>
			<use xlink:href="#SVGID_9_"  style="overflow:visible;fill:#FFFFFF;"/>
			<clipPath id="SVGID_10_">
				<use xlink:href="#SVGID_9_"  style="overflow:visible;"/>
			</clipPath>
			<g class="st11">
				
					<rect x="926" y="833.3" transform="matrix(0.7071 -0.7071 0.7071 0.7071 -307.4396 931.5919)" class="st2" width="89.6" height="7.1"/>
				
					<rect x="930.9" y="838.3" transform="matrix(0.7071 -0.7071 0.7071 0.7071 -309.4857 936.5317)" class="st2" width="89.6" height="7.1"/>
				
					<rect x="935.9" y="843.2" transform="matrix(0.7071 -0.7071 0.7071 0.7071 -311.5318 941.4714)" class="st2" width="89.6" height="7.1"/>
			</g>
		</g>
		<path class="st2" d="M989.2,809.9h11l15.6,25.5h0.1v-25.5h8.1v36.7h-10.6l-16-26.1h-0.1v26.1h-8.1V809.9z"/>
		<path class="st2" d="M1053.5,842.3c-1.2,1.6-2.8,2.8-4.7,3.6c-1.9,0.9-3.8,1.3-5.8,1.3c-1.9,0-3.7-0.3-5.4-0.9
			c-1.7-0.6-3.2-1.5-4.4-2.6c-1.2-1.1-2.2-2.5-2.9-4.1c-0.7-1.6-1.1-3.4-1.1-5.4c0-2,0.4-3.8,1.1-5.4c0.7-1.6,1.7-3,2.9-4.1
			c1.2-1.1,2.7-2,4.4-2.6c1.7-0.6,3.5-0.9,5.4-0.9c1.8,0,3.4,0.3,4.8,0.9c1.4,0.6,2.7,1.5,3.7,2.6c1,1.1,1.8,2.5,2.3,4.1
			c0.5,1.6,0.8,3.4,0.8,5.4v2.4h-17.8c0.3,1.5,1,2.6,2,3.5c1,0.9,2.3,1.3,3.8,1.3c1.3,0,2.3-0.3,3.2-0.8c0.9-0.6,1.6-1.3,2.3-2.2
			L1053.5,842.3z M1047,831.4c0-1.3-0.4-2.4-1.3-3.3c-0.9-0.9-2-1.4-3.4-1.4c-0.9,0-1.6,0.1-2.3,0.4c-0.6,0.3-1.2,0.6-1.7,1
			c-0.5,0.4-0.8,0.9-1.1,1.5s-0.4,1.2-0.4,1.8H1047z"/>
		<path class="st2" d="M1056.3,821.8h8.2l5.1,15.6h0.1l4.2-15.6h8.4l4.6,15.6h0.1l4.7-15.6h7.8l-8.9,24.9h-7.6l-5.2-16.5h-0.1
			l-4.6,16.5h-7.7L1056.3,821.8z"/>
		<path class="st2" d="M1116,829.1c-1.1-1.4-2.6-2.1-4.5-2.1c-0.6,0-1.3,0.2-1.9,0.5c-0.6,0.3-0.9,0.8-0.9,1.6
			c0,0.6,0.3,1.1,0.9,1.4c0.6,0.3,1.4,0.5,2.4,0.8c1,0.2,2,0.5,3.1,0.7c1.1,0.3,2.1,0.7,3.1,1.2c1,0.5,1.8,1.3,2.4,2.2
			c0.6,0.9,0.9,2.2,0.9,3.8c0,1.6-0.4,2.9-1,4c-0.7,1-1.6,1.9-2.7,2.5c-1.1,0.6-2.3,1.1-3.7,1.3c-1.4,0.3-2.7,0.4-4,0.4
			c-1.7,0-3.5-0.2-5.3-0.7c-1.8-0.5-3.3-1.4-4.5-2.6l4.7-5.2c0.7,0.9,1.5,1.6,2.4,2c0.9,0.5,1.9,0.7,3,0.7c0.9,0,1.7-0.1,2.4-0.4
			c0.7-0.3,1.1-0.7,1.1-1.4c0-0.6-0.3-1.1-0.9-1.5c-0.6-0.3-1.4-0.6-2.4-0.8c-1-0.2-2-0.5-3.1-0.7c-1.1-0.3-2.1-0.6-3.1-1.2
			c-1-0.5-1.8-1.2-2.4-2.2c-0.6-0.9-0.9-2.2-0.9-3.8c0-1.5,0.3-2.7,0.9-3.8c0.6-1.1,1.4-1.9,2.4-2.6c1-0.7,2.1-1.2,3.4-1.5
			c1.3-0.3,2.5-0.5,3.8-0.5c1.6,0,3.3,0.2,5,0.7c1.7,0.5,3.1,1.3,4.2,2.6L1116,829.1z"/>
		<polygon class="st2" points="926.8,825.7 926.8,817 926.8,810.1 918.9,810.1 918.9,846.7 926.8,846.7 926.8,841.9 926.8,832.4 		
			"/>
		<path class="st2" d="M940.6,810.1c-0.2,0-0.3,0-0.5,0c-0.3,0-0.5,0-0.8,0h-7.8l-1,6.9h9.7c0.1,0,0.1,0,0.2,0c2.4,0,4.4,2,4.4,4.4
			c0,2.4-2,4.4-4.4,4.4l-10,0c0,0,0,0,0,0h-1.2l-1,6.6H940c0.2,0,0.4,0,0.6,0c6.2,0,11.2-5,11.2-11.2
			C951.8,815.1,946.8,810.1,940.6,810.1z"/>
		<g>
			<defs>
				<path id="SVGID_11_" d="M940.6,810.1c-0.2,0-0.3,0-0.5,0c-0.3,0-0.5,0-0.8,0h-7.8l-1,6.9h9.7c0.1,0,0.1,0,0.2,0
					c2.4,0,4.4,2,4.4,4.4c0,2.4-2,4.4-4.4,4.4l-10,0c0,0,0,0,0,0h-1.2l-1,6.6H940c0.2,0,0.4,0,0.6,0c6.2,0,11.2-5,11.2-11.2
					C951.8,815.1,946.8,810.1,940.6,810.1z"/>
			</defs>
			<use xlink:href="#SVGID_11_"  style="overflow:visible;fill:#FFFFFF;"/>
			<clipPath id="SVGID_12_">
				<use xlink:href="#SVGID_11_"  style="overflow:visible;"/>
			</clipPath>
			<g class="st12">
				
					<rect x="899.6" y="813.1" transform="matrix(0.7071 -0.7071 0.7071 0.7071 -301.9142 903.6844)" class="st2" width="80.6" height="6.4"/>
				
					<rect x="904" y="817.5" transform="matrix(0.7071 -0.7071 0.7071 0.7071 -303.7543 908.1267)" class="st2" width="80.6" height="6.4"/>
				
					<rect x="908.5" y="822" transform="matrix(0.7071 -0.7071 0.7071 0.7071 -305.5944 912.569)" class="st2" width="80.6" height="6.4"/>
			</g>
		</g>
	</g>
</g>
<g>
	<g>
		<path class="st0" d="M98.4,216.4h4.4l10.4,23.9h-5.9l-2.1-5.1h-9.3l-2,5.1h-5.8L98.4,216.4z M100.4,223.4l-2.9,7.4h5.8
			L100.4,223.4z"/>
		<g>
			<defs>
				<path id="SVGID_13_" d="M98.4,216.4h4.4l10.4,23.9h-5.9l-2.1-5.1h-9.3l-2,5.1h-5.8L98.4,216.4z M100.4,223.4l-2.9,7.4h5.8
					L100.4,223.4z"/>
			</defs>
			<clipPath id="SVGID_14_">
				<use xlink:href="#SVGID_13_"  style="overflow:visible;"/>
			</clipPath>
			<g class="st13">
				
					<rect x="74" y="231.7" transform="matrix(0.7071 -0.7071 0.7071 0.7071 -135.2261 141.5462)" class="st0" width="58.6" height="4.7"/>
				
					<rect x="77.2" y="234.9" transform="matrix(0.7071 -0.7071 0.7071 0.7071 -136.5631 144.774)" class="st6" width="58.6" height="4.7"/>
				
					<rect x="80.4" y="238.1" transform="matrix(0.7071 -0.7071 0.7071 0.7071 -137.9001 148.0017)" class="st5" width="58.6" height="4.7"/>
			</g>
		</g>
		<path class="st0" d="M115.3,216.4h7.2l10.2,16.7h0.1v-16.7h5.3v24h-6.9l-10.5-17.1h-0.1v17.1h-5.3V216.4z"/>
		<path class="st0" d="M157.3,237.5c-0.8,1-1.8,1.8-3,2.4c-1.2,0.6-2.5,0.8-3.8,0.8c-1.2,0-2.4-0.2-3.5-0.6c-1.1-0.4-2.1-1-2.9-1.7
			c-0.8-0.7-1.5-1.6-1.9-2.7c-0.5-1-0.7-2.2-0.7-3.5c0-1.3,0.2-2.5,0.7-3.5c0.5-1,1.1-1.9,1.9-2.7c0.8-0.7,1.8-1.3,2.9-1.7
			c1.1-0.4,2.3-0.6,3.5-0.6c1.2,0,2.2,0.2,3.2,0.6c0.9,0.4,1.7,1,2.4,1.7c0.7,0.7,1.2,1.6,1.5,2.7c0.4,1,0.5,2.2,0.5,3.5v1.6h-11.6
			c0.2,1,0.6,1.7,1.3,2.3c0.7,0.6,1.5,0.9,2.5,0.9c0.8,0,1.5-0.2,2.1-0.6c0.6-0.4,1.1-0.8,1.5-1.4L157.3,237.5z M153,230.4
			c0-0.8-0.3-1.6-0.8-2.2c-0.6-0.6-1.3-0.9-2.2-0.9c-0.6,0-1,0.1-1.5,0.3c-0.4,0.2-0.8,0.4-1.1,0.7c-0.3,0.3-0.5,0.6-0.7,1
			c-0.2,0.4-0.3,0.8-0.3,1.2H153z"/>
		<path class="st0" d="M159.1,224.1h5.3l3.3,10.2h0.1l2.8-10.2h5.5l3,10.2h0.1l3-10.2h5.1l-5.8,16.2h-4.9l-3.4-10.8h-0.1l-3,10.8h-5
			L159.1,224.1z"/>
		<path class="st0" d="M198.1,228.9c-0.7-0.9-1.7-1.4-2.9-1.4c-0.4,0-0.8,0.1-1.2,0.3c-0.4,0.2-0.6,0.5-0.6,1c0,0.4,0.2,0.7,0.6,0.9
			c0.4,0.2,0.9,0.4,1.6,0.5c0.6,0.1,1.3,0.3,2,0.5c0.7,0.2,1.4,0.4,2,0.8c0.6,0.4,1.2,0.8,1.6,1.5c0.4,0.6,0.6,1.4,0.6,2.5
			c0,1-0.2,1.9-0.7,2.6c-0.5,0.7-1,1.2-1.8,1.6c-0.7,0.4-1.5,0.7-2.4,0.9c-0.9,0.2-1.8,0.3-2.6,0.3c-1.1,0-2.3-0.2-3.4-0.5
			c-1.2-0.3-2.1-0.9-2.9-1.7l3-3.4c0.5,0.6,1,1,1.6,1.3c0.6,0.3,1.2,0.5,2,0.5c0.6,0,1.1-0.1,1.6-0.3c0.5-0.2,0.7-0.5,0.7-0.9
			c0-0.4-0.2-0.7-0.6-1c-0.4-0.2-0.9-0.4-1.6-0.5c-0.6-0.1-1.3-0.3-2-0.5c-0.7-0.2-1.4-0.4-2-0.8c-0.6-0.3-1.2-0.8-1.6-1.4
			c-0.4-0.6-0.6-1.4-0.6-2.5c0-1,0.2-1.8,0.6-2.5c0.4-0.7,0.9-1.3,1.5-1.7c0.6-0.4,1.4-0.8,2.2-1c0.8-0.2,1.7-0.3,2.5-0.3
			c1.1,0,2.2,0.2,3.2,0.5c1.1,0.3,2,0.9,2.8,1.7L198.1,228.9z"/>
		<polygon class="st0" points="74.5,226.7 74.5,221 74.5,216.5 69.3,216.5 69.3,240.4 74.5,240.4 74.5,237.3 74.5,231 		"/>
		<path class="st0" d="M83.5,216.5c-0.1,0-0.2,0-0.3,0c-0.2,0-0.3,0-0.5,0h-5.1l-0.7,4.5h6.4c0,0,0.1,0,0.1,0c1.6,0,2.9,1.3,2.9,2.9
			c0,1.6-1.3,2.9-2.9,2.9l-6.6,0c0,0,0,0,0,0h-0.8l-0.6,4.3h7.7c0.1,0,0.3,0,0.4,0c4,0,7.3-3.3,7.3-7.3
			C90.8,219.7,87.6,216.5,83.5,216.5z"/>
		<g>
			<defs>
				<path id="SVGID_15_" d="M83.5,216.5c-0.1,0-0.2,0-0.3,0c-0.2,0-0.3,0-0.5,0h-5.1l-0.7,4.5h6.4c0,0,0.1,0,0.1,0
					c1.6,0,2.9,1.3,2.9,2.9c0,1.6-1.3,2.9-2.9,2.9l-6.6,0c0,0,0,0,0,0h-0.8l-0.6,4.3h7.7c0.1,0,0.3,0,0.4,0c4,0,7.3-3.3,7.3-7.3
					C90.8,219.7,87.6,216.5,83.5,216.5z"/>
			</defs>
			<clipPath id="SVGID_16_">
				<use xlink:href="#SVGID_15_"  style="overflow:visible;"/>
			</clipPath>
			<g class="st14">
				
					<rect x="56.7" y="218.4" transform="matrix(0.7071 -0.7071 0.7071 0.7071 -131.6157 123.3108)" class="st0" width="52.7" height="4.2"/>
				
					<rect x="59.6" y="221.3" transform="matrix(0.7071 -0.7071 0.7071 0.7071 -132.818 126.2135)" class="st6" width="52.7" height="4.2"/>
				
					<rect x="62.5" y="224.2" transform="matrix(0.7071 -0.7071 0.7071 0.7071 -134.0204 129.1162)" class="st5" width="52.7" height="4.2"/>
			</g>
		</g>
	</g>
	<g>
		<g>
			<g>
				<path class="st0" d="M178.1,163.8l-26.3-11.4c0,0,0-50.8,0-51c0-9.2-7.5-16.6-16.6-16.6c-9.2,0-16.6,7.5-16.6,16.6l0,36.5
					l-25.3-11c0,0-0.1-25.4-0.1-26.2c0-23.5,19-42.5,42.5-42.5c23.5,0,42.5,19,42.5,42.5C178.1,101.2,178.1,163.8,178.1,163.8z"/>
			</g>
		</g>
		<g>
			<g>
				<path class="st5" d="M165.4,177.7c-0.8-0.1-1.6-0.4-2.3-0.7L93,142.7c-2.6-1.3-3.3-3.4-1.7-4.9c1.7-1.4,5.1-1.5,7.7-0.3
					l70.1,34.3c2.6,1.3,3.3,3.4,1.7,4.9C169.6,177.7,167.5,178.1,165.4,177.7z"/>
			</g>
			<g>
				<path class="st0" d="M138.8,181.9c-0.8-0.1-1.6-0.4-2.3-0.7l-52.3-25.6c-2.6-1.3-3.3-3.4-1.7-4.9c1.7-1.4,5.1-1.5,7.7-0.3
					l52.3,25.6c2.6,1.3,3.3,3.4,1.7,4.9C143,181.9,140.8,182.3,138.8,181.9z"/>
			</g>
			<g>
				<path class="st6" d="M129,194.4c-0.8-0.1-1.6-0.4-2.3-0.7L93,177.2c-2.6-1.3-3.3-3.4-1.7-4.9c1.7-1.4,5.1-1.5,7.7-0.3l33.7,16.5
					c2.6,1.3,3.3,3.4,1.7,4.9C133.2,194.4,131.1,194.8,129,194.4z"/>
			</g>
			<g>
				<path class="st0" d="M97.3,196.2c-0.8-0.1-1.6-0.4-2.3-0.7l-11.4-5.6c-2.6-1.3-3.3-3.5-1.7-4.9c1.7-1.4,5.1-1.5,7.7-0.3
					l11.4,5.6c2.6,1.3,3.3,3.5,1.7,4.9C101.5,196.2,99.3,196.5,97.3,196.2z"/>
			</g>
		</g>
	</g>
</g>
<g>
	<g>
		<path class="st2" d="M569.1,591.8h4.4l10.4,23.9H578l-2.1-5.1h-9.3l-2,5.1h-5.8L569.1,591.8z M571.2,598.8l-2.9,7.4h5.8
			L571.2,598.8z"/>
		<g>
			<defs>
				<path id="SVGID_17_" d="M569.1,591.8h4.4l10.4,23.9H578l-2.1-5.1h-9.3l-2,5.1h-5.8L569.1,591.8z M571.2,598.8l-2.9,7.4h5.8
					L571.2,598.8z"/>
			</defs>
			<clipPath id="SVGID_18_">
				<use xlink:href="#SVGID_17_"  style="overflow:visible;"/>
			</clipPath>
			<g class="st15">
				
					<rect x="544.7" y="607.1" transform="matrix(0.7071 -0.7071 0.7071 0.7071 -262.7988 584.3615)" class="st2" width="58.6" height="4.7"/>
				
					<rect x="547.9" y="610.3" transform="matrix(0.7071 -0.7071 0.7071 0.7071 -264.1357 587.5892)" class="st6" width="58.6" height="4.7"/>
				
					<rect x="551.2" y="613.5" transform="matrix(0.7071 -0.7071 0.7071 0.7071 -265.4727 590.8169)" class="st5" width="58.6" height="4.7"/>
			</g>
		</g>
		<path class="st2" d="M586,591.8h7.2l10.2,16.7h0.1v-16.7h5.3v24h-6.9l-10.5-17.1h-0.1v17.1H586V591.8z"/>
		<path class="st2" d="M628,612.9c-0.8,1-1.8,1.8-3,2.4c-1.2,0.6-2.5,0.8-3.8,0.8c-1.2,0-2.4-0.2-3.5-0.6c-1.1-0.4-2.1-1-2.9-1.7
			c-0.8-0.7-1.5-1.6-1.9-2.7c-0.5-1-0.7-2.2-0.7-3.5c0-1.3,0.2-2.5,0.7-3.5c0.5-1,1.1-1.9,1.9-2.7c0.8-0.7,1.8-1.3,2.9-1.7
			c1.1-0.4,2.3-0.6,3.5-0.6c1.2,0,2.2,0.2,3.2,0.6c0.9,0.4,1.7,1,2.4,1.7c0.7,0.7,1.2,1.6,1.5,2.7c0.4,1,0.5,2.2,0.5,3.5v1.6h-11.6
			c0.2,1,0.6,1.7,1.3,2.3c0.7,0.6,1.5,0.9,2.5,0.9c0.8,0,1.5-0.2,2.1-0.6c0.6-0.4,1.1-0.8,1.5-1.4L628,612.9z M623.8,605.8
			c0-0.8-0.3-1.6-0.8-2.2c-0.6-0.6-1.3-0.9-2.2-0.9c-0.6,0-1,0.1-1.5,0.3c-0.4,0.2-0.8,0.4-1.1,0.7c-0.3,0.3-0.5,0.6-0.7,1
			c-0.2,0.4-0.3,0.8-0.3,1.2H623.8z"/>
		<path class="st2" d="M629.9,599.5h5.3l3.3,10.2h0.1l2.8-10.2h5.5l3,10.2h0.1l3-10.2h5.1l-5.8,16.2h-4.9l-3.4-10.8h-0.1l-3,10.8h-5
			L629.9,599.5z"/>
		<path class="st2" d="M668.8,604.3c-0.7-0.9-1.7-1.4-2.9-1.4c-0.4,0-0.8,0.1-1.2,0.3c-0.4,0.2-0.6,0.5-0.6,1c0,0.4,0.2,0.7,0.6,0.9
			c0.4,0.2,0.9,0.4,1.6,0.5c0.6,0.1,1.3,0.3,2,0.5c0.7,0.2,1.4,0.4,2,0.8c0.6,0.4,1.2,0.8,1.6,1.5c0.4,0.6,0.6,1.4,0.6,2.5
			c0,1-0.2,1.9-0.7,2.6c-0.5,0.7-1,1.2-1.8,1.6c-0.7,0.4-1.5,0.7-2.4,0.9c-0.9,0.2-1.8,0.3-2.6,0.3c-1.1,0-2.3-0.2-3.4-0.5
			c-1.2-0.3-2.1-0.9-2.9-1.7l3-3.4c0.5,0.6,1,1,1.6,1.3c0.6,0.3,1.2,0.5,2,0.5c0.6,0,1.1-0.1,1.6-0.3c0.5-0.2,0.7-0.5,0.7-0.9
			c0-0.4-0.2-0.7-0.6-1c-0.4-0.2-0.9-0.4-1.6-0.5c-0.6-0.1-1.3-0.3-2-0.5c-0.7-0.2-1.4-0.4-2-0.8c-0.6-0.3-1.2-0.8-1.6-1.4
			c-0.4-0.6-0.6-1.4-0.6-2.5c0-1,0.2-1.8,0.6-2.5c0.4-0.7,0.9-1.3,1.5-1.7c0.6-0.4,1.4-0.8,2.2-1c0.8-0.2,1.7-0.3,2.5-0.3
			c1.1,0,2.2,0.2,3.2,0.5c1.1,0.3,2,0.9,2.8,1.7L668.8,604.3z"/>
		<polygon class="st2" points="545.2,602.1 545.2,596.4 545.2,591.9 540.1,591.9 540.1,615.8 545.2,615.8 545.2,612.7 545.2,606.4 
					"/>
		<path class="st2" d="M554.3,591.9c-0.1,0-0.2,0-0.3,0c-0.2,0-0.3,0-0.5,0h-5.1l-0.7,4.5h6.4c0,0,0.1,0,0.1,0
			c1.6,0,2.9,1.3,2.9,2.9s-1.3,2.9-2.9,2.9l-6.6,0c0,0,0,0,0,0h-0.8l-0.6,4.3h7.7c0.1,0,0.3,0,0.4,0c4,0,7.3-3.3,7.3-7.3
			C561.6,595.1,558.3,591.9,554.3,591.9z"/>
		<g>
			<defs>
				<path id="SVGID_19_" d="M554.3,591.9c-0.1,0-0.2,0-0.3,0c-0.2,0-0.3,0-0.5,0h-5.1l-0.7,4.5h6.4c0,0,0.1,0,0.1,0
					c1.6,0,2.9,1.3,2.9,2.9s-1.3,2.9-2.9,2.9l-6.6,0c0,0,0,0,0,0h-0.8l-0.6,4.3h7.7c0.1,0,0.3,0,0.4,0c4,0,7.3-3.3,7.3-7.3
					C561.6,595.1,558.3,591.9,554.3,591.9z"/>
			</defs>
			<clipPath id="SVGID_20_">
				<use xlink:href="#SVGID_19_"  style="overflow:visible;"/>
			</clipPath>
			<g class="st16">
				
					<rect x="527.5" y="593.8" transform="matrix(0.7071 -0.7071 0.7071 0.7071 -259.1884 566.126)" class="st2" width="52.7" height="4.2"/>
				
					<rect x="530.4" y="596.7" transform="matrix(0.7071 -0.7071 0.7071 0.7071 -260.3907 569.0287)" class="st6" width="52.7" height="4.2"/>
				
					<rect x="533.3" y="599.6" transform="matrix(0.7071 -0.7071 0.7071 0.7071 -261.593 571.9315)" class="st5" width="52.7" height="4.2"/>
			</g>
		</g>
	</g>
	<g>
		<g>
			<g>
				<path class="st2" d="M648.8,539.2l-26.3-11.4c0,0,0-50.8,0-51c0-9.2-7.5-16.6-16.6-16.6c-9.2,0-16.6,7.5-16.6,16.6l0,36.5
					l-25.3-11c0,0-0.1-25.4-0.1-26.2c0-23.5,19-42.5,42.5-42.5c23.5,0,42.5,19,42.5,42.5C648.9,476.6,648.8,539.2,648.8,539.2z"/>
			</g>
		</g>
		<g>
			<g>
				<path class="st5" d="M636.2,553.1c-0.8-0.1-1.6-0.4-2.3-0.7l-70.1-34.3c-2.6-1.3-3.3-3.4-1.7-4.9c1.7-1.4,5.1-1.5,7.7-0.3
					l70.1,34.3c2.6,1.3,3.3,3.4,1.7,4.9C640.3,553.1,638.2,553.5,636.2,553.1z"/>
			</g>
			<g>
				<path class="st2" d="M609.5,557.3c-0.8-0.1-1.6-0.4-2.3-0.7L554.9,531c-2.6-1.3-3.3-3.4-1.7-4.9c1.7-1.4,5.1-1.5,7.7-0.3
					l52.3,25.6c2.6,1.3,3.3,3.4,1.7,4.9C613.7,557.3,611.6,557.7,609.5,557.3z"/>
			</g>
			<g>
				<path class="st6" d="M599.7,569.8c-0.8-0.1-1.6-0.4-2.3-0.7l-33.7-16.5c-2.6-1.3-3.3-3.4-1.7-4.9c1.7-1.4,5.1-1.5,7.7-0.3
					l33.7,16.5c2.6,1.3,3.3,3.4,1.7,4.9C603.9,569.8,601.8,570.2,599.7,569.8z"/>
			</g>
			<g>
				<path class="st2" d="M568,571.6c-0.8-0.1-1.6-0.4-2.3-0.7l-11.4-5.6c-2.6-1.3-3.3-3.5-1.7-4.9c1.7-1.4,5.1-1.5,7.7-0.3l11.4,5.6
					c2.6,1.3,3.3,3.5,1.7,4.9C572.2,571.6,570.1,571.9,568,571.6z"/>
			</g>
		</g>
	</g>
</g>
<g>
	<g>
		<path class="st2" d="M565.7,895.2h4.4l10.4,23.9h-5.9l-2.1-5.1h-9.3l-2,5.1h-5.8L565.7,895.2z M567.7,902.2l-2.9,7.4h5.8
			L567.7,902.2z"/>
		<g>
			<defs>
				<path id="SVGID_21_" d="M565.7,895.2h4.4l10.4,23.9h-5.9l-2.1-5.1h-9.3l-2,5.1h-5.8L565.7,895.2z M567.7,902.2l-2.9,7.4h5.8
					L567.7,902.2z"/>
			</defs>
			<use xlink:href="#SVGID_21_"  style="overflow:visible;fill:#FFFFFF;"/>
			<clipPath id="SVGID_22_">
				<use xlink:href="#SVGID_21_"  style="overflow:visible;"/>
			</clipPath>
			<g class="st17">
				
					<rect x="541.2" y="910.5" transform="matrix(0.7071 -0.7071 0.7071 0.7071 -478.3464 670.7653)" class="st2" width="58.6" height="4.7"/>
				
					<rect x="544.5" y="913.7" transform="matrix(0.7071 -0.7071 0.7071 0.7071 -479.6834 673.993)" class="st2" width="58.6" height="4.7"/>
				
					<rect x="547.7" y="916.9" transform="matrix(0.7071 -0.7071 0.7071 0.7071 -481.0204 677.2207)" class="st2" width="58.6" height="4.7"/>
			</g>
		</g>
		<path class="st2" d="M582.5,895.2h7.2l10.2,16.7h0.1v-16.7h5.3v24h-6.9l-10.5-17.1h-0.1v17.1h-5.3V895.2z"/>
		<path class="st2" d="M624.5,916.3c-0.8,1-1.8,1.8-3,2.4c-1.2,0.6-2.5,0.8-3.8,0.8c-1.2,0-2.4-0.2-3.5-0.6c-1.1-0.4-2.1-1-2.9-1.7
			c-0.8-0.7-1.5-1.6-1.9-2.7c-0.5-1-0.7-2.2-0.7-3.5c0-1.3,0.2-2.5,0.7-3.5c0.5-1,1.1-1.9,1.9-2.7c0.8-0.7,1.8-1.3,2.9-1.7
			c1.1-0.4,2.3-0.6,3.5-0.6c1.2,0,2.2,0.2,3.2,0.6c0.9,0.4,1.7,1,2.4,1.7c0.7,0.7,1.2,1.6,1.5,2.7c0.4,1,0.5,2.2,0.5,3.5v1.6h-11.6
			c0.2,1,0.6,1.7,1.3,2.3c0.7,0.6,1.5,0.9,2.5,0.9c0.8,0,1.5-0.2,2.1-0.6c0.6-0.4,1.1-0.8,1.5-1.4L624.5,916.3z M620.3,909.2
			c0-0.8-0.3-1.6-0.8-2.2c-0.6-0.6-1.3-0.9-2.2-0.9c-0.6,0-1,0.1-1.5,0.3c-0.4,0.2-0.8,0.4-1.1,0.7c-0.3,0.3-0.5,0.6-0.7,1
			c-0.2,0.4-0.3,0.8-0.3,1.2H620.3z"/>
		<path class="st2" d="M626.4,902.9h5.3l3.3,10.2h0.1l2.8-10.2h5.5l3,10.2h0.1l3-10.2h5.1l-5.8,16.2h-4.9l-3.4-10.8h-0.1l-3,10.8h-5
			L626.4,902.9z"/>
		<path class="st2" d="M665.4,907.7c-0.7-0.9-1.7-1.4-2.9-1.4c-0.4,0-0.8,0.1-1.2,0.3c-0.4,0.2-0.6,0.5-0.6,1c0,0.4,0.2,0.7,0.6,0.9
			c0.4,0.2,0.9,0.4,1.6,0.5c0.6,0.1,1.3,0.3,2,0.5c0.7,0.2,1.4,0.4,2,0.8c0.6,0.4,1.2,0.8,1.6,1.5c0.4,0.6,0.6,1.4,0.6,2.5
			c0,1-0.2,1.9-0.7,2.6c-0.5,0.7-1,1.2-1.8,1.6c-0.7,0.4-1.5,0.7-2.4,0.9c-0.9,0.2-1.8,0.3-2.6,0.3c-1.1,0-2.3-0.2-3.4-0.5
			c-1.2-0.3-2.1-0.9-2.9-1.7l3-3.4c0.5,0.6,1,1,1.6,1.3c0.6,0.3,1.2,0.5,2,0.5c0.6,0,1.1-0.1,1.6-0.3c0.5-0.2,0.7-0.5,0.7-0.9
			c0-0.4-0.2-0.7-0.6-1c-0.4-0.2-0.9-0.4-1.6-0.5c-0.6-0.1-1.3-0.3-2-0.5c-0.7-0.2-1.4-0.4-2-0.8c-0.6-0.3-1.2-0.8-1.6-1.4
			c-0.4-0.6-0.6-1.4-0.6-2.5c0-1,0.2-1.8,0.6-2.5c0.4-0.7,0.9-1.3,1.5-1.7c0.6-0.4,1.4-0.8,2.2-1c0.8-0.2,1.7-0.3,2.5-0.3
			c1.1,0,2.2,0.2,3.2,0.5c1.1,0.3,2,0.9,2.8,1.7L665.4,907.7z"/>
		<polygon class="st2" points="541.8,905.5 541.8,899.8 541.8,895.3 536.6,895.3 536.6,919.2 541.8,919.2 541.8,916 541.8,909.8 		
			"/>
		<path class="st2" d="M550.8,895.3c-0.1,0-0.2,0-0.3,0c-0.2,0-0.3,0-0.5,0h-5.1l-0.7,4.5h6.4c0,0,0.1,0,0.1,0
			c1.6,0,2.9,1.3,2.9,2.9s-1.3,2.9-2.9,2.9l-6.6,0c0,0,0,0,0,0h-0.8l-0.6,4.3h7.7c0.1,0,0.3,0,0.4,0c4,0,7.3-3.3,7.3-7.3
			C558.1,898.5,554.8,895.3,550.8,895.3z"/>
		<g>
			<defs>
				<path id="SVGID_23_" d="M550.8,895.3c-0.1,0-0.2,0-0.3,0c-0.2,0-0.3,0-0.5,0h-5.1l-0.7,4.5h6.4c0,0,0.1,0,0.1,0
					c1.6,0,2.9,1.3,2.9,2.9s-1.3,2.9-2.9,2.9l-6.6,0c0,0,0,0,0,0h-0.8l-0.6,4.3h7.7c0.1,0,0.3,0,0.4,0c4,0,7.3-3.3,7.3-7.3
					C558.1,898.5,554.8,895.3,550.8,895.3z"/>
			</defs>
			<use xlink:href="#SVGID_23_"  style="overflow:visible;fill:#FFFFFF;"/>
			<clipPath id="SVGID_24_">
				<use xlink:href="#SVGID_23_"  style="overflow:visible;"/>
			</clipPath>
			<g class="st18">
				
					<rect x="524" y="897.2" transform="matrix(0.7071 -0.7071 0.7071 0.7071 -474.736 652.5298)" class="st2" width="52.7" height="4.2"/>
				
					<rect x="526.9" y="900.1" transform="matrix(0.7071 -0.7071 0.7071 0.7071 -475.9384 655.4326)" class="st2" width="52.7" height="4.2"/>
				
					<rect x="529.8" y="903" transform="matrix(0.7071 -0.7071 0.7071 0.7071 -477.1407 658.3353)" class="st2" width="52.7" height="4.2"/>
			</g>
		</g>
	</g>
	<g>
		<g>
			<g>
				<path class="st2" d="M645.3,842.5L619,831.1c0,0,0-50.8,0-51c0-9.2-7.5-16.6-16.6-16.6c-9.2,0-16.6,7.5-16.6,16.6l0,36.5
					l-25.3-11c0,0-0.1-25.4-0.1-26.2c0-23.5,19-42.5,42.5-42.5c23.5,0,42.5,19,42.5,42.5C645.4,780,645.3,842.5,645.3,842.5z"/>
			</g>
		</g>
		<g>
			<g>
				<path class="st2" d="M632.7,856.5c-0.8-0.1-1.6-0.4-2.3-0.7l-70.1-34.3c-2.6-1.3-3.3-3.4-1.7-4.9c1.7-1.4,5.1-1.5,7.7-0.3
					l70.1,34.3c2.6,1.3,3.3,3.4,1.7,4.9C636.9,856.5,634.8,856.9,632.7,856.5z"/>
			</g>
			<g>
				<path class="st2" d="M606,860.7c-0.8-0.1-1.6-0.4-2.3-0.7l-52.3-25.6c-2.6-1.3-3.3-3.4-1.7-4.9c1.7-1.4,5.1-1.5,7.7-0.3
					l52.3,25.6c2.6,1.3,3.3,3.4,1.7,4.9C610.2,860.7,608.1,861.1,606,860.7z"/>
			</g>
			<g>
				<path class="st2" d="M596.3,873.2c-0.8-0.1-1.6-0.4-2.3-0.7L560.2,856c-2.6-1.3-3.3-3.4-1.7-4.9c1.7-1.4,5.1-1.5,7.7-0.3
					l33.7,16.5c2.6,1.3,3.3,3.4,1.7,4.9C600.4,873.2,598.3,873.6,596.3,873.2z"/>
			</g>
			<g>
				<path class="st2" d="M564.5,874.9c-0.8-0.1-1.6-0.4-2.3-0.7l-11.4-5.6c-2.6-1.3-3.3-3.5-1.7-4.9c1.7-1.4,5.1-1.5,7.7-0.3
					l11.4,5.6c2.6,1.3,3.3,3.5,1.7,4.9C568.7,875,566.6,875.3,564.5,874.9z"/>
			</g>
		</g>
	</g>
</g>
</svg>
