<?xml version="1.0" encoding="UTF-8"?>
<svg id="_图层_2" data-name="图层 2" xmlns="http://www.w3.org/2000/svg" viewBox="0 0 502.05 110">
  <defs>
    <style>
      .cls-1 {
        fill: #0000c9;
      }
    </style>
  </defs>
  <g id="_图层_1-2" data-name="图层 1">
    <g>
      <g>
        <path class="cls-1" d="M59.3,2.07L.56,103.8c-1.59,2.76,.4,6.2,3.58,6.2h13.46L59.28,36.16c1.58-2.8,5.62-2.8,7.2,0l41.68,73.84h13.46c3.18,0,5.17-3.44,3.58-6.2L66.45,2.07c-1.59-2.76-5.57-2.76-7.16,0Z"/>
        <path class="cls-1" d="M59.36,68.41l-24.01,41.59h55.05l-24.01-41.59c-1.56-2.71-5.47-2.71-7.03,0Z"/>
      </g>
      <g>
        <path class="cls-1" d="M202.47,76.16h-36.68l-8.64,22.79h-14.9L176.8,11.06h14.77l34.55,87.89h-14.9l-8.76-22.79Zm-32.05-12.14h27.42l-12.9-33.8c-.38-.88-.63-1.88-.75-3-.13,1.13-.38,2.13-.75,3l-13.02,33.8Z"/>
        <path class="cls-1" d="M270.13,48.09c-.63-.12-1.21-.25-2.34-.25-12.39,0-19.78,8.54-19.78,25.32v25.79h-13.52V37.57h13.52v11.39c2.75-8.14,9.39-12.9,19.03-12.9,1.38,0,2.21,.13,3.09,.25v11.77Z"/>
        <path class="cls-1" d="M318.26,48.1h-15.77v28.19c0,7.89,3,10.89,10.89,10.89,1.63,0,3.13,0,4.88-.12v11.64c-1.88,.12-5.13,.25-7.51,.25-16.4,0-21.78-8.51-21.78-22.91v-27.93h-10.52v-11.77h10.52V19.25h13.52v17.08h15.77v11.77Z"/>
        <path class="cls-1" d="M339.98,70.99c1,10.39,9.01,17.03,18.9,17.03,8.01,0,14.4-3.51,17.15-9.26h14.02c-3.76,12.64-16.15,20.78-31.05,20.78-19.66,0-32.68-14.77-32.68-32.43s13.65-32.43,32.3-32.43,32.3,14.65,32.3,32.43c0,1.38,0,2.88-.13,3.88h-50.83Zm36.93-9.39c-1.25-9.01-8.89-15.4-18.28-15.4s-16.9,6.13-18.28,15.4h36.56Z"/>
        <path class="cls-1" d="M399.28,11h13.52V76.91c0,7.14,3.51,10.52,9.39,10.52,1.13,0,3.37,0,4.62-.13v11.52c-1.75,.13-5.12,.25-7.37,.25-13.4,0-20.16-7.26-20.16-21.78V11Z"/>
        <path class="cls-1" d="M488.53,98.95v-9.56c-4.01,6.13-12.39,10.14-21.66,10.14-17.03,0-32.05-12.52-32.05-32.43s15.02-32.43,32.05-32.43c9.26,0,17.65,4.01,21.66,10.14v-9.07h13.52v63.2h-13.52Zm-20.03-11.31c10.77,0,20.03-8.14,20.03-20.53s-9.26-20.53-20.03-20.53-20.03,8.14-20.03,20.53,9.26,20.53,20.03,20.53Z"/>
      </g>
    </g>
  </g>
</svg>
